<?xml version="1.0" encoding="UTF-8"?>
<svg id="Layer_1" data-name="Layer 1" xmlns="http://www.w3.org/2000/svg" viewBox="0 0 500 700">
  <defs>
        <style>
      .cls-1 {
        font-family: Apple-Chancery, 'Apple Chancery';
        opacity: .5;
      }

      .cls-1, .cls-2 {
        font-size: 24px;
      }

      .cls-3, .cls-4 {
        fill: #be5900;
      }

      .cls-4, .cls-5 {
        opacity: .8;
      }

      .cls-2, .cls-6 {
        font-family: Orbitron-Bold, Orbitron;
        font-weight: 700;
        opacity: .3;
      }

      .cls-7 {
        fill: #e9e8dc;
      }

      .cls-6 {
        font-size: 21px;
      }

      .cls-8 {
        letter-spacing: -.03em;
      }

      .cls-9 {
        letter-spacing: -.02em;
      }

      @keyframes foldHands {
        0%, 35% { opacity: 1; }
        45%, 90% { opacity: 0; }
        100% { opacity: 1; }
      }
      .anim-fade {
        animation: foldHands 3s infinite ease-in-out;
      }
    </style>




  </defs>
  <g>
    <rect class="cls-7" width="500" height="700" rx="32" ry="32"/>
    <g>
      <rect class="cls-4" x="40" y="47.1" width="50" height="50" rx="8" ry="8"/>
      <g>
        <path class="cls-7" d="M52.96,69.16v3.14h3.22v3.67h-3.22v3.19h-3.67v-3.19h-3.12v-3.67h3.12v-3.14h3.67Z"/>
        <path class="cls-7" d="M81.35,70.89c0,.36-.05.77-.14,1.1.48.58.79,1.34.79,2.18v3.58c0,1.9-1.56,3.48-3.48,3.48h-9.99c-1.92,0-3.5-1.58-3.5-3.48v-1.34h3.67v1.15h9.62v-3.19h-10.46v-3.67h9.82v-3.07h-8.98v1.34h-3.67v-1.54c0-1.92,1.58-3.48,3.5-3.48h9.34c1.92,0,3.48,1.56,3.48,3.48v3.46Z"/>
      </g>
    </g>
    <text class="cls-1" transform="translate(104.57 77.98)"><tspan x="0" y="0">Cat</tspan></text>
    <text class="cls-6" transform="translate(297.18 667.89) scale(1.05 1)"><tspan x="0" y="0">H</tspan><tspan class="cls-8" x="17.87" y="0">o</tspan><tspan x="31.88" y="0">ld </tspan><tspan class="cls-8" x="59.58" y="0">yo</tspan><tspan x="87.44" y="0">ur p</tspan><tspan class="cls-9" x="133.54" y="0">e</tspan><tspan x="147.59" y="0">e</tspan></text>
    <text class="cls-2" transform="translate(296.64 643.34)"><tspan x="0" y="0">DRINK CARD</tspan></text>
  </g>
  <g class="cls-5">
    <path class="cls-3" d="M393.02,271.72c.8,29.04-.84,58.44-10.1,86.04,20.18,68.01-5.53,135.79-54.67,170.67-28.68,19.56-61.97,27.79-94.51,20.43-40.45-9.15-75.93-40.06-98.09-82.64-18.51-37.32-23.99-80.43-7.7-120.38-5.78-24.05-7.32-48.4-6.39-73.36-1.95-7.75-4.06-15.08-4.24-23.13-.69-8.19,3.15-14.63,9.72-15.47-.2-6.11,1.72-11.27,5.16-14.22,6.68-5.73,14.9-1.96,19.57,6.89,4.58-4.53,10.31-5.01,15.06.1,1.94-8.31,4.19-15.81,7.88-23-1.35-6.16-.47-11.89-.19-17.99.74-16.02,3.76-31.5,10.92-44.6,4.27-7.82,10.9-11.53,18.22-8.46,11.21,4.7,21.04,16.12,35.42,22.81,21.68,10.1,37.62-1.82,56.18-14.71,7.65-5.31,21.6-14.99,28.69-3.84,11.65,18.34,14.16,42.69,13.74,65.36,4.04,7.9,6.8,16.03,8.86,25.72,4.75-6.09,11.07-6.42,16.3-1.38,4.64-9.46,13.77-12.78,20.43-5.92,2.96,3.05,4.27,7.8,4.25,13.33,6.31.82,9.92,6.73,9.7,14.4-.23,8.07-1.94,15.59-4.21,23.35ZM217.48,159.06c-5.54-6.78-10.51-11.86-16.16-15.98-17.75-10.61-19.39,32.95-19.21,46.95l35.37-30.97ZM321.75,145.84c-7.59-10.14-21.34,5.15-27.32,13.35l35.02,30.71c.76-12.39-.99-35.11-7.69-44.06ZM240.44,216.51c.45.78,1.59.56,1.92.04,1.43-2.24-5.37-17.8-20.28-18.79-8.76-.58-17.09,2.75-24.75,7.93-.73.49.15,2.09.57,2.41.29.22.64.4,1.41-.07,13.25-7.94,32.18-7,41.12,8.47ZM314.54,208.19c.82.51,1.96-.1,2-.79s-.08-1.69-.81-2.16c-6.96-4.54-14.39-7.59-22.39-7.58-16.93.03-23.97,18.16-21.88,19.15.64.3,1.39.19,1.89-.58,9.96-15.36,28.06-16.2,41.19-8.03ZM215.94,227.13c-4.76-9.51-15.06-9.43-20.56-1.68,7.58-2.64,13.81-2.15,20.56,1.68ZM317.87,225.38c-6.11-8.46-16.42-6.8-21.03,2.12,7.53-4.67,13.67-4.33,21.03-2.12ZM140.48,230.39c-1.25-.85-3.25-.17-4.06,1.33-2.04,3.83-1.35,9.29,1.63,11.98,1.24,1.12,2.9.75,3.84-.17,2.77-2.7,2.5-10.49-1.41-13.14ZM379.22,236.25c-.07-3.24-1.56-6.38-3.88-6.17-2.89.27-4.21,3.82-4.48,6.21-.34,3.07.13,6.73,2.78,7.74,3.29,1.25,5.67-3.44,5.58-7.79ZM220.36,238.74c-9.51-11.09-24.05-7.25-30.35,5.57,10.45-7.39,19.59-9.13,30.35-5.57ZM323.38,244.22c-6.97-13.15-21.46-16.4-30.65-5.28,11.26-4.36,20.6-1.37,30.65,5.28ZM161.74,239.84c-.68-.91-2.68-2.01-3.87-.8-2.62,2.66-2.16,8.31.39,10.84,1.31,1.3,2.92.88,3.79-.05,1.9-2.04,1.72-7.28-.31-10ZM358.35,243.48c-.14-3.01-1.66-5.44-3.88-4.74s-3.15,3.54-3.35,5.68.21,5.12,2.15,5.97c3.09,1.37,5.27-2.92,5.08-6.91ZM218.9,247.8c-7.22-6.45-17.14-1.47-19.5,8.25,6.31-6.07,11.76-8.45,19.5-8.25ZM314.05,256.01c-3.17-10.17-12.98-14.68-19.73-8.03,8.23-.84,13.44,2.56,19.73,8.03ZM130.51,246.61c-.86-.84-2.48-1.59-3.63-.5-2.71,2.56-2.15,8.5.44,10.99,1.34,1.29,2.96.55,3.68-.29,2.3-2.71,1.41-8.35-.48-10.19ZM386.88,245.73c-1.59-.52-2.97.45-3.87,2.44-1.35,2.99-1.51,7.55,1.19,9.27,1.68,1.07,3.2-.44,3.9-1.54,1.95-3.06,1.66-9.24-1.23-10.18ZM153.36,271.36c1.78-7.08-.5-14.39-5.08-18.38-1.66-1.45-4.48-1.55-6.23-.49-4.82,2.91-5.69,15.53,1.02,22.68,1.67,1.78,4.43,2.43,6.56,1.45,1.32-.61,3-2.35,3.73-5.25ZM370.06,276.12c5.27-3.92,7.29-11.77,5.62-18.62-1.17-4.8-5.15-7.33-8.8-4.85-5.42,3.67-7.69,12.16-5.57,19.35,1.27,4.32,5.27,6.72,8.75,4.13M243.03,329.74c-22.6-4.45-38.87-13.89-58.17-26.11,13.75,21.02,35.26,40.18,56.69,44.78-2.1-6.64-1.52-12.78,1.47-18.67M269.41,528.46c.74-2.39,1.72-3.27,2.85-4.59,6.07,2.89,13.26,1.26,18.39,5.13l9.25,6.99c2.08,1.57,5.22-1.99,7.37-2.74l-2.84-4.42c3.8-.66,7.02-3.11,10.59-3.17l6.15-.11c3.01-.05,5.61-3.45,8.11-5.72-2.25-1.97-4.21-1.79-6.44-3.19l1.03-8.99c5.04,1.34,8.88,3.68,13.07,5.97,2.2-1.75,4.1-3.35,6.2-6-8.2-6.53-16.93-10.06-26.67-10.86-.13-3.32.16-6.19.55-9.41,11.81.84,22.4,5.98,31.96,14.15,4.68-4.87,8.29-10.08,11.96-15.86-4.92-.46-8.57,2.98-12.82,3.83-2.35-.8-4.81-2.99-7.2-4.86,8.14-6.48,16.87-9.13,26.14-9.36,1.76-2.85,3.2-5.66,4.17-9.07-14.2-1.85-27.9,4.02-39.22,14.73-2.87-.94-5.4-1.13-8.38-2.72,14.16-16.58,32.56-24.29,51.53-21.08,1.41-2.98,2.28-5.71,3.03-8.97-4.42-1.2-7.91-.96-11.98-1.41-26.57-37.48-68.92-42.02-99.42-7.99-6.8-11.48-18.1-22.51-29.04-13.34-19.72-12.95-42.66-12.8-62.49-.04-8.46,5.44-14.96,13.1-21.75,21.14-5.98,1.32-13.12.32-18.73,3.88.84,2.94,1.96,5.72,3.6,8.14,13.67-3.91,27.56-2.5,40.39,5.1-.51,5.01,1.74,7.89,3.99,12.84-12.39-8.76-26.09-13.21-40.07-9.24,1.62,3.45,2.97,5.93,4.85,8.45,11.11-1.35,21.95,1.49,31.23,9.1-2.86,2.6-5.09,3.57-7.52,5.17-5.57-3.21-11.09-5.02-17.54-5.21,2.87,5.1,6.62,8.49,9.99,12.81,1.64,2.1,2.99,4.5,5.43,5.49,5.95-5.08,11.99-9.79,18.95-12.02l4.21,7.72c-6.41,2.85-12.08,5.56-17.26,10.52,2.02,2.24,4,3.97,6.31,5.53,5.55-3.32,11.2-7.33,17.37-7.46l8.44,7.92c-6.55.75-12.57,1.64-18.81,5.47l8.86,5.86c6.52-1.7,13.11-2.33,19.68.61l-5.61,7.02c2.12.77,5.6,3.9,7.72,2.76,4.22-2.89,7.29-7.47,11.91-9.53l4.37,6.99c-2.59,2.47-5.24,3.22-7.29,6.23,3.62,1.32,6.95,2.12,10.55,2.5,13.13-7.89,27.93-8.31,41.23-.62,3.66-.73,6.92-1.21,10.95-2.82-6.27-6.11-13.43-8.99-21.31-11.27Z"/>
    <path class="cls-7 anim-fade" d="M268.59,248c-5.6-.24-9.97-5.79-10.17-12.93-.04-1.33-.74-1.99-1.36-1.91-.37.05-1.42.33-1.42,1.28-.04,7.75-4.83,13.35-10.8,13.12-5.63-.21-10.01-5.77-10.21-13.2-.02-.9-.9-1.54-1.32-1.56-3.03-.16-1.16,13.9,7.86,17.41,6.11,2.37,11.94-.58,15.81-7.67,3.26,6.86,9.1,10.16,15.13,8.44,10.12-2.9,11.62-18.64,8.66-17.29-1.93.88-1.46,14.78-12.19,14.33Z"/>
    <path class="cls-7 anim-fade" d="M338.37,420.99c0-58.97-38.34-106.78-85.64-106.78s-85.64,47.81-85.64,106.78,38.34,106.78,85.64,106.78,85.64-47.81,85.64-106.78Z"/>
        <g>
      <path class="cls-3" d="M314.64,518.11c-10.56,8.29-30.89,3.18-42.25-1.06-5.41-2.02-3.16,5.92-11.81,10.19-6.26,3.09-13.33,4.59-19.99,2.46-3.3-1.05-4.63-5.82-6.29-9.29-22.82-4.88-40.53-21.22-47.14-49.39-.49-2.07-3.27-2.95-3.08-5.76.14-2.05,1.71-4.38,2.28-6.03-.5-2.53-1.37-5-.79-7.74.78-3.68,4.49-2.26,5.98-4.01,11.49-16.05,27.47-18.84,43.7-14.02,4.91,1.46,8.22-10.38,18.53-1.64,13.6,11.52,11.81,27.76,19.75,21.68,5.58-4.27,19.08-14.92,24.78-10.62,4.83,3.65.99,16.5-.13,22.94,2.85,1.44,6.06,2.75,7.09,6.53.88,3.23-.44,6.29-1.26,9.73,3.04.65,6.29,2.15,7.23,6.09.95,4.02-.59,7.67-1.86,11.42,2.56,1.43,5.16,2.77,7.05,5.4,2.96,4.12,2.24,9.95-1.79,13.11Z"/>
      <path class="cls-7 anim-fade" d="M208.1,458.14c0-3.88-2.52-7.03-5.64-7.03s-5.64,3.15-5.64,7.03,2.52,7.03,5.64,7.03,5.64-3.15,5.64-7.03Z"/>
      
      <path class="cls-3 anim-fade" d="M300.85,435.9c-4.37.84-8.15-2.06-12.46.44l-16.8,9.75c24.03-28.31,61.23-27.5,84.83,1.34-2.67,1.3-5.42,1.59-8.47,2.63-13.47-13.83-30.04-17.45-47.1-14.16Z"/>
      <path class="cls-3 anim-fade" d="M192.5,436.2c-7.02,4.74-14.71,6.82-20.55,13.98l-8.6-2.76c12.67-14.84,29.5-23.84,46.89-21.62-6.99,2.04-11.85,6.42-17.74,10.4Z"/>
      <path class="cls-3 anim-fade" d="M332.07,459c-8.54-4.94-17.2-6.29-26.38-4.56.23-3.46.11-6.05-.03-9.4,11.83-2.45,23.68.73,33.67,8.7l-7.26,5.27Z"/>
      <path class="cls-3 anim-fade" d="M324,465.47c-4.01,3.51-9.39,13-11.55,11.97-2.58-1.22-.47-6.84-5.29-13.37,5.69-1.55,11.21-1.14,16.84,1.4Z"/>
    </g>
  </g>
</svg>