<?xml version="1.0" encoding="UTF-8"?>
<svg id="Layer_1" data-name="Layer 1" xmlns="http://www.w3.org/2000/svg" viewBox="0 0 500 700">
  <defs>
    <linearGradient id="revealGrad" x1="0" y1="0" x2="0" y2="1">
      <stop offset="0%" stop-color="#000" />
      <stop offset="10%" stop-color="#fff" />
      <stop offset="70%" stop-color="#fff" />
      <stop offset="100%" stop-color="#000" />
    </linearGradient>
    <mask id="waterMask">
      <rect x="0" y="-700" width="500" height="700" fill="url(#revealGrad)">
        <animate attributeName="y" values="-700; 700" dur="2.5s" repeatCount="indefinite" />
      </rect>
    </mask>
    <style>
      @import url('https://fonts.googleapis.com/css2?family=Italianno&family=Orbitron:wght@400..900&display=swap');
      .cls-1 {
        font-family: 'Italianno', Apple-Chancery, 'Apple Chancery';
        opacity: .5;
      }

      .cls-1, .cls-2 {
        font-size: 24px;
      }

      .cls-3, .cls-4 {
        fill: #067127;
      }

      .cls-3, .cls-5 {
        stroke: #067127;
        stroke-miterlimit: 10;
        stroke-width: .25px;
      }

      .cls-5 {
        fill: none;
      }

      .cls-2, .cls-6 {
        font-family: 'Orbitron', Orbitron-Bold, sans-serif;
        font-weight: 700;
        opacity: .3;
      }

      .cls-7 {
        fill: #e9e8dc;
      }

      .cls-6 {
        font-size: 21px;
      }

      .cls-8 {
        letter-spacing: -.03em;
      }

      .flowing-sake {
        opacity: 0;
        animation: flowSequence 1.8s infinite linear;
      }

      @keyframes flowSequence {
        0% {
          opacity: 0;
          transform: translateY(-8px);
        }
        20% {
          opacity: 1;
        }
        80% {
          opacity: 1;
          transform: translateY(8px);
        }
        100% {
          opacity: 0;
          transform: translateY(16px);
        }
      }
    </style>
  </defs>
  <g>
    <rect class="cls-7" width="500" height="700" rx="32" ry="32"/>
    <g>
      <rect class="cls-4" x="40" y="47.1" width="50" height="50" rx="8" ry="8"/>
      <g>
        <text class="cls-7" x="65" y="80" text-anchor="middle" font-family="'Orbitron', Orbitron-Bold, sans-serif" font-weight="700" font-size="26">+2</text>
      </g>
    </g>
    <text class="cls-1" transform="translate(104.57 77.98)"><tspan x="0" y="0">Fishes </tspan></text>
    <text class="cls-6" transform="translate(297.18 667.89) scale(1.05 1)"><tspan x="0" y="0">H</tspan><tspan class="cls-8" x="17.87" y="0">o</tspan><tspan x="31.88" y="0">ld </tspan><tspan class="cls-8" x="59.58" y="0">yo</tspan><tspan x="87.44" y="0">ur p</tspan><tspan class="cls-9" x="133.54" y="0">e</tspan><tspan x="147.59" y="0">e</tspan></text>
    <text class="cls-2" transform="translate(296.64 643.34)"><tspan x="0" y="0">DRINK CARD</tspan></text>
  </g>
  <g>
    <path class="cls-5" d="M348.86,161.54l6.85-8.13-.98,4.59c2.03-1.13,4.41-4.44,4.17-7.99-.26-3.94-2.38-6.68-4.51-8.65l1.92-2.93c3.77,5.64,6.96,11.55,7.86,19.42l-1.49-3.85c-1.73,1-3.99,3.2-4.75,6.33.63,2.2,1.62,5.69,2.22,7.65.3.97,2.52,2.1,3,1.27l1.63-2.84c1.83,4.74-12.24,16.39-14.71,18.59l-5.15,4.59c-3.29,2.93-6.4,5.58-9.59,9.69,4.88-2.94,9.46-6.05,13.88-10.48l8.07-8.08c3.16-3.16,7.44-5.28,9.65-10.38,1-4.63-1.31-18.49-3.93-21.9l-1.39-4.23c-1.82-5.53-7.96-12.11-11.64-13.38l-9.66,8.6-9,9.11-5.55,5.91c-4.66,4.97-9.4,9.1-13.52,15.28,2.04.76,2.94-1.8,4.34-3.21l29.26-29.35c3.1-3.11,6.46-4.24,9.75-.11-1.88,4.96-8.23.93-6.83,3.44l1.14,2.03-11.72,11.79-7.35,7.14c-.72.7-1.49.82-3.16.88l7.04,16.2c.6-5.87-2.15-8.16-3.93-13.07,4.75-5.56,6.72-6.67,12.36-13.27,1.12-1.32,2.63-2.75,3.87-3.91-2.59,6.28-4.06,13.55,1.12,17.71l-1.56-5.1,1.27-10.55c.37-3.11.92-5.86,3.76-6.33-.36,6.4-5.29,13.56-2.76,17.48ZM276.69,214.12l-7.72-4.73c6.47-3,26.19,16.36,31.21,22.25,5.06,5.93,8.01,14.95,11.58,22.74,4-10.62-2.78-18.45-3.81-26.25-1.35-10.23-1.38-21.04-9.2-26.07-1.63-16.05-8.99-21.78-17.34-29.22,7.25-1.45,14.99,15.29,15.84,14.31l1.69-1.94,12.73-14.5c-8.36-4.94-15.78-10.97-24.28-12.69-10.62-2.15-21.34-2.31-31.82.05s-26.04,9.75-35.42,17.99c-5.4,4.75-13.66,14.59-17.93,21.48-1.21,1.95-2.37,4.88-3.54,7.12-2.06,3.96-3.61,9-3.98,14.26-.54,7.61,2.61,17.27,7.72,20,7.29-1.18,13.55-10.12,18.48-16.91.29-.41,1.47-.72,1.43-.2-.03.35.12,2.29-.02,2.58-1.75,3.67-4.93,10.72-7.61,13.83l-7.46,8.66,4.89,1.38c6.74,5.43,13.96,8.28,21.77,8.15l9.89-.16,16.95-19.93c5.25-6.17,10.62-14.08,15.95-22.21ZM316.65,197.27l-10.92,10.23c1.36,3.9,2.1,6.42,3.2,10.86,5.94-4.27,11.67-9.1,17.27-14.19l21.27-19.35,9.14-8.58c1.81-1.7,3.54-4.02,4.92-6.2l-5.73-2.83c-2.9-1.43-4.58-.38-7.13,1.86l-4.8,4.22-8.33,7.87.92,5.5c-6.05,4.86-11.34,9.66-17.03,15.43-2.84-8.5-5.39-17.32-10.02-24.93-.45,1.42.28,2.93.87,4.76-3.23,3.03-7.97,8.44-10.63,12.25-.28.4.18,2.39.5,2.18.21-.14.99-.59,1.3-.93l10.28-10.95,4.91,12.8ZM330.33,453.87c.65,2.8,3.52,10.7,6.62,9.86.35-.09.53-1.54.24-1.85l-1.43-1.57c-3.86-4.26-4.32-19.5-3.27-24.49,1.62-7.71,4.27-15.84,7.6-22.05l10.08-18.78c5.52-10.28,10-20.5,12.4-33.29,2.81-14.98,2.4-25.67.78-41.05l-.69-6.54c3.98,9.85,2.5,20.31,3.86,31.51,2.26-10.87,3.33-21.4,4.01-32.24,1.06-16.86-1.66-32.84-5.23-48.76-5.5-24.54-15.88-49.02-30.59-64.43-7.98,7.26-16.02,13.57-24.38,19.88-2.82,2.13-1.46,7.51.09,10.24,3.24,5.72,3.7,13.3,3.79,20.61,9.11,2.9,17.72,7.06,25.45,14.3,5.84,5.48,9.79,13.38,13.89,21.35,2.48,4.8,7.9,20.2,8.76,26.15-4.4,8.49-1.01,9.15-7.71,16.53l-4.45,4.89c-4.35,4.79-9.83,7.85-15.11,9.8-5.76,2.13-11.27.52-15.77-4.61-4.19-4.78-6.04-11.73-6.62-21.01-2.54,2.99-1.63,6.95-1.2,10.59.9,7.65,3.37,14.06,6.47,20.28,6.07,12.15,15.72,17.43,26.23,14.24-.19,2.75-.56,5.6-1.3,8.13l-6.24,21.36c-5.57,19.07-11.28,39.37-6.3,60.96ZM242.87,262.73c6.57-6.06,12.18-12.91,18.24-19.7l7.81-8.74c4.79-5.36,9.65-10.41,14.21-17.09-.55-3.56-13.84,13.91-15.27,15.57l-16.25,18.89c-3.05,3.54-6.49,5.85-8.74,11.06ZM228.4,479.68c.08,7.23,3.59,10.77,7.93,10.39,6.83-.6,14.14-7.26,19.07-14.14,8.97-12.52,3.68-12.21,3.73-11.99l-.7-2.78c-3.61,2.33-7.71,4.18-11.38,6.94-2.77,2.09-5.38,4.44-8.15,6.14-1.48-21.97,6.4-18.58,2.3-45.93l-1.35-8.99c-3.01-20.07-.85-19.7.92-37.47,2.67-26.8-3.57-27.25-2.33-49.45l.31-5.63.76-6.93c.07-.61.21-2.5.53-2.21l1.43,1.27c.04-.21.28-2.13-.06-2.55l-1.53-1.88.4-8.32c-1.49-9.8-2.94-19.04-2.57-28.87,1.59,1.56,2.8.37,4.27-1.22l5.85-6.32c5.1-5.51,11.02-8.32,15.95-14.43-8.66,3.26-14.83,14.49-23.16,18.22,1.06-1.61,2.56-3.66,4.07-5.01l14.36-12.76c7.91-7.03,15.87-13.41,24.18-19.31l11.27-8-5.85-6.03-8.67,8.03-30.14,29.09c-3.56,3.44-5.82,6.59-9.4,10.1l-2.19,2.14c-.77.76-2.86-5.37-2.55-5.76l1.9-2.43c.24-.31.67-1.16.81-1.52.09-.24-.46-.63-.64-.54l-1.03.56c-1.01.54-3.52,2.21-3.28,4.15.41,3.31,1.83,5.95,3.38,8.7-3.27,7.98-4.14,16.81-2.59,25.92l2.71,15.97c1.86,10.94-4.51,19.57-1.51,41.39l2.52,18.29c2,14.5-5.09,23.29-2.6,48.21l.84,8.42c.33,3.3,2.9.67,1.95,21.83l-.55,12.22c-.16,3.52.38,7.84.09,11.18-.02.28.11,1.4.29,1.39h.93c-.19-4.58,1.93-4.08,4.08-5.33,6.41-3.73,11.99-11.2,15.41-9.32-1.92,9.16-21.94,29.47-26.67,21.13-2.15-9.41-.42-18.99,2.25-27.35l-.56,8.33c2.45-3.33,2.3-14.63.28-12.36-2.6,2.92-5.41,17.23-5.32,24.84ZM308.69,250.84c-3.57-8.67-7.13-14.84-12.22-20.87-10.77,6.97-20.85,14.72-31.47,23.64,3.8,1.22,6.99-.3,10.53-.75l10.79-1.38,22.37-.65ZM218.08,464.44c-5.04,4.58-10.48,8.02-16.23,8.7-11.14,1.32-21.13-3.13-30.53-11.16-2.17-1.86-4.1-3.55-6.01-5.89l-6.34-7.75c-3.89-4.75-8.43-10.72-10.82-16.69l-3.6-9-3.19-7.3c-2.14-4.9-5.17-20.38-6.17-26.62-2.36-14.6-2.67-30.4.35-44.71-.52,15.41-1.39,28.98.36,43.71.1.88.43,2.19.62,2.81,1.47,4.68,1.41-13.18,5.81-22.37,6-12.54,16.99-11.39,26.52-11.39,12.39,0,24.3-3.57,31.7-19.69,1.03-2.24,1.48-4.01,1.07-7.18l-3.81,6.14-3.53,5.69c-8.08,6.75-17.05,4.6-25.37-.04-2.87-1.6-6.73-1.76-9.9-1.63-3.55.15-6.16,2.95-9.58,4.39l2.81-9.1c2.36-7.66,4.78-17.02,5.92-25.23,2.23-16.06,1.68-34.56-2.98-49.05-1.59-4.93-8.31-21.35-13.12-21.52l5.19,13c1.35,3.37,1.2,6.3,1.56,9.77.88,8.33.77,16.35-.56,24.59-.81,4.99-1.22,10.38-2.84,15.02-4.6,13.17-7.98,26.93-10.3,41.08-1.36,1.01-2.74,2.62-3.28,4.25l-3.39,10.26c-1.78,5.39-4.98,21.36-5.5,27.07l-.79,8.62-1.08,14.45c-.6,8.07-.19,15.57.79,23.74,2.05,17.04,2.95,23.68,7.06,39.57,1.15,4.44,2.9,8.29,4.45,12.36,5.87,15.4,16.54,35.64,26.56,45.22l4.45,4.25c13.84,13.22,30.37,20.16,47.02,17.44,19.4-3.17,37.53-17.71,46.54-43.27,3.11-8.81,8.11-29.69,2.95-37.44-4.85,13.06-12.57,20.9-22.24,22.93-4.19.88-9.41-.68-11.11-7.2-2.22-8.54.05-23.69,4.85-31.2-1.9.17-3.76.77-4.96,1.85l-9.36,8.51ZM217.36,262.93c-1.21-1.04-3.29-1.03-4.01-.05-.68.93-.36,4.26.33,5.11.74.92,2.51.8,3.4-.06.75-.73,1.2-4.22.28-5.01ZM247.83,319.74c.45-.62,1.04-3.41.55-3.79l-1.78-1.36c-.78-.6-2.84.99-3.12,2.27-.23,1.09.5,3.03,1.26,4.14.55.8,2.11.08,3.09-1.26ZM226.54,330.75c-2.25-2.15-5.06-1.29-5.19,2.24-.1,2.7,2.34,4.17,3.9,3.46,1.08-.5,2.36-4.68,1.29-5.7ZM223.19,377.94c.15-3.65-1.8-4.06-3.3-3.97s-2.56,1.41-2.7,4.6c-.08,1.72,2.12,3.48,3.33,3.41.94-.06,2.6-2.25,2.67-4.04ZM251.91,406.74c-.42-1.09-2.46-1.88-3.3-1.65-.72.2-1.99,1.88-2.17,2.96-.47,2.81,2.1,4.89,3.64,4.18,1.1-.51,2.63-3.45,1.83-5.49ZM231.32,431.92c0-2.1-1.16-3.81-2.6-3.81s-2.6,1.71-2.6,3.81,1.16,3.81,2.6,3.81,2.6-1.71,2.6-3.81Z"/>
    <g>
      <path class="cls-3 flowing-sake" style="animation-delay: 0.9s;" d="M223.19,377.94c-.08,1.79-1.73,3.98-2.67,4.04-1.22.07-3.41-1.69-3.33-3.41.14-3.19,1.28-4.52,2.7-4.6,1.5-.09,3.46.32,3.3,3.97Z"/>
      <path class="cls-3 flowing-sake" style="animation-delay: 1.2s;" d="M251.91,406.74c.79,2.04-.74,4.98-1.83,5.49-1.54.71-4.11-1.37-3.64-4.18.18-1.08,1.45-2.76,2.17-2.96.84-.23,2.88.56,3.3,1.65Z"/>
      <path class="cls-3 flowing-sake" style="animation-delay: 0.6s;" d="M226.54,330.75c1.06,1.02-.21,5.2-1.29,5.7-1.55.72-4-.75-3.9-3.46.14-3.53,2.95-4.39,5.19-2.24Z"/>
      <ellipse class="cls-3 flowing-sake" style="animation-delay: 1.5s;" cx="228.72" cy="431.92" rx="2.6" ry="3.81"/>
      <path class="cls-3 flowing-sake" style="animation-delay: 0s;" d="M217.36,262.93c.92.79.47,4.28-.28,5.01-.88.86-2.65.98-3.4.06-.68-.85-1-4.18-.33-5.11.72-.98,2.79-.99,4.01.05Z"/>
      <path class="cls-3 flowing-sake" style="animation-delay: 0.3s;" d="M247.83,319.74c-.97,1.34-2.53,2.06-3.09,1.26-.77-1.11-1.5-3.06-1.26-4.14.27-1.28,2.34-2.87,3.12-2.27l1.78,1.36c.49.38-.1,3.17-.55,3.79Z"/>
      <g>
        <path class="cls-3" d="M276.69,214.12c-5.33,8.13-10.7,16.03-15.95,22.21l-16.95,19.93-9.89.16c-7.81.13-15.02-2.72-21.77-8.15l-4.89-1.38,7.46-8.66c2.68-3.11,5.87-10.17,7.61-13.83.14-.29-.01-2.23.02-2.58.04-.52-1.13-.2-1.43.2-4.93,6.79-11.19,15.73-18.48,16.91-5.11-2.73-8.26-12.38-7.72-20,.37-5.26,1.92-10.31,3.98-14.26,1.17-2.25,2.33-5.17,3.54-7.12,4.27-6.89,12.53-16.73,17.93-21.48,9.38-8.24,24.47-15.53,35.42-17.99s21.2-2.19,31.82-.05c8.51,1.72,15.92,7.75,24.28,12.69l-12.73,14.5-1.69,1.94c-.85.98-8.59-15.76-15.84-14.31,8.35,7.43,15.71,13.17,17.34,29.22,7.82,5.03,7.85,15.83,9.2,26.07,1.03,7.8,7.81,15.63,3.81,26.25-3.57-7.79-6.52-16.8-11.58-22.74-5.02-5.9-24.74-25.26-31.21-22.25l7.72,4.73ZM238.13,224.96c7.37-6.19,12.14-16.41,11.14-29.76-.54-7.23-2.71-14.34-7.54-17.35-2.53-1.58-6.34-1.41-8.56.27,3.38.36,6.58.75,9.22,3.84,4.19,4.9,5.6,13.22,4.72,21.18-.98,8.79-4.92,15.48-8.98,21.82ZM234.48,200.37c.34,5.38-1.15,9.92-2.14,15.41,4.18-6.36,5.41-17.22,2.15-24.77-4.25-9.82-12.41-6.39-17.36-.47,2.54-.86,4.81-1.82,7.17-2.4,5.45-1.33,9.66,4.05,10.18,12.23ZM219.34,204.48c1.23.98,1.63,5.06,1.68,7.29,2.65-3.4,4.29-10.86.86-14.5-2.32-2.46-5.88-.25-7.55,2-2.22,3-2.87,7.16-2.29,11.57.4,3.06,3.04,5.63,4.61,3.91-1.14-2.57-2.19-5.25-1.7-7.25.59-2.46,2.1-4.84,4.39-3.01Z"/>
        <path class="cls-3" d="M330.33,453.87c-4.99-21.59.73-41.89,6.3-60.96l6.24-21.36c.74-2.52,1.11-5.38,1.3-8.13-10.51,3.19-20.16-2.09-26.23-14.24-3.11-6.22-5.57-12.64-6.47-20.28-.43-3.64-1.34-7.6,1.2-10.59.58,9.28,2.43,16.23,6.62,21.01,4.5,5.13,10.01,6.74,15.77,4.61,5.28-1.95,10.76-5.01,15.11-9.8l4.45-4.89c6.7-7.37,3.31-8.04,7.71-16.53-.86-5.96-6.28-21.35-8.76-26.15-4.11-7.97-8.05-15.87-13.89-21.35-7.73-7.25-16.35-11.4-25.45-14.3-.09-7.31-.55-14.89-3.79-20.61-1.55-2.74-2.9-8.11-.09-10.24,8.36-6.32,16.4-12.62,24.38-19.88,14.71,15.41,25.09,39.9,30.59,64.43,3.57,15.92,6.29,31.9,5.23,48.76-.68,10.84-1.75,21.37-4.01,32.24-1.36-11.2.12-21.66-3.86-31.51l.69,6.54c1.62,15.38,2.03,26.07-.78,41.05-2.4,12.79-6.88,23.01-12.4,33.29l-10.08,18.78c-3.34,6.21-5.98,14.34-7.6,22.05-1.05,4.99-.59,20.23,3.27,24.49l1.43,1.57c.28.31.1,1.76-.24,1.85-3.1.84-5.97-7.06-6.62-9.86Z"/>
        <g mask="url(#waterMask)">
          <path class="cls-4" d="M235.7,489.97c-4.35,0-7.1-3.94-7.18-10.29-.09-7.5,2.69-21.83,5.29-24.76.15-.17.29-.26.4-.26.17,0,.31.2.39.37.93,1.83.64,8.83-1.02,11.7l.59-8.87-.31.98c-3.34,10.48-4.07,19.45-2.25,27.42.78,1.38,1.97,2.07,3.54,2.07,7.26,0,21.73-15.41,23.37-23.19l.02-.09-.08-.04c-.38-.21-.8-.31-1.25-.31-2.06,0-4.62,2.14-7.59,4.63-2.03,1.7-4.33,3.63-6.7,5.01-.47.28-.95.46-1.4.65-1.53.61-2.86,1.14-2.74,4.66h-.8c-.06-.08-.19-.96-.17-1.25.16-1.83.07-3.97-.01-6.05-.07-1.74-.15-3.54-.07-5.14l.55-12.22c.72-15.85-.54-18.38-1.37-20.05-.28-.55-.49-.99-.57-1.8l-.84-8.42c-1.37-13.72.15-22.44,1.49-30.13,1.08-6.2,2.01-11.55,1.11-18.08l-2.52-18.29c-1.72-12.49-.35-20.76.76-27.41.83-4.99,1.54-9.3.75-13.99l-2.71-15.97c-1.56-9.18-.69-17.88,2.58-25.85l.02-.06-.03-.05c-1.67-2.95-2.98-5.46-3.37-8.65-.26-2.08,2.86-3.83,3.22-4.03l1.03-.56c.11,0,.33.14.43.28.04.05.04.09.04.1-.14.37-.56,1.19-.79,1.48l-1.9,2.43c-.28.35.67,3.2,1.38,4.66.6,1.23.93,1.37,1.12,1.37.09,0,.17-.03.23-.1l2.19-2.15c1.76-1.72,3.21-3.38,4.62-4.98,1.46-1.66,2.97-3.37,4.78-5.13l30.14-29.09,8.58-7.95,5.67,5.84-11.15,7.92c-8.2,5.82-16.11,12.14-24.19,19.32l-14.36,12.76c-1.23,1.09-2.61,2.78-4.09,5.03l-.24.36.39-.18c4.02-1.8,7.59-5.39,11.05-8.87,3.62-3.64,7.37-7.41,11.66-9.17-2.63,3.16-5.56,5.46-8.4,7.69-2.43,1.91-4.93,3.88-7.24,6.36l-5.85,6.32c-1,1.08-1.83,1.91-2.7,1.91-.46,0-.91-.23-1.39-.69l-.2-.2v.28c-.37,9.61,1,18.65,2.45,28.21l.1.68-.41,8.3,1.56,1.96c.24.29.14,1.65.07,2.23l-1.29-1.15-.11-.03c-.27,0-.41.49-.56,2.09l-.78,7.19-.31,5.63c-.56,10.12.44,15.83,1.41,21.36,1.17,6.64,2.37,13.5.92,28.09-.48,4.83-1,8.38-1.42,11.24-1.13,7.74-1.7,11.63.49,26.26l1.35,8.99c2.27,15.19.88,20.78-.6,26.71-1.16,4.64-2.36,9.44-1.7,19.21v.21s.19-.11.19-.11c1.85-1.13,3.57-2.52,5.4-3.99.91-.73,1.82-1.46,2.75-2.16,2.2-1.66,4.58-3,6.88-4.29,1.52-.85,2.95-1.66,4.34-2.55l.66,2.61.24-.06-.04.11s.06-.02.15-.02c.11,0,.66.03.96.61.47.92.45,3.61-5.02,11.25-4.59,6.41-11.99,13.47-18.98,14.09-.21.02-.41.03-.62.03Z"/>
          <path class="cls-4" d="M288.66,222.75l5.48,5.65-11.03,7.83c-8.2,5.82-16.12,12.14-24.2,19.33l-14.36,12.76c-1.24,1.1-2.62,2.8-4.11,5.05l-.48.72.79-.35c4.04-1.81,7.62-5.41,11.09-8.9,3.48-3.49,7.06-7.1,11.13-8.93-2.53,2.94-5.33,5.14-8.04,7.27-2.43,1.91-4.94,3.88-7.25,6.38l-5.85,6.32c-.98,1.06-1.79,1.86-2.61,1.86-.42,0-.85-.22-1.3-.66l-.4-.4-.02.56c-.36,9.62,1.01,18.66,2.46,28.23l.1.64-.4,8.32v.1s.06.07.06.07l1.53,1.88c.17.21.13,1.25.07,1.89l-1.08-.96c-.09-.08-.17-.09-.23-.09-.4,0-.53.58-.69,2.21l-.03.25-.76,6.95-.31,5.63c-.56,10.13.44,15.85,1.41,21.39,1.16,6.63,2.37,13.48.92,28.06-.48,4.83-1,8.38-1.42,11.23-1.13,7.76-1.7,11.65.49,26.3l1.35,8.99c2.27,15.16.88,20.75-.6,26.66-1.16,4.65-2.36,9.46-1.7,19.25l.03.41.35-.22c1.85-1.14,3.59-2.53,5.42-4,.89-.72,1.82-1.46,2.75-2.16,2.2-1.65,4.57-2.99,6.87-4.28,1.4-.79,2.84-1.6,4.2-2.46l.61,2.44.49-.12c.03.13-.06.24-.12.26,0,0,.04,0,.1,0,.13,0,.59.04.85.54.46.9.42,3.54-5.01,11.12-4.57,6.39-11.94,13.43-18.89,14.04-.2.02-.41.03-.61.03-4.28,0-6.98-3.9-7.05-10.17-.09-7.48,2.67-21.76,5.26-24.67.17-.19.27-.21.31-.21.08,0,.19.11.28.3.87,1.71.66,7.95-.74,11.04l.48-7.24.14-2.06-.63,1.96c-3.34,10.5-4.08,19.5-2.25,27.49v.04s.03.03.03.03c.79,1.39,2.01,2.1,3.64,2.1,3.42,0,8.64-3.27,13.97-8.75,5.01-5.15,8.74-10.86,9.52-14.54l.04-.18-.16-.09c-.4-.22-.84-.33-1.31-.33-2.11,0-4.69,2.16-7.67,4.66-2.03,1.7-4.33,3.62-6.68,5-.47.27-.93.46-1.39.64-1.56.62-2.91,1.16-2.82,4.65h-.56c-.08-.22-.17-.89-.15-1.11.16-1.83.07-3.99-.01-6.07-.07-1.74-.15-3.53-.07-5.13l.55-12.22c.72-15.88-.55-18.43-1.39-20.11-.27-.54-.48-.97-.56-1.76l-.84-8.42c-1.37-13.7.15-22.41,1.49-30.1,1.08-6.21,2.02-11.57,1.11-18.12l-2.52-18.29c-1.72-12.47-.35-20.73.76-27.37.83-5,1.55-9.32.75-14.03l-2.71-15.97c-1.55-9.15-.69-17.83,2.58-25.79l.05-.11-.06-.11c-1.66-2.94-2.97-5.44-3.35-8.6-.24-2,2.8-3.71,3.15-3.9l.99-.54c.1.02.3.17.32.21-.14.36-.55,1.17-.77,1.45l-1.9,2.43c-.36.47.79,3.59,1.37,4.79.62,1.28.99,1.44,1.24,1.44.12,0,.23-.05.32-.14l2.19-2.15c1.76-1.72,3.22-3.38,4.62-4.98,1.46-1.66,2.96-3.37,4.78-5.12l30.13-29.08,8.49-7.87M288.67,222.41l-8.67,8.03-30.14,29.09c-3.56,3.44-5.82,6.59-9.4,10.1l-2.19,2.14s-.09.06-.15.06c-.86,0-2.7-5.46-2.41-5.83l1.9-2.43c.24-.31.67-1.16.81-1.52.08-.21-.35-.55-.57-.55-.03,0-.05,0-.07.01l-1.03.56c-1.01.54-3.52,2.21-3.28,4.15.41,3.31,1.83,5.95,3.38,8.7-3.27,7.98-4.14,16.81-2.59,25.92l2.71,15.97c1.86,10.94-4.51,19.57-1.51,41.39l2.52,18.29c2,14.5-5.09,23.29-2.6,48.21l.84,8.42c.33,3.3,2.9.67,1.95,21.83l-.55,12.22c-.16,3.52.38,7.84.09,11.18-.02.28.1,1.39.29,1.39h.93c-.19-4.58,1.93-4.08,4.08-5.33,5.72-3.33,10.77-9.62,14.23-9.62.42,0,.82.09,1.19.3-1.61,7.65-15.85,23.1-23.24,23.1-1.45,0-2.65-.6-3.42-1.97-2.15-9.41-.42-18.99,2.25-27.35l-.56,8.33c2.23-3.03,2.3-12.66.78-12.66-.15,0-.32.09-.5.3-2.6,2.92-5.41,17.23-5.32,24.84.08,6.88,3.25,10.42,7.3,10.42.21,0,.42,0,.63-.03,6.83-.6,14.14-7.26,19.07-14.14,7.74-10.81,4.86-12.06,3.96-12.06-.14,0-.24.03-.23.06l-.7-2.78c-3.61,2.33-7.71,4.18-11.38,6.94-2.77,2.09-5.38,4.44-8.15,6.14-1.48-21.97,6.4-18.58,2.3-45.93l-1.35-8.99c-3.01-20.07-.85-19.7.92-37.47,2.67-26.8-3.57-27.25-2.33-49.45l.31-5.63.76-6.93c.06-.57.19-2.24.47-2.24.02,0,.04,0,.07.03l1.43,1.27c.04-.21.28-2.13-.06-2.55l-1.53-1.88.4-8.32c-1.49-9.8-2.94-19.04-2.57-28.87.52.51,1.01.73,1.47.73.94,0,1.81-.88,2.79-1.95l5.85-6.32c5.1-5.51,11.02-8.32,15.95-14.43-8.66,3.26-14.83,14.49-23.16,18.22,1.06-1.61,2.56-3.66,4.07-5.01l14.36-12.76c7.91-7.03,15.87-13.41,24.18-19.31l11.27-8-5.85-6.03h0Z"/>
        </g>
        <path class="cls-3" d="M316.65,197.27l-4.91-12.8-10.28,10.95c-.31.33-1.09.79-1.3.93-.32.21-.78-1.78-.5-2.18,2.66-3.81,7.4-9.22,10.63-12.25-.59-1.83-1.32-3.34-.87-4.76,4.64,7.61,7.19,16.43,10.02,24.93,5.68-5.77,10.98-10.56,17.03-15.43l-.92-5.5,8.33-7.87,4.8-4.22c2.55-2.24,4.23-3.29,7.13-1.86l5.73,2.83c-1.38,2.18-3.11,4.5-4.92,6.2l-9.14,8.58-21.27,19.35c-5.6,5.09-11.33,9.92-17.27,14.19-1.1-4.44-1.84-6.97-3.2-10.86l10.92-10.23Z"/>
        <path class="cls-3" d="M308.69,250.84l-22.37.65-10.79,1.38c-3.54.45-6.73,1.96-10.53.75,10.62-8.92,20.71-16.67,31.47-23.64,5.09,6.03,8.65,12.2,12.22,20.87Z"/>
        <g>
          <path class="cls-4" d="M335.86,198.82c2.76-3.46,5.47-5.87,8.33-8.4l5.96-5.31c.21-.19.5-.44.85-.75,3.86-3.35,15.6-13.56,13.89-17.98l-.09-.24-1.76,3.07c-.08.15-.25.22-.5.22-.82,0-2.07-.81-2.27-1.47-.47-1.52-1.17-3.99-1.76-6.04l-.46-1.6c.73-2.91,2.81-5.06,4.57-6.12l1.79,4.62-.11-.97c-.94-8.18-4.35-14.2-7.88-19.48l-.1-.16-2.08,3.18.08.07c2.8,2.58,4.26,5.39,4.47,8.56.21,3.2-1.8,6.42-3.87,7.72l1.03-4.8-7.06,8.38c-1.34-2.29-.21-5.74.99-9.38.85-2.6,1.73-5.28,1.88-7.88v-.16s-.15.03-.15.03c-2.91.48-3.49,3.32-3.86,6.44l-1.27,10.55,1.44,4.74c-3.85-3.38-4.11-9.19-.77-17.29l.22-.53-.42.39c-1.29,1.2-2.76,2.61-3.88,3.92-2.94,3.44-4.87,5.38-6.74,7.26-1.72,1.73-3.34,3.35-5.62,6.01l-.05.06.03.07c.55,1.52,1.18,2.77,1.8,3.98,1.3,2.58,2.44,4.82,2.17,8.55l-6.77-15.59c1.54-.07,2.32-.19,3.06-.91l7.35-7.14,11.79-11.86-1.18-2.11c-.21-.37-.2-.53-.17-.6.05-.09.23-.13.53-.13.23,0,.51.02.82.05.41.03.87.07,1.35.07,1.4,0,3.37-.28,4.3-2.73l.02-.07-.04-.06c-1.44-1.81-3-2.73-4.63-2.73s-3.41.92-5.3,2.82l-29.26,29.35c-.39.39-.75.88-1.09,1.34-.74,1.01-1.45,1.97-2.45,1.97-.17,0-.34-.03-.52-.08,3.04-4.52,6.34-7.88,9.84-11.44,1.19-1.21,2.39-2.42,3.58-3.69l5.55-5.91,9-9.11,9.6-8.55c3.58,1.28,9.67,7.74,11.5,13.27l1.39,4.23c2.73,3.56,4.9,17.35,3.92,21.84-1.54,3.54-4.11,5.64-6.59,7.67-1.07.88-2.09,1.71-3.03,2.65l-8.07,8.08c-4.45,4.45-9,7.5-13.27,10.1Z"/>
          <path class="cls-4" d="M350.04,131.13c3.56,1.33,9.55,7.7,11.35,13.17l1.39,4.23v.04s.04.03.04.03c2.63,3.42,4.82,17.34,3.9,21.65-1.53,3.53-4.09,5.62-6.57,7.65-1.03.84-2.09,1.71-3.04,2.65l-8.07,8.08c-4.23,4.23-8.54,7.19-12.63,9.71,2.6-3.15,5.16-5.43,7.85-7.82l.82-.73,5.15-4.59c.21-.19.5-.44.85-.75,6.72-5.85,15.48-14.09,13.92-18.12l-.19-.49-.26.45-1.63,2.84c-.06.11-.19.16-.39.16-.76,0-1.97-.77-2.15-1.38-.46-1.51-1.17-3.99-1.74-5.98l-.46-1.6c.71-2.83,2.67-4.9,4.37-5.96l1.39,3.58.7,1.82-.22-1.93c-.94-8.2-4.36-14.24-7.9-19.54l-.21-.31-.21.32-1.92,2.93-.12.18.16.14c2.78,2.56,4.23,5.34,4.43,8.48.2,3.03-1.61,6.07-3.56,7.44l.86-4.01.21-.98-.65.77-6.62,7.86c-1.17-2.24-.07-5.59,1.08-9.12.85-2.6,1.74-5.3,1.89-7.91l.02-.31-.31.05c-3,.5-3.59,3.38-3.97,6.55l-1.27,10.55v.05s0,.05,0,.05l1.3,4.25c-3.48-3.38-3.61-9.04-.4-16.84l.44-1.06-.84.78c-1.29,1.21-2.77,2.62-3.89,3.93-2.94,3.44-4.87,5.38-6.74,7.25-1.72,1.73-3.35,3.36-5.62,6.02l-.09.11.05.14c.55,1.52,1.19,2.78,1.8,3.99,1.23,2.44,2.31,4.57,2.18,7.96l-6.49-14.94c1.43-.07,2.22-.22,2.96-.94l7.35-7.15,11.72-11.79.13-.13-.09-.16-1.14-2.03c-.21-.37-.17-.47-.17-.47,0,0,.05-.07.42-.07.22,0,.5.02.81.05.41.03.87.07,1.36.07,2.25,0,3.7-.92,4.41-2.81l.05-.13-.09-.11c-1.46-1.84-3.05-2.78-4.73-2.78s-3.47.94-5.39,2.86l-29.26,29.35c-.4.4-.76.89-1.1,1.36-.72.99-1.41,1.92-2.35,1.92-.1,0-.21-.01-.32-.03,3-4.44,6.27-7.76,9.73-11.27,1.17-1.19,2.39-2.42,3.58-3.7l5.54-5.91,8.99-9.1,9.55-8.5M349.99,130.84l-9.66,8.6-9,9.11-5.55,5.91c-4.66,4.97-9.4,9.1-13.52,15.28.26.1.49.14.72.14,1.56,0,2.4-2.12,3.63-3.35l29.26-29.35c1.68-1.68,3.44-2.79,5.22-2.79,1.5,0,3.03.79,4.53,2.68-.85,2.25-2.63,2.65-4.18,2.65-.85,0-1.64-.12-2.17-.12-.63,0-.89.17-.48.92l1.14,2.03-11.72,11.79-7.35,7.14c-.72.7-1.49.82-3.16.88l7.04,16.2c.6-5.87-2.15-8.16-3.93-13.07,4.75-5.56,6.72-6.67,12.36-13.27,1.12-1.32,2.63-2.75,3.87-3.91-2.59,6.28-4.06,13.55,1.12,17.71l-1.56-5.1,1.27-10.55c.37-3.11.92-5.86,3.76-6.33-.36,6.4-5.29,13.56-2.76,17.48l6.85-8.13-.98,4.59c2.03-1.13,4.41-4.44,4.17-7.99-.26-3.94-2.38-6.68-4.51-8.65l1.92-2.93c3.77,5.64,6.96,11.55,7.86,19.42l-1.49-3.85c-1.73,1-3.99,3.2-4.75,6.33.63,2.2,1.62,5.69,2.22,7.65.23.73,1.55,1.56,2.39,1.56.27,0,.49-.09.6-.29l1.63-2.84c1.83,4.74-12.24,16.39-14.71,18.59l-5.15,4.59c-3.29,2.93-6.4,5.58-9.59,9.69,4.88-2.94,9.46-6.05,13.88-10.48l8.07-8.08c3.16-3.16,7.44-5.28,9.65-10.38,1-4.63-1.31-18.49-3.93-21.9l-1.39-4.23c-1.82-5.53-7.96-12.11-11.64-13.38h0Z"/>
        </g>
        <path class="cls-3" d="M242.87,262.73c2.26-5.21,5.69-7.52,8.74-11.06l16.25-18.89c1.43-1.66,14.72-19.13,15.27-15.57-4.56,6.68-9.42,11.73-14.21,17.09l-7.81,8.74c-6.07,6.79-11.67,13.63-18.24,19.7Z"/>
        <g>
          <path class="cls-7" d="M238.7,224.31c4-6.31,7.6-12.74,8.54-21.15.97-8.71-.8-16.67-4.74-21.28-2.63-3.08-5.84-3.51-8.97-3.85,1.1-.73,2.58-1.15,4.13-1.15s2.91.38,4.02,1.07c5.65,3.53,7.11,12.33,7.48,17.26.9,12-2.81,22.29-10.45,29.1Z"/>
          <path class="cls-4" d="M237.65,177h0c1.46,0,2.86.37,3.95,1.06,5.6,3.5,7.05,12.26,7.42,17.16.87,11.59-2.57,21.58-9.72,28.36,3.81-6.07,7.15-12.32,8.05-20.41.98-8.75-.81-16.74-4.77-21.37-2.56-2.99-5.65-3.51-8.69-3.85,1.04-.6,2.37-.94,3.76-.94M237.65,176.75c-1.65,0-3.29.47-4.47,1.37,3.38.36,6.58.75,9.22,3.84,4.19,4.9,5.6,13.22,4.72,21.18-.98,8.79-4.92,15.48-8.98,21.82,7.37-6.19,12.14-16.41,11.14-29.76-.54-7.23-2.71-14.34-7.54-17.35-1.18-.74-2.64-1.09-4.08-1.09h0Z"/>
        </g>
        <g>
          <path class="cls-7" d="M215.48,215.18c-1.44,0-3.02-2.07-3.32-4.35-.62-4.68.17-8.65,2.26-11.48,1.08-1.46,3.12-3.03,5.02-3.03.9,0,1.69.35,2.34,1.04,3.29,3.5,1.81,10.61-.66,14.06-.06-1.4-.34-5.93-1.72-7.02-.56-.45-1.11-.67-1.63-.67-1.91,0-2.75,2.87-2.96,3.76-.5,2.07.6,4.82,1.68,7.26-.3.3-.64.45-1.02.45Z"/>
          <path class="cls-4" d="M219.45,196.44c.87,0,1.63.34,2.25,1,3.16,3.35,1.85,10.08-.46,13.59-.09-1.71-.44-5.7-1.75-6.74-.58-.46-1.16-.7-1.71-.7-1.35,0-2.5,1.44-3.08,3.85-.5,2.08.57,4.82,1.65,7.26-.26.24-.55.36-.87.36-1.35,0-2.91-2.06-3.19-4.24-.61-4.65.16-8.59,2.24-11.39,1.07-1.44,3.06-2.98,4.92-2.98M219.45,196.19c-1.92,0-3.97,1.53-5.12,3.08-2.22,3-2.87,7.16-2.29,11.57.31,2.38,1.98,4.46,3.44,4.46.42,0,.82-.17,1.17-.55-1.14-2.57-2.19-5.25-1.7-7.25.45-1.85,1.41-3.66,2.84-3.66.47,0,.99.19,1.55.65,1.23.98,1.63,5.06,1.68,7.29,2.65-3.4,4.29-10.86.86-14.5-.72-.77-1.56-1.08-2.43-1.08h0Z"/>
        </g>
        <g>
          <path class="cls-7" d="M232.58,215.17c.23-1.19.47-2.33.71-3.45.81-3.78,1.57-7.34,1.31-11.35-.48-7.51-3.96-12.55-8.67-12.55-.54,0-1.1.07-1.66.21-1.61.39-3.17.96-4.82,1.56-.63.23-1.27.46-1.94.69,2.92-3.34,6.41-5.33,9.42-5.33s5.7,2.11,7.43,6.11c3.05,7.05,2.24,17.49-1.79,24.11Z"/>
          <path class="cls-4" d="M226.94,185.07c3.08,0,5.61,2.09,7.32,6.04,2.94,6.79,2.28,16.75-1.41,23.36.18-.93.38-1.84.57-2.73.81-3.79,1.57-7.36,1.32-11.39-.48-7.58-4.02-12.67-8.8-12.67-.55,0-1.12.07-1.69.21-1.62.4-3.18.96-4.83,1.57-.49.18-.98.36-1.48.53,2.82-3.1,6.14-4.92,9-4.92M226.94,184.82c-3.46,0-7.11,2.49-9.81,5.72,2.54-.86,4.81-1.82,7.17-2.4.56-.14,1.1-.2,1.63-.2,4.64,0,8.08,5.09,8.55,12.44.34,5.38-1.15,9.92-2.14,15.41,4.18-6.36,5.41-17.22,2.15-24.77-1.93-4.46-4.67-6.19-7.54-6.19h0Z"/>
        </g>
      </g>
      <g>
        <path class="cls-3" d="M218.08,464.44l9.36-8.51c1.19-1.08,3.06-1.69,4.96-1.85-4.8,7.51-7.07,22.66-4.85,31.2,1.69,6.52,6.91,8.08,11.11,7.2,9.67-2.03,17.39-9.88,22.24-22.93,5.16,7.76.16,28.63-2.95,37.44-9.01,25.56-27.15,40.1-46.54,43.27-16.65,2.72-33.18-4.22-47.02-17.44l-4.45-4.25c-10.02-9.58-20.7-29.82-26.56-45.22-1.55-4.07-3.3-7.92-4.45-12.36-4.11-15.89-5.01-22.53-7.06-39.57-.98-8.17-1.39-15.68-.79-23.74l1.08-14.45.79-8.62c.52-5.71,3.72-21.68,5.5-27.07l3.39-10.26c.54-1.63,1.93-3.24,3.28-4.25,2.32-14.15,5.69-27.9,10.3-41.08,1.62-4.64,2.03-10.03,2.84-15.02,1.33-8.24,1.44-16.26.56-24.59-.36-3.47-.22-6.4-1.56-9.77l-5.19-13c4.82.16,11.53,16.58,13.12,21.52,4.67,14.49,5.21,32.99,2.98,49.05-1.14,8.21-3.55,17.57-5.92,25.23l-2.81,9.1c3.42-1.44,6.04-4.25,9.58-4.39,3.17-.13,7.03.03,9.9,1.63,8.32,4.65,17.29,6.79,25.37.04l3.53-5.69,3.81-6.14c.4,3.17-.05,4.95-1.07,7.18-7.4,16.12-19.31,19.68-31.7,19.69-9.54,0-20.52-1.14-26.52,11.39-4.4,9.18-4.34,27.04-5.81,22.37-.19-.61-.52-1.93-.62-2.81-1.75-14.73-.87-28.3-.36-43.71-3.02,14.31-2.71,30.11-.35,44.71,1.01,6.23,4.03,21.72,6.17,26.62l3.19,7.3,3.6,9c2.39,5.97,6.93,11.93,10.82,16.69l6.34,7.75c1.91,2.33,3.84,4.03,6.01,5.89,9.41,8.04,19.39,12.48,30.53,11.16,5.75-.68,11.2-4.12,16.23-8.7ZM180.18,498.24c-1-.93-2.31-4.25-2.91-5.67,7.36-4.79,15.01-4.15,22.73-1.88,3.95,1.67,7.7,3.66,12.03,3.15-13.36-6.57-24.21-11.43-38-1.92,4.47,4.77,3.78,9.11,7.57,10.73,5.72,2.43,4.64,6.43,9.88,10.32l-3.88-7.86-7.42-6.88ZM250.69,502.08c-1.42-3.71-4.85-3.14-6.98-1.17-1.26,1.17-2.31,3.35-2.48,5.17-.14,1.47.57,4.73,1.46,5.49,1.96,1.68,4.85,1.4,6.29-.71s3.08-5.2,1.71-8.78ZM236.6,530.19c-5.13-.17-8.72.35-12.4-1.45-3.31-1.62-5.34-6.55-4.33-11.21.78-3.58,2.31-6.01,4.07-8.37l4.03-5.4c-3.97,2.77-7.35,6.68-9.43,12.13-1.77,4.65-1.19,9.83,1.92,12.92,4.83,4.79,11.35,4.9,16.13,1.38ZM244.01,523.42c-3.92-.9-8.81-2.24-10.37-8.07-1.23-4.59,2.15-8.19,3.71-11.69-2.09,1.43-3.99,4.73-4.98,8.34-.69,2.53.21,7.1,1.75,8.64,3.02,3.02,6.75,3.6,9.89,2.77Z"/>
        <g>
          <path class="cls-7" d="M191.12,512.56c-2.06-1.63-3.04-3.26-3.99-4.83-1.19-1.97-2.32-3.84-5.49-5.19-1.98-.84-2.72-2.46-3.65-4.52-.82-1.82-1.76-3.88-3.78-6.07,5.13-3.51,10.16-5.22,15.38-5.22,7.01,0,13.57,2.91,21.99,7.04-.31.02-.61.04-.92.04-3.2,0-6.07-1.25-9.11-2.57-.5-.22-1-.44-1.5-.65-4.04-1.19-7.38-1.74-10.53-1.74-4.54,0-8.57,1.19-12.32,3.63l-.09.06.27.64c.67,1.62,1.8,4.32,2.72,5.17l7.42,6.88,3.61,7.34Z"/>
          <path class="cls-4" d="M189.59,486.86c6.87,0,13.3,2.8,21.5,6.82-.15,0-.29,0-.44,0-3.18,0-6.03-1.25-9.06-2.56-.5-.22-1-.44-1.53-.66-4.03-1.19-7.38-1.74-10.55-1.74-4.56,0-8.61,1.19-12.39,3.65l-.18.11.08.19.23.55c.68,1.63,1.82,4.35,2.75,5.21l7.38,6.85,3.36,6.81c-1.74-1.5-2.64-2.98-3.51-4.42-1.21-1.99-2.34-3.87-5.55-5.24-1.94-.83-2.66-2.43-3.58-4.45-.78-1.71-1.73-3.83-3.71-6,5.07-3.44,10.04-5.12,15.19-5.12M189.59,486.61c-4.95,0-10.02,1.5-15.57,5.33,4.47,4.77,3.78,9.11,7.57,10.73,5.72,2.43,4.64,6.43,9.88,10.32l-3.88-7.86-7.42-6.88c-1-.93-2.31-4.25-2.91-5.67,4.01-2.61,8.11-3.61,12.25-3.61,3.46,0,6.96.7,10.48,1.73,3.52,1.49,6.9,3.23,10.66,3.23.45,0,.91-.03,1.37-.08-7.99-3.93-15.08-7.24-22.44-7.24h0Z"/>
        </g>
        <g>
          <path class="cls-7" d="M245.58,512.53c-1.01,0-2.01-.38-2.81-1.06-.82-.7-1.56-3.86-1.42-5.39.17-1.8,1.19-3.94,2.44-5.09,1.04-.96,2.31-1.52,3.46-1.52,1.05,0,2.48.46,3.31,2.64,1.36,3.55-.32,6.64-1.69,8.67-.76,1.11-1.96,1.75-3.29,1.75Z"/>
          <path class="cls-4" d="M247.26,499.6h0c1.01,0,2.39.44,3.2,2.56,1.34,3.49-.32,6.55-1.68,8.55-.73,1.07-1.9,1.69-3.19,1.69-.98,0-1.95-.37-2.73-1.03-.78-.67-1.51-3.81-1.37-5.28.17-1.77,1.17-3.88,2.4-5.01,1.02-.94,2.25-1.49,3.38-1.49M247.26,499.35c-1.24,0-2.54.62-3.55,1.55-1.26,1.17-2.31,3.35-2.48,5.17-.14,1.47.57,4.73,1.46,5.49.85.73,1.88,1.09,2.89,1.09,1.31,0,2.58-.61,3.4-1.8,1.42-2.08,3.08-5.2,1.71-8.78-.75-1.95-2.05-2.72-3.43-2.72h0Z"/>
        </g>
        <g>
          <path class="cls-7" d="M229.32,532.51c-3.23,0-6.26-1.31-8.77-3.8-2.98-2.96-3.72-7.97-1.89-12.78,1.8-4.74,4.74-8.64,8.73-11.6l-3.55,4.75c-1.92,2.57-3.34,4.98-4.09,8.42-1,4.58.98,9.67,4.4,11.34,2.86,1.4,5.64,1.41,9.15,1.42.92,0,1.9,0,2.93.03-2.09,1.45-4.47,2.21-6.91,2.21Z"/>
          <path class="cls-4" d="M226.74,504.98l-3,4.03c-1.92,2.58-3.36,5-4.11,8.47-1.01,4.63,1,9.78,4.46,11.48,2.89,1.42,5.68,1.42,9.21,1.43.81,0,1.65,0,2.54.02-1.99,1.29-4.22,1.97-6.51,1.97-3.2,0-6.2-1.3-8.68-3.76-2.95-2.92-3.68-7.89-1.87-12.65,1.69-4.43,4.36-8.12,7.97-10.99M227.97,503.75c-3.97,2.77-7.35,6.68-9.43,12.13-1.77,4.65-1.19,9.83,1.92,12.92,2.63,2.61,5.77,3.83,8.85,3.83,2.57,0,5.1-.85,7.28-2.45-5.13-.17-8.72.35-12.4-1.45-3.31-1.62-5.34-6.55-4.33-11.21.78-3.58,2.31-6.01,4.07-8.37l4.03-5.4h0Z"/>
        </g>
        <g>
          <path class="cls-7" d="M241.39,523.64c-1.87,0-4.63-.53-7.18-3.08-1.48-1.48-2.4-6.02-1.72-8.52.94-3.43,2.68-6.48,4.53-7.98-.36.73-.78,1.46-1.22,2.23-1.58,2.76-3.22,5.61-2.29,9.09,1.46,5.45,5.66,7.02,9.94,8.04-.68.14-1.38.22-2.07.22Z"/>
          <path class="cls-4" d="M236.61,504.59c-.28.54-.59,1.08-.92,1.64-1.52,2.65-3.25,5.66-2.3,9.19,1.41,5.27,5.34,6.95,9.46,7.99-.49.07-.98.11-1.47.11-1.85,0-4.58-.53-7.09-3.04-1.46-1.46-2.36-5.93-1.68-8.4.85-3.1,2.36-5.89,4-7.48M237.35,503.66c-2.09,1.43-3.99,4.73-4.98,8.34-.69,2.53.21,7.1,1.75,8.64,2.21,2.21,4.81,3.12,7.27,3.12.9,0,1.78-.12,2.62-.34-3.92-.9-8.81-2.24-10.37-8.07-1.23-4.59,2.15-8.19,3.71-11.69h0Z"/>
        </g>
      </g>
    </g>
  </g>
</svg>