<?xml version="1.0" encoding="UTF-8"?>
<svg id="Layer_1" data-name="Layer 1" xmlns="http://www.w3.org/2000/svg" viewBox="0 0 500 700">
  <defs>
    <style type="text/css">@import url('https://fonts.googleapis.com/css2?family=Italianno&amp;family=Orbitron:wght@400..900&amp;display=swap');
</style>
    <style>
      .cls-1 {
        font-family: 'Italianno', Apple-Chancery, 'Apple Chancery';
        opacity: .5;
      }

      .cls-1, .cls-2 {
        font-size: 24px;
      }

      .cls-3 {
        fill: #fff;
      }

      .cls-2, .cls-4 {
        font-family: 'Orbitron', Orbitron-Bold, sans-serif;
        font-weight: 700;
        opacity: .3;
      }

      .cls-5 {
        fill: #e9e8dc;
      }

      .cls-4 {
        font-size: 21px;
      }

      .cls-6 {
        fill: #ddc069;
      }

      .cls-7 {
        letter-spacing: -.03em;
      }

      .cls-8 {
        letter-spacing: -.02em;
      }

      .cls-9 {
        letter-spacing: -.01em;
      }
      @keyframes blink {
        0%, 93%, 100% { transform: scaleY(1); }
        96.5% { transform: scaleY(0.05); }
      }
      .eye {
        animation: blink 4s infinite;
        transform-origin: center center;
        transform-box: fill-box;
      }
    </style>
  </defs>
  <g>
    <rect class="cls-5" width="500" height="700" rx="32" ry="32"/>
    <g>
      <rect class="cls-6" x="40" y="47.1" width="50" height="50" rx="8" ry="8"/>
      <g>
        <path class="cls-5" d="M52.41,70.1v2.75h2.81v3.21h-2.81v2.79h-3.21v-2.79h-2.73v-3.21h2.73v-2.75h3.21Z"/>
        <path class="cls-5" d="M73.69,65.52c1.68,0,3.04,1.36,3.04,3.04v12.09h-3.21v-11.93h-9.34v-3.21h9.51Z"/>
      </g>
    </g>
    <text class="cls-1" transform="translate(104.57 77.98)"><tspan x="0" y="0">F</tspan><tspan class="cls-9" x="16.83" y="0">r</tspan><tspan x="26.47" y="0">og </tspan></text>
    <text class="cls-4" transform="translate(297.18 667.89) scale(1.05 1)"><tspan x="0" y="0">H</tspan><tspan class="cls-7" x="17.87" y="0">o</tspan><tspan x="31.88" y="0">ld </tspan><tspan class="cls-7" x="59.58" y="0">yo</tspan><tspan x="87.44" y="0">ur p</tspan><tspan class="cls-8" x="133.54" y="0">e</tspan><tspan x="147.59" y="0">e</tspan></text>
    <text class="cls-2" transform="translate(296.64 643.34)"><tspan x="0" y="0">DRINK CARD</tspan></text>
  </g>
  <g>
    <path class="cls-6" d="M293.33,548.67c1.97-10.15,5.54-11.52,8.41-20.35-15.48,8.29-31.01,15.18-47.95,15.33-12.76.12-25.38-3.17-36.99-8.94l-13.25-6.59c2.94,8.06,8.76,13.76,8.89,23.13.09,6.31-4.38,9.85-9.01,10.18-3.77.27-7.09-.97-8.91-5.49l-4.84-11.96c-.68-1.67-1.95-3.36-3-3.86-9.32-4.44-16.45,26.95-29.91,22.79-2.17-.67-4.06-2.78-4.6-4.88-2.36-9.18,9.21-14.39,6.91-19.14-.32-.67-1.67-1.54-2.44-1.59-13.44-.89-20.19,11.12-29.67,11.08-2.15-.01-4.31-1.19-5.19-3.02-1.25-2.58-1.25-5.48-.06-8.11,1.61-3.6,4.56-5.83,7.81-7.16,6.22-2.54,12.47-4.18,18.9-5.95,2.5-.69,10.59-2.64,10.45-5.87-.03-.78-.74-2.08-1.41-2.7-12.44-11.49-23.08-24.98-31.16-41.53-6.82-13.97-11.52-28.96-13.03-45.22-1.54-16.63.16-36.74,11.08-47.8,1.3-1.32,2.44-2.74,3.53-4.36-5.85-39.41,3.08-80.32,19.36-114.08,2.98-6.17-1.03-14.35,4.23-31.63,4.61-15.14,12.97-15.34,9.09-25.21-1.74-4.42-3.42-8.62-4.91-13.22-5.42-16.74-.23-35.68,12.32-44.66,3.93-2.82,8.28-3.93,12.78-4.36,11.47-1.1,22.01,4.95,28.68,16.56.8,1.39,1.93,2.77,3.06,3.71,28.55-10.95,52.43-10.45,81.08.41,3.09-4.59,5.39-8.95,9.12-12.44,10.07-9.42,24.23-11.23,35.31-3.23,13.11,9.46,17.31,29.85,11.09,46.64-3.86,10.4-7.94,15.54-1.93,22.95,2.34,2.88,4.21,5.7,5.56,9.43,2.99,8.25,4.82,17.34,4.1,26.44-.28,3.48-.29,5.97,1.28,8.94,4.47,8.45,7.84,17.19,10.95,26.69,6.77,20.71,10.59,42.4,10.38,64.77-.06,6.9-.66,13.28-1.53,20.05-.27,2.1.16,3.83,1.61,5.17,14.47,13.44,15,39.27,11.37,59.4-5.69,31.55-22.4,58.01-42.98,76.96-.62.57-1.32,1.62-1.36,2.31-.22,3.8,7.92,5.5,10.38,6.13,7.17,1.83,14.09,3.5,20.8,6.77,3.62,1.76,6.68,5.14,6.91,10.12s-3.54,8.16-7.49,7.44c-8.7-1.58-14.91-11.25-27.68-11.36-.94,0-2.51.79-2.98,1.61s-.27,3.2.38,4.08l5.14,6.99c1.34,1.82,1.87,4.95,1.46,7.53-.29,1.83-1.79,4.34-3.72,5.13-3.96,1.62-8.28.25-11.37-3.24-3.73-4.21-6.85-8.84-10.17-13.62-2.05-2.95-4.57-5.89-7.99-5.85-2.05.02-3.87,2.62-4.7,4.75l-4.08,10.55c-2.18,5.65-6.62,7.4-11.28,6.1-4.79-1.33-8.12-6.11-6.84-12.69ZM200.91,182.41c0-13.42-8.73-24.31-19.49-24.31s-19.49,10.88-19.49,24.31,8.73,24.31,19.49,24.31,19.49-10.88,19.49-24.31ZM343.58,182.63c0-13.42-8.73-24.3-19.49-24.3s-19.49,10.88-19.49,24.3,8.73,24.3,19.49,24.3,19.49-10.88,19.49-24.3ZM301.35,230.24c11.46,5.43,21.06,13.26,29.44,23.99,3.22,4.12,6.98,7.5,11.9,8.09-.74-3.05-2.12-5.26-3.73-7.59-10.3-14.88-23.76-25.13-38.65-31.64-40.43-17.69-89.48-4.37-116.88,38.4,3.87,1.53,13.58-8.44,16.42-11.17,18.26-17.56,38.25-27.03,61.51-28.24,13.87-.72,26.92,1.97,39.99,8.17ZM338.37,420.99c0-58.97-38.34-106.78-85.64-106.78s-85.64,47.81-85.64,106.78,38.34,106.78,85.64,106.78,85.64-47.81,85.64-106.78Z"/>
    <ellipse class="cls-3" cx="252.73" cy="420.99" rx="85.64" ry="106.78"/>
    <path class="cls-3" d="M301.35,230.24c-13.08-6.19-26.13-8.89-39.99-8.17-23.26,1.21-43.24,10.68-61.51,28.24-2.84,2.73-12.54,12.7-16.42,11.17,27.4-42.76,76.44-56.08,116.88-38.4,14.9,6.52,28.35,16.76,38.65,31.64,1.61,2.33,2.99,4.54,3.73,7.59-4.92-.59-8.68-3.97-11.9-8.09-8.38-10.73-17.98-18.56-29.44-23.99Z"/>
    <g class="eye">
      <path class="cls-3" d="M200.91,182.41c0,13.42-8.73,24.31-19.49,24.31s-19.49-10.88-19.49-24.31,8.73-24.31,19.49-24.31,19.49,10.88,19.49,24.31ZM190.75,183.57c0-6.71-4.36-12.15-9.74-12.15s-9.74,5.44-9.74,12.15,4.36,12.15,9.74,12.15,9.74-5.44,9.74-12.15Z"/>
      <ellipse cx="181.01" cy="183.57" rx="9.74" ry="12.15"/>
    </g>
    <g class="eye">
      <path class="cls-3" d="M343.58,182.63c0,13.42-8.73,24.3-19.49,24.3s-19.49-10.88-19.49-24.3,8.73-24.3,19.49-24.3,19.49,10.88,19.49,24.3ZM334.24,183.79c0-6.71-4.36-12.14-9.74-12.14s-9.74,5.44-9.74,12.14,4.36,12.14,9.74,12.14,9.74-5.44,9.74-12.14Z"/>
      <ellipse cx="324.5" cy="183.79" rx="9.74" ry="12.14"/>
    </g>
  </g>
</svg>