<?xml version="1.0" encoding="UTF-8"?>
<svg id="Layer_1" data-name="Layer 1" xmlns="http://www.w3.org/2000/svg" viewBox="0 0 500 700">
  <defs>
    <style>
      @import url('https://fonts.googleapis.com/css2?family=Italianno&family=Orbitron:wght@400..900&display=swap');
      .cls-1 {
        font-family: 'Italianno', Apple-Chancery, 'Apple Chancery';
        opacity: .5;
      }

      .cls-1, .cls-2 {
        font-size: 24px;
      }

      .cls-3 {
        stroke: #000;
        stroke-miterlimit: 10;
        stroke-width: .25px;
      }

      .cls-3, .cls-4 {
        fill: #bc0102;
      }

      .cls-2, .cls-5 {
        font-family: 'Orbitron', Orbitron-Bold, sans-serif;
        font-weight: 700;
        opacity: .3;
      }

      .cls-6 {
        fill: #e9e8dc;
      }

      .cls-5 {
        font-size: 21px;
      }

      .cls-7 {
        letter-spacing: -.03em;
      }

      .cls-8 {
        letter-spacing: -.02em;
      }
    </style>
  </defs>
  <rect class="cls-6" width="500" height="700" rx="32" ry="32"/>
  <g>
    <path class="cls-3" d="M278.48,330.46c-4.16-6.44-12.68-7.25-19.32-4.9-10.27,3.64-18.16,9.88-26.45,17.72l-.79-12c-.89-13.51,5.07-25.95,12.36-36.99-9.42,3.41-14.49,15.77-15.49,25.23-.64,6.06-.7,18.77,4.13,23.62-7.13,6.51-14.72,12.46-23.92,17.57,1.03-10.07,2.05-19.19,4.2-28.47,1.97-8.52,5.61-16.16,8.72-24.25,2.93-6.25,5.61-12.37,7.26-19.11.75-3.07,1.95-5.8,4.58-7.44l.81-5.64.53,4.73c.68-1.92,1.21-5.18,2.65-6.69,1.79-1.89,6.17-1.29,7.65-.27.59,3.8-.56,7.77,3.18,9.9-3.95-14.48,3.84-14.59,4.38-24.02.33-5.79.12-11.22-.29-17.05-.57-8.02,3.15-15.71,10.08-18.98,4.1-1.94,8.64-1.25,11.57,2.09,2.66-4.42,6.56-7.36,11.91-7.02,1.07,3.24,1.56,6.46,1.85,9.88,1.62,18.86,10.18,27.04,4.23,40.04l-4.56,9.96c-4.37,9.54-8.94,18.66-15.37,27.01-8.27,1.63-20.08-12.9-24.51-19.17-.13-.18-10.45-14.25-8.4-6.73l2.48,9.08c4.21,4.14,26.5,24.63,31.77,18.65,9.25-10.49,15.19-23.01,20.29-36.15,1.34-3.46,2.04-7.26,2.53-10.87,8.55-8.1,22.92-17.65,16.52-31.66-5.13-10.27-12.79-19.03-23.7-24.74,6.89-4.27,13.71-7.63,20.9-10.96l16.7-7.74c1.74-.81,4.03-1.43,5.78-2.06,1.12-1.16-1.07-5.67-2.69-5.36-7.14,6.08-14.38,9.63-22.87,13.4-3.3,1.47-6.78,2.79-9.88,4.54l-10.39,5.88c-1.19.67-2.39.89-3.67-.07l12.41-9.13,6.15-2.74c1.94-.86-.52-5.11-2.28-4.92-2.36,1.81-20.61,20.04-22.64,15.78l23-24.38,22.22-23.37c3.11-3.27,6.52-6.12,9.95-9.05-.08-1.99-2.66-4.41-4.65-4.21-2.49,4.4-5.41,8.41-8.77,12.16l-13.9,15.52-7.85,8.55c-7.25,7.9-14.02,15.73-21.88,23.43,1.12-5.17,12.08-16.21,15.84-20.45-.68-1.4-3.21-2.97-4.85-2.5-3.48,5.52-6.37,11.52-11.15,16.39,2.98-7.55,6.79-13.99,10.94-20.47l13.8-21.61,5.54-8.23c.88-1.31-2.31-3.77-3.8-3.06-7.09,14.03-15,27.71-23.48,41.15l-9.65,15.28c.37-4.15,2.45-6.41,3.53-9.9-4.22-2.74-8.95-3.68-13.84-2.94-4.51-4.78-9.9-8.61-16.43-10.04-5.05-1.1-10.75-2.61-15.92-1.95-7.97,1.03-15.61,3.08-23.28,5.39-13.76,4.13-24.85,12.66-33.69,24.12-8.09,10.49-19.19,26.45-14.31,40.7,1.44,4.22,5.37,7.95,9.13,9.84,6.22,3.13,12.92,2.74,19.27,1.02l8.7-2.35c.69,4.9-15.51,10.83-18.95,11.5.24,3.19,1.6,5.87,3.82,7.77,3.49-3.93,6.62-7.51,11.29-9.78-2.77,12.89-3.26,23.1,1.83,34.66,2.33,5.3,8.25,7.14,13.18,4.38,7.52-4.21,15.26-15.91,25.11-20.87.13,9.73-7.03,24.99-11.87,33.58-5.77,10.22-9.79,20.75-11.66,32.45-14.5,7.03-17.01,22.45-17.27,37.19-.11,6.27,3.5,8.76,6.81,12.34,3.96,4.29,5.3,10.92,8.54,16.14-5.21.88-10.21,3.29-13.81,7.61.72,4.37,3.76,7.39,6.34,10.91-3.83-1.4-6.59-4.12-9.72-7.06-5.04,15.32,7.23,65.76,16.7,74.39,8.05,7.32,19.23,8.01,29.55,6.27l1.67,12.31c.58,4.29,3,14.14,9.26,11.84,7.75-2.84,19.8-9.68,23.37-18.14-5.97,3.42-20.09,13.56-24.41,4.45-5.89-12.41-5.74-27.55-4.37-41.4l3.16-32.08c.42-4.32.05-8.77-1.42-12.52-1.64-4.19-5.32-6.68-9.6-5.6-.63,1.81-.87,4.86-.7,6.37,1.75-.05,3.34-.03,4.03.61.85.77,1.51,2.97.9,3.74-4.02.97-8.08-.48-11.52-1.95-6.79-2.9-11.53-7.93-13.93-15.28l-6.42-19.69c15.51-6.01,20.28-22.82,30.94-34.22-.37,6.94-1.52,13.18,1.54,18.98-.54-13.5,4.42-29.41,12.05-39.44,3.44-4.53,12.4-11.65,17.44-8.71,3.39,1.97,4.68,6.11,5.71,9.67,2.74,9.49,1.36,18.62-.43,28.19-3.51,18.75-6.03,37.21-8.32,56.17-.75,6.2.14,34.55,4.6,41.14.16-2.07.16-3.95-.03-6.11-1.78-20.08-1.42-40.18,3.56-59.69l4.91-19.22c3.48-13.62,13.37-37.29,5.23-49.88ZM287.26,238.99l-7.42-1.09c1.43,2.33,4.9,3.55,7.42,1.09ZM267.96,241.99l-.85-.86-7.8,3.83c3.23,1.89,5.46-.26,8.65-2.96ZM271.72,300.04l2.45-4.75-.19-2.65,1.47-1.45-.24-3.77c1.36-1.01,2.6-2.41,2.61-4.17.12-12.09-.1-23.49-.95-35.5-.14-2.02-1.02-4.33-1.8-6.2-.26,15.12,2.85,28.98,1.08,43.18-1.51,1.23-3.15,3-2.74,5.43l-3.2-1.19,1.1,5.49c.32,1.62-2.22,3.76.41,5.57ZM282.62,260.87c5.74-.44,8.47-6.33,8.79-10.97-2.53,4.42-5.48,7.55-8.79,10.97ZM268.69,262.83c-5.38-2.75-9.28-5.62-13.51-9.46,1.72,3.64,4.32,6.42,7.28,8.9,1.94,1.1,4.12,1.98,6.22.56ZM312.39,328.83l-3.96,2.63-.15-2.36c-4.28,9.3-11.56,6.6-15.69,19.25l1.3.24c.29.05.61,1.15.67,1.53l6.24,42.39c1.31,8.88.77,17.62.05,27.13-4.2-12.9-9.97-25.75-10.72-39.38-.58-10.43,2.11-20.53-.92-31.13-4-13.98-4.34-5.99-5.74-21.68-.11-.65,1.96-.67,2.31-.1.89,1.45,2.17,3.45,3.09,4.77.84-4.78-5.17-5.66-3.1-11.71,6.11,7.16,7.2,5.09,15.84,3.83.28,5.8-14.38,3.51-13.98,13.66,7.83-9.72,12.21-4,16.07-15.09,2.08-5.97-3.13-5.15-1.73-9.83,7.19,6.32,3.82,13.89-.35,20.16,2.08-.97,3.49-3.08,4.18-5.57l2.26-8.11,1.09-14.19c.91,4.34,2.9,9.96,1.12,14.4l-4.85,12.13c2-3.42,5.13-7.07,6.26-11.28,1.56-5.82-.17-13.33-3.03-18.24-3.86-6.62-23.94-6.86-29.36,3.65,1.21,2.52,3.24,3.84,5.49,5.58l-2.57,2.25c-4.32,14.09.77,14.96-.2,20.95-.82,5.06,1.5,8.41,3.36,12.74,1.75,4.07,2.35,10.11,2.37,14.41-2.89,2.74-5.44,5.35-7.23,8.77-7.44,14.22-11.43,23.55-10.38,39.91,1-4.89,1.76-9.1,3.74-13.92,5.58,12.54,7.65,11.67,11.71,25.16s4.76,29.68,2.39,44.26l-3.07,18.9c-1.83,11.24-2.44,21.81-2.2,33.68l-6.06-5.98c-.63-.62-2.86-.13-3.15.64,10.94,14.06,20.24,28.35,27.29,45.72,7.47-16.99.44-29.86,1.14-46.08.43-9.96.75-19.47,2.14-29.21,1.5-10.44,3.91-20.53,3.46-31.05l-.65-15.37c-.55-12.97.35-25.32-1.16-38.21-.99-8.48-2.42-16.3-4.1-24.59l-5.03-24.8c-.98-4.83,1.22-8.61,5.04-10.51,3.03-1.51,5.11-3.86,7.65-5.98l5.59-4.69-4.12-4.31c.46,1.85.9,2.95,1.66,4.65ZM263.96,480.58c3.91-10.71,9.14-20.38,14.05-30.93-10.27,5.49-20.76,34.3-19.78,45.06,2.46-4.76,3.96-9.27,5.73-14.13Z"/>
    <g>
      <g>
        <path class="cls-3" d="M312.39,328.83c-.76-1.71-1.2-2.8-1.66-4.65l4.12,4.31-5.59,4.69c-2.53,2.13-4.62,4.48-7.65,5.98-3.83,1.91-6.02,5.68-5.04,10.51l5.03,24.8c1.68,8.29,3.11,16.11,4.1,24.59,1.51,12.89.62,25.24,1.16,38.21l.65,15.37c.44,10.51-1.97,20.61-3.46,31.05-1.4,9.74-1.72,19.25-2.14,29.21-.7,16.22,6.33,29.09-1.14,46.08-7.04-17.37-16.35-31.66-27.29-45.72.29-.76,2.52-1.26,3.15-.64l6.06,5.98c-.24-11.87.37-22.44,2.2-33.68l3.07-18.9c2.37-14.58,1.83-30.23-2.39-44.26s-6.13-12.62-11.71-25.16c-1.98,4.82-2.74,9.03-3.74,13.92-1.05-16.36,2.94-25.69,10.38-39.91,1.79-3.42,4.34-6.03,7.23-8.77-.02-4.3-.62-10.33-2.37-14.41-1.86-4.33-4.18-7.69-3.36-12.74.97-6-4.12-6.86.2-20.95l2.57-2.25c-2.25-1.74-4.27-3.06-5.49-5.58,5.41-10.51,25.5-10.27,29.36-3.65,2.87,4.92,4.59,12.42,3.03,18.24-1.13,4.21-4.26,7.86-6.26,11.28l4.85-12.13c1.78-4.44-.21-10.05-1.12-14.4l-1.09,14.19-2.26,8.11c-.69,2.49-2.1,4.6-4.18,5.57,4.17-6.27,7.53-13.84.35-20.16-1.4,4.68,3.81,3.86,1.73,9.83-3.86,11.09-8.25,5.37-16.07,15.09-.4-10.16,14.25-7.86,13.98-13.66-8.63,1.26-9.72,3.33-15.84-3.83-2.07,6.05,3.94,6.93,3.1,11.71-.92-1.32-2.2-3.31-3.09-4.77-.35-.57-2.42-.54-2.31.1,1.4,15.68,1.74,7.7,5.74,21.68,3.03,10.59.34,20.69.92,31.13.75,13.63,6.52,26.48,10.72,39.38.72-9.51,1.26-18.25-.05-27.13l-6.24-42.39c-.06-.38-.38-1.47-.67-1.53l-1.3-.24c4.13-12.65,11.41-9.95,15.69-19.25l.15,2.36,3.96-2.63ZM306.67,303.93c-3.16-4.32-16.98-3.71-21.87.84,8.24,6.63,23.54,1.46,21.87-.84Z"/>
        <path class="cls-3" d="M263.96,480.58c-1.78,4.86-3.27,9.37-5.73,14.13-.98-10.76,9.51-39.57,19.78-45.06-4.91,10.55-10.13,20.22-14.05,30.93Z"/>
        <path class="cls-3" d="M271.72,300.04c-2.63-1.82-.08-3.95-.41-5.57l-1.1-5.49,3.2,1.19c-.41-2.43,1.22-4.2,2.74-5.43,1.76-14.2-1.34-28.06-1.08-43.18.78,1.87,1.65,4.18,1.8,6.2.86,12.01,1.07,23.4.95,35.5-.02,1.77-1.26,3.17-2.61,4.17l.24,3.77-1.47,1.45.19,2.65-2.45,4.75Z"/>
        <path class="cls-3" d="M268.69,262.83c-2.1,1.42-4.28.55-6.22-.56-2.96-2.48-5.56-5.26-7.28-8.9,4.23,3.84,8.12,6.7,13.51,9.46Z"/>
        <path class="cls-3" d="M282.62,260.87c3.31-3.41,6.25-6.55,8.79-10.97-.32,4.64-3.05,10.52-8.79,10.97Z"/>
        <path class="cls-3" d="M267.96,241.99c-3.19,2.71-5.41,4.86-8.65,2.96l7.8-3.83.85.86Z"/>
        <path class="cls-3" d="M287.26,238.99c-2.52,2.46-5.99,1.24-7.42-1.09l7.42,1.09Z"/>
        <path class="cls-3" d="M202.28,361.22c-3.34-3.46-1.8-7.22.74-9.97l-.74,9.97Z"/>
        <path class="cls-6" d="M306.67,303.93c1.68,2.29-13.63,7.47-21.87.84,4.89-4.55,18.71-5.16,21.87-.84Z"/>
      </g>
      <g>
        <path class="cls-3" d="M278.48,330.46c8.14,12.58-1.76,36.26-5.23,49.88l-4.91,19.22c-4.98,19.51-5.34,39.61-3.56,59.69.19,2.16.2,4.04.03,6.11-4.46-6.59-5.35-34.94-4.6-41.14,2.29-18.96,4.81-37.42,8.32-56.17,1.79-9.57,3.17-18.7.43-28.19-1.03-3.56-2.32-7.69-5.71-9.67-5.05-2.94-14,4.19-17.44,8.71-7.63,10.03-12.59,25.94-12.05,39.44-3.06-5.8-1.9-12.05-1.54-18.98-10.66,11.4-15.44,28.21-30.94,34.22l6.42,19.69c2.39,7.35,7.13,12.38,13.93,15.28,3.44,1.47,7.5,2.92,11.52,1.95.6-.77-.06-2.97-.9-3.74-.69-.63-2.29-.66-4.03-.61-.17-1.5.07-4.55.7-6.37,4.28-1.08,7.96,1.41,9.6,5.6,1.47,3.75,1.85,8.2,1.42,12.52l-3.16,32.08c-1.36,13.85-1.52,28.99,4.37,41.4,4.32,9.11,18.44-1.03,24.41-4.45-3.56,8.46-15.62,15.29-23.37,18.14-6.27,2.3-8.68-7.55-9.26-11.84l-1.67-12.31c-10.32,1.74-21.5,1.05-29.55-6.27-9.48-8.62-21.74-59.06-16.7-74.39,3.13,2.94,5.89,5.67,9.72,7.06-2.58-3.52-5.63-6.54-6.34-10.91,3.6-4.32,8.6-6.73,13.81-7.61-3.24-5.22-4.58-11.85-8.54-16.14-3.3-3.58-6.92-6.07-6.81-12.34.26-14.74,2.77-30.17,17.27-37.19,1.87-11.7,5.89-22.23,11.66-32.45,4.84-8.59,12-23.85,11.87-33.58-9.85,4.96-17.59,16.67-25.11,20.87-4.93,2.76-10.85.92-13.18-4.38-5.1-11.57-4.6-21.78-1.83-34.66-4.67,2.26-7.8,5.85-11.29,9.78-2.22-1.9-3.57-4.58-3.82-7.77,3.44-.67,19.64-6.6,18.95-11.5l-8.7,2.35c-6.35,1.71-13.05,2.11-19.27-1.02-3.76-1.89-7.69-5.62-9.13-9.84-4.88-14.25,6.22-30.21,14.31-40.7,8.84-11.46,19.93-19.99,33.69-24.12,7.67-2.3,15.31-4.36,23.28-5.39,5.17-.67,10.87.85,15.92,1.95,6.53,1.42,11.92,5.26,16.43,10.04,4.88-.74,9.62.19,13.84,2.94-1.08,3.49-3.15,5.75-3.53,9.9l9.65-15.28c8.48-13.44,16.38-27.12,23.48-41.15,1.49-.71,4.68,1.76,3.8,3.06l-5.54,8.23-13.8,21.61c-4.14,6.49-7.95,12.93-10.94,20.47,4.78-4.87,7.67-10.86,11.15-16.39,1.64-.47,4.17,1.1,4.85,2.5-3.76,4.24-14.72,15.28-15.84,20.45,7.86-7.7,14.62-15.53,21.88-23.43l7.85-8.55,13.9-15.52c3.36-3.75,6.28-7.77,8.77-12.16,1.99-.2,4.56,2.22,4.65,4.21-3.43,2.93-6.84,5.79-9.95,9.05l-22.22,23.37-23,24.38c2.03,4.26,20.28-13.97,22.64-15.78,1.75-.19,4.21,4.06,2.28,4.92l-6.15,2.74-12.41,9.13c1.28.96,2.48.75,3.67.07l10.39-5.88c3.1-1.75,6.58-3.08,9.88-4.54,8.49-3.77,15.73-7.31,22.87-13.4,1.62-.31,3.81,4.2,2.69,5.36-1.75.62-4.04,1.25-5.78,2.06l-16.7,7.74c-7.19,3.33-14.01,6.69-20.9,10.96,10.92,5.71,18.57,14.47,23.7,24.74,6.4,14.02-7.97,23.56-16.52,31.66-.49,3.62-1.19,7.41-2.53,10.87-5.11,13.15-11.04,25.67-20.29,36.15-5.27,5.98-27.56-14.51-31.77-18.65l-2.48-9.08c-2.05-7.52,8.27,6.55,8.4,6.73,4.43,6.27,16.24,20.79,24.51,19.17,6.44-8.35,11-17.47,15.37-27.01l4.56-9.96c5.95-13-2.62-21.18-4.23-40.04-.29-3.42-.78-6.64-1.85-9.88-5.35-.34-9.25,2.6-11.91,7.02-2.92-3.34-7.46-4.03-11.57-2.09-6.93,3.27-10.65,10.95-10.08,18.98.41,5.83.62,11.25.29,17.05-.54,9.43-8.32,9.54-4.38,24.02-3.75-2.13-2.59-6.1-3.18-9.9-1.48-1.02-5.85-1.61-7.65.27-1.44,1.51-1.97,4.78-2.65,6.69l-.53-4.73-.81,5.64c-2.63,1.64-3.83,4.37-4.58,7.44-1.65,6.74-4.34,12.85-7.26,19.11-3.11,8.09-6.75,15.74-8.72,24.25-2.15,9.28-3.17,18.4-4.2,28.47,9.2-5.11,16.79-11.06,23.92-17.57-4.83-4.85-4.77-17.56-4.13-23.62,1-9.46,6.07-21.82,15.49-25.23-7.29,11.04-13.25,23.48-12.36,36.99l.79,12c8.29-7.84,16.18-14.08,26.45-17.72,6.64-2.35,15.15-1.54,19.32,4.9ZM264.08,198.32c.58-4.18,1.15-6.31,2.58-9.16l.12-2.54c.05-1.03-10.83-4.21-22.9,4.91-2.63,1.99-4.61,3.94-6.18,7.21,4.3,2.16,7.9,3.6,12.13,4.77,3.72-4.82,8.78-6.27,14.25-5.2ZM229.7,212.75c-2.92-.49-4.83-.81-6.96-1.01l-7.1-.66-6.95-.66-7.09-.64c-4.99-.45-9.89-.26-14.66.11l7.66.59,7.76.58,10.16.74,8.93.65c2.98.22,5.64.49,8.26.3ZM255.83,213.86l-11.64-.34-1.76,2.29,13.4-1.96ZM236.15,220.46c.38-1.33-18.24,5.32-17.33,6.56l17.33-6.56ZM218.53,267.04l17.76-28.14c-10.13,10.97-18.06,23.49-25.1,37.07,4.01-1.23,5.2-5.54,7.34-8.93ZM202.28,361.22l.74-9.97c-2.54,2.74-4.08,6.51-.74,9.97Z"/>
        <path class="cls-6" d="M264.08,198.32c-5.47-1.08-10.53.38-14.25,5.2-4.23-1.17-7.83-2.62-12.13-4.77,1.57-3.27,3.55-5.22,6.18-7.21,12.07-9.12,22.95-5.94,22.9-4.91l-.12,2.54c-1.43,2.84-2,4.98-2.58,9.16Z"/>
        <path class="cls-6" d="M218.53,267.04c-2.14,3.4-3.33,7.7-7.34,8.93,7.04-13.58,14.97-26.1,25.1-37.07l-17.76,28.14Z"/>
        <path class="cls-6" d="M229.7,212.75c-2.61.19-5.28-.08-8.26-.3l-8.93-.65-10.16-.74-7.76-.58-7.66-.59c4.77-.36,9.68-.56,14.66-.11l7.09.64,6.95.66,7.1.66c2.13.2,4.04.52,6.96,1.01Z"/>
        <path class="cls-6" d="M236.15,220.46l-17.33,6.56c-.91-1.24,17.7-7.89,17.33-6.56Z"/>
        <polygon class="cls-6" points="255.83 213.86 242.44 215.81 244.2 213.52 255.83 213.86"/>
      </g>
    </g>
  </g>
  <g>
    <rect class="cls-4" x="40" y="47.1" width="50" height="50" rx="8" ry="8"/>
    <g>
      <path class="cls-6" d="M56.7,68.58v3.14h3.22v3.67h-3.22v3.19h-3.67v-3.19h-3.12v-3.67h3.12v-3.14h3.67Z"/>
      <path class="cls-6" d="M73.04,63.38h3.82v17.28h-3.67v-11.69l-.05.05h.02l-.77.94h-4.87l5.52-6.58Z"/>
    </g>
  </g>
  <text class="cls-1" transform="translate(104.57 77.98)"><tspan x="0" y="0">Geisha </tspan></text>
  <text class="cls-5" transform="translate(297.18 667.89) scale(1.05 1)"><tspan x="0" y="0">H</tspan><tspan class="cls-7" x="17.87" y="0">o</tspan><tspan x="31.88" y="0">ld </tspan><tspan class="cls-7" x="59.58" y="0">yo</tspan><tspan x="87.44" y="0">ur p</tspan><tspan class="cls-8" x="133.54" y="0">e</tspan><tspan x="147.59" y="0">e</tspan></text>
  <text class="cls-2" transform="translate(296.64 643.34)"><tspan x="0" y="0">DRINK CARD</tspan></text>
</svg>