<?xml version="1.0" encoding="UTF-8"?>
<svg id="Layer_1" data-name="Layer 1" xmlns="http://www.w3.org/2000/svg" viewBox="0 0 500 700">
  <defs>
    <style>
      .cls-1 {
        fill: #5196d2;
      }

      .cls-2 {
        font-family: Apple-Chancery, 'Apple Chancery';
        opacity: .5;
      }

      .cls-2, .cls-3 {
        font-size: 24px;
      }

      .cls-4 {
        fill: #4d98d5;
      }

      .cls-5 {
        fill: #fff;
      }

      .cls-3, .cls-6 {
        font-family: Orbitron-Bold, Orbitron;
        font-weight: 700;
        opacity: .3;
      }

      .cls-7 {
        fill: #e9e8dc;
      }

      .cls-6 {
        font-size: 21px;
      }

      .cls-8 {
        letter-spacing: -.03em;
      }

      .cls-9 {
        letter-spacing: -.02em;
      }
    </style>
  </defs>
  <rect class="cls-7" width="500" height="700" rx="32" ry="32"/>
  <rect class="cls-4" x="40" y="47.1" width="50" height="50" rx="8" ry="8"/>
  <g>
    <path class="cls-7" d="M52.24,69.24v2.62h2.68v3.06h-2.68v2.66h-3.06v-2.66h-2.6v-3.06h2.6v-2.62h3.06Z"/>
    <path class="cls-7" d="M68.44,67.95v2.5h8.16c1.6,0,2.92,1.3,2.92,2.9v3.04c0,1.58-1.32,2.9-2.92,2.9h-8.3c-1.6,0-2.92-1.32-2.92-2.9v-1.12h3.06v.96h8.02v-2.7h-11.08v-8.64h14.14v3.06h-11.08Z"/>
  </g>
  <text class="cls-2" transform="translate(104.57 77.98)"><tspan x="0" y="0">Kabuki </tspan></text>
  <text class="cls-6" transform="translate(297.18 667.89) scale(1.05 1)"><tspan x="0" y="0">H</tspan><tspan class="cls-8" x="17.87" y="0">o</tspan><tspan x="31.88" y="0">ld </tspan><tspan class="cls-8" x="59.58" y="0">yo</tspan><tspan x="87.44" y="0">ur p</tspan><tspan class="cls-9" x="133.54" y="0">e</tspan><tspan x="147.59" y="0">e</tspan></text>
  <text class="cls-3" transform="translate(296.64 643.34)"><tspan x="0" y="0">DRINK CARD</tspan></text>
  <g>
    <path class="cls-5" d="M279.1,161.47c2.25,13.44,3.69,26.31,4.45,39.71.82,14.39-.57,29.17-4.28,42.84-3.4,12.52-9.99,25.96-19.94,32.38-10.97,7.08-21.68.73-28.91-9.91-9.55-14.06-13.54-34.06-14.4-51.85-.73-15.24,1.1-34.08,3.3-49.22,1.36-9.38,3.52-17.92,5.92-27.26-15.63,28.3-25.39,64.5-24.47,98.2.37,13.49,2.62,26.22,7.2,38.42,5.57,14.82,15.4,28.87,28.07,35.27,5.53,2.79,11.23,4.2,17.19,3.33,8.3-1.2,15.57-5.65,22.02-11.89,15.57-15.06,23.22-38.81,24.22-62.33.85-20.16-3.05-42.45-9.15-61.21-4.4-13.52-9.62-26.31-16.31-38.59,1.82,7.69,3.64,14.38,5.08,22.1ZM329.4,226.88c-5.32-12.5-11.35-24.33-18.66-35.5,6.67,19.04,11.6,37.42,11.15,57.98-.35,6.99-1.2,13.66-3.53,20.09-3.99,11.06-9.83,20.64-17.06,28.99-3.8,4.39-7.57,8.23-11.6,12.32-6.53,6.61-12.3,13.83-17.41,21.79-1.52-7.31-5.44-13.56-11.17-17.12,2.89,8.64,4.79,16.93,4.75,25.96-8.86,9.85-22.79,9.87-31.4-.09-.16-8.96,1.85-17.15,4.67-25.82-5.79,3.54-9.62,9.96-11.15,17.06-5.29-8.31-11.17-15.49-17.77-22.17-4.34-4.39-8.4-8.54-12.41-13.35-6.71-8.05-12.11-17.16-15.89-27.62-2.46-6.82-3.26-13.86-3.55-21.26-.17-20.3,4.63-37.94,11.17-56.74-6.77,10.3-12.36,21.17-17.42,32.62-5.8,13.13-10.94,28.52-11.65,43.41-.81,16.86,6.31,29.82,16.84,40.08,4.68,4.56,9.49,8.49,14.72,12.12l16.61,11.5c13.25,9.17,22.84,24.47,30.28,40.22l-2.38-11.44c8.5,6.79,18.68,6.5,27.12.56l-2.34,10.9c6.67-14.35,17.13-31.06,29.08-39.34l14.25-9.87c17.13-11.87,36.09-27.17,35.19-53.92-.47-14.07-5.13-28.87-10.45-41.37ZM228.3,379.46l1.38,3.28c1.3,3.08,3.66,5.2,6.73,5.31-4.86-3.64-4.31-14.45-2.54-20.8-14.91,2.88-33.46,3.3-46.67-6.42-7.74-5.7-13.01-14.92-13.97-25.75,5.82-9.46,20.02-2.81,26.9,3.36-3.68-8.9-10.5-14.33-18.12-16.92-5.7-1.93-10.95-4.98-15.96-8.57-8.08-5.79-11.81-14.4-15.57-24.43l-5.54-14.77c-4.05-10.79-9.94-20.57-17.32-29.12,3.82,10.36,7.14,19.87,9.71,30.33,6.01,24.41,8.67,49.7,7.7,75.12-.43,7.87-1.12,15.22-2.92,22.71-.55,2.28-1.37,4.39-2.2,6.52-1.99,5.16-6.01,8.02-10.9,7.62s-9.75-2.85-13.94-6.27l-4.96-4.05c3.39,12.01,12.3,30.63,23.85,30.67,7.82.03,14.71-5.58,18.53-13.79,4.04-8.68,6.22-18.05,7.06-28.09,9.44,14.45,26.62,21.4,41.1,22.39,9.91.48,19.16-2.01,27.63-8.32ZM321.51,381.88c7.48-3.58,13.93-8.78,19.23-16.49.76,10.25,3.08,19.75,7.29,28.59,3.81,8.01,10.68,13.18,18.25,13.39,3.39-.34,6.11-1.51,8.83-3.79,6.65-5.56,12.36-17.24,15.02-26.89-6.59,5.44-13.82,11.42-21.91,10.04-10.96-1.35-12.37-27.18-13.01-37.06-.86-23.12,1.36-46.08,6.26-68.5,2.76-12.64,6.55-24.22,11.22-36.54-9.14,10.45-15.36,23-20.14,36.4-2.54,7.11-6.89,19.08-11.02,24.61-3.53,4.73-7.87,8.25-12.72,10.84-3.23,1.73-6.27,3.75-9.7,4.78-8.1,2.44-15.18,8.1-19.1,17.37,6.45-6.05,21.08-13.21,27.05-3.57-.96,10.87-6.25,20.09-14.01,25.79-13.2,9.69-31.83,9.3-46.6,6.39,1.69,6.45,2.32,17.06-2.63,20.89,4.28-.22,6.96-4.11,8.05-8.76,15.31,11.62,33.8,10.1,49.64,2.52ZM209.34,418.16c1.3-1.39,2.82-2.39,4.13-3.35-3.44,5.87-4.22,11.89-2.22,18.04,4.81,14.81,17.65,20.07,30.25,19.88-6.98-3.3-11.83-9.52-15.52-17.14-1-2.06-1.48-4.28-1.96-6.64-1.57-7.74,1.95-16.14,8.47-18.4,3.48-1.21,6.91.03,10.33,1.78-4.12-9.25-11.9-14.64-20.48-14.79-5.66-.1-10.77,1.63-16.13,3.89-9.63,4.06-17.93,10.88-25.19,19.38l-5.11,5.99c-5.33,6.24-10.83,11.94-17,16.89-11.11,8.92-25.39,8.24-35.53-2.18-4.06-4.17-7.37-8.74-10.42-14.18-.31,5.68.25,10.89.88,16.36,1.31,11.44,3.8,24.61,10.99,32.7,12.54,14.09,31.41,15.77,44.75,1.83,16.75-17.51,20.57-39.48,39.78-60.04ZM331,478.48c13.07,13.36,30.81,11.92,43.43-.94,4.55-4.64,7.35-10.76,9.11-17.65,2.33-9.11,3.5-18.39,3.86-27.97l.19-5.03c-4.63,8.4-11.82,17.72-19.73,20.99-19.52,8.08-32.97-9.23-45.66-23.72l-3.63-4.15c-7.8-8.92-16.7-15.7-27-19.62-4.57-1.74-8.83-2.96-13.6-2.86-8.65.17-16.3,5.5-20.48,14.8,3.98-2.21,8.36-3.26,12.13-.97,5.43,3.28,7.93,10.37,6.72,17.34-1.43,9.35-9.61,20.73-17.53,23.94,2.58.34,5.1-.09,7.79-.57,12.05-2.14,22.52-10.8,23.61-26.12-.27-4.23-1.42-7.61-3.4-11.07,2,1.75,3.98,3.24,5.78,5.27,18.04,20.29,22.17,41.75,38.4,58.33ZM266.1,488.29c6.47-1.57,12.75.47,17.97,4.74,3.61,2.96,6.51,6.53,9.45,10.4s7.8,11.87,12.65,9.29c3.6-1.91,5.64-6.09,5.07-10.87-1.14-9.55-7.87-17.62-13.95-23.46-4.52-4.34-9.38-7.57-14.79-10.08-4.88-2.26-9.71-4.28-14.88-5.54-4.39-1.06-8.66.42-12.41,2.76-11.31,4.13-12.38-6.28-24.78-2.22-4.16,1.36-7.97,2.78-12.02,4.65-10.62,4.9-20,13.07-26.35,24.35-1.8,3.19-2.84,6.61-3.08,10.37-.34,5.13,2.65,9.96,7.02,10.53,7.61.99,14.35-24.14,32.9-25.42,10.12-.7,9.81,6.41,20.53,6.83,9.07.35,12.56-5.32,16.66-6.32ZM253.96,538.4c4.5,1.84,8.36,4.79,11.95,8.53,6.63,6.93,13.07,11.96,22.36,11.11,2.95-.83,5.73-1.68,8.39-3.46-4.22.97-7.85.04-10.97-3.3-2.41-2.73-3.93-6.36-5.15-10.19l-3.6-11.33c-1.25-3.94-3.06-7.36-5.2-10.77-6.38-10.16-17.33-14.99-27.64-12.05-12,3.43-18.33,14.23-22.28,27.44-2.48,8.31-4.59,18.08-12.83,20.35-1.7.47-3.43-.1-5.37-.07,6.73,3.78,11.53,4.71,18.71,1.64,4.72-2.02,8.45-5.72,12.22-9.54,4.8-4.88,12.99-11,19.41-8.37Z"/>
    <g>
      <g>
        <g>
          <path class="cls-1" d="M329.4,226.88c5.32,12.5,9.98,27.3,10.45,41.37.9,26.75-18.05,42.05-35.19,53.92l-14.25,9.87c-11.95,8.28-22.41,24.99-29.08,39.34l2.34-10.9c-8.45,5.94-18.62,6.23-27.12-.56l2.38,11.44c-7.44-15.75-17.03-31.04-30.28-40.22l-16.61-11.5c-5.24-3.63-10.04-7.56-14.72-12.12-10.53-10.26-17.65-23.21-16.84-40.08.71-14.89,5.85-30.29,11.65-43.41,5.06-11.46,10.65-22.33,17.42-32.62-6.54,18.8-11.34,36.44-11.17,56.74.29,7.4,1.09,14.45,3.55,21.26,3.77,10.46,9.18,19.57,15.89,27.62,4.01,4.81,8.08,8.96,12.41,13.35,6.6,6.68,12.48,13.86,17.77,22.17,1.53-7.1,5.37-13.52,11.15-17.06-2.81,8.67-4.82,16.86-4.67,25.82,8.61,9.97,22.55,9.94,31.4.09.04-9.04-1.86-17.32-4.75-25.96,5.73,3.56,9.64,9.81,11.17,17.12,5.11-7.96,10.88-15.18,17.41-21.79,4.04-4.09,7.8-7.93,11.6-12.32,7.24-8.36,13.07-17.94,17.06-28.99,2.32-6.44,3.18-13.1,3.53-20.09.45-20.56-4.47-38.94-11.15-57.98,7.31,11.17,13.34,23,18.66,35.5Z"/>
          <path class="cls-1" d="M279.1,161.47c-1.43-7.72-3.26-14.42-5.08-22.1,6.69,12.29,11.91,25.07,16.31,38.59,6.1,18.76,10,41.05,9.15,61.21-.99,23.51-8.65,47.27-24.22,62.33-6.46,6.24-13.72,10.69-22.02,11.89-5.97.86-11.66-.54-17.19-3.33-12.67-6.4-22.5-20.46-28.07-35.27-4.58-12.19-6.83-24.93-7.2-38.42-.92-33.7,8.83-69.9,24.47-98.2-2.4,9.34-4.55,17.88-5.92,27.26-2.2,15.14-4.03,33.98-3.3,49.22.86,17.78,4.85,37.78,14.4,51.85,7.22,10.64,17.94,16.98,28.91,9.91,9.95-6.42,16.53-19.86,19.94-32.38,3.71-13.66,5.1-28.44,4.28-42.84-.76-13.4-2.2-26.27-4.45-39.71Z"/>
        </g>
        <g>
          <path d="M321.51,381.88c-15.84,7.58-34.32,9.1-49.64-2.52-1.08,4.65-3.77,8.54-8.05,8.76,4.94-3.83,4.31-14.44,2.63-20.89,14.78,2.91,33.4,3.3,46.6-6.39,7.76-5.7,13.05-14.92,14.01-25.79-5.98-9.63-20.6-2.48-27.05,3.57,3.92-9.27,11-14.93,19.1-17.37,3.43-1.03,6.47-3.05,9.7-4.78,4.84-2.59,9.18-6.11,12.72-10.84,4.13-5.53,8.49-17.5,11.02-24.61,4.78-13.4,11-25.95,20.14-36.4-4.66,12.32-8.45,23.9-11.22,36.54-4.9,22.42-7.12,45.37-6.26,68.5.64,9.89,2.05,35.72,13.01,37.06,8.09,1.37,15.32-4.61,21.91-10.04-2.65,9.65-8.37,21.34-15.02,26.89-2.72,2.28-5.44,3.45-8.83,3.79-7.57-.21-14.44-5.38-18.25-13.39-4.21-8.84-6.53-18.33-7.29-28.59-5.31,7.7-11.75,12.9-19.23,16.49Z"/>
          <path d="M228.3,379.46c-8.46,6.3-17.72,8.8-27.63,8.32-14.48-1-31.66-7.94-41.1-22.39-.84,10.04-3.02,19.42-7.06,28.09-3.82,8.21-10.71,13.82-18.53,13.79-11.55-.04-20.46-18.66-23.85-30.67l4.96,4.05c4.19,3.42,8.87,5.85,13.94,6.27s8.91-2.46,10.9-7.62c.82-2.13,1.65-4.24,2.2-6.52,1.8-7.49,2.49-14.84,2.92-22.71.97-25.42-1.69-50.71-7.7-75.12-2.58-10.46-5.89-19.97-9.71-30.33,7.38,8.55,13.28,18.34,17.32,29.12l5.54,14.77c3.76,10.03,7.49,18.64,15.57,24.43,5.01,3.59,10.26,6.64,15.96,8.57,7.61,2.58,14.44,8.02,18.12,16.92-6.88-6.16-21.08-12.81-26.9-3.36.96,10.84,6.23,20.06,13.97,25.75,13.21,9.72,31.76,9.3,46.67,6.42-1.77,6.35-2.32,17.16,2.54,20.8-3.07-.11-5.43-2.23-6.73-5.31l-1.38-3.28Z"/>
        </g>
      </g>
      <g>
        <path d="M331,478.48c-16.23-16.58-20.36-38.04-38.4-58.33-1.8-2.02-3.78-3.52-5.78-5.27,1.98,3.46,3.13,6.84,3.4,11.07-1.08,15.32-11.56,23.98-23.61,26.12-2.7.48-5.21.9-7.79.57,7.92-3.2,16.1-14.59,17.53-23.94,1.22-6.98-1.29-14.06-6.72-17.34-3.77-2.28-8.16-1.23-12.13.97,4.18-9.3,11.82-14.63,20.48-14.8,4.77-.09,9.04,1.13,13.6,2.86,10.3,3.92,19.2,10.7,27,19.62l3.63,4.15c12.69,14.5,26.14,31.8,45.66,23.72,7.91-3.27,15.1-12.59,19.73-20.99l-.19,5.03c-.37,9.58-1.53,18.86-3.86,27.97-1.76,6.88-4.56,13.01-9.11,17.65-12.61,12.86-30.35,14.3-43.43.94Z"/>
        <path d="M209.34,418.16c-19.21,20.56-23.03,42.52-39.78,60.04-13.34,13.95-32.21,12.27-44.75-1.83-7.19-8.08-9.68-21.26-10.99-32.7-.63-5.47-1.19-10.67-.88-16.36,3.06,5.44,6.37,10.01,10.42,14.18,10.14,10.42,24.43,11.1,35.53,2.18,6.17-4.95,11.67-10.65,17-16.89l5.11-5.99c7.25-8.5,15.56-15.32,25.19-19.38,5.36-2.26,10.47-3.99,16.13-3.89,8.58.15,16.36,5.54,20.48,14.79-3.42-1.75-6.85-2.99-10.33-1.78-6.52,2.27-10.05,10.66-8.47,18.4.48,2.36.97,4.59,1.96,6.64,3.69,7.62,8.55,13.84,15.52,17.14-12.6.19-25.43-5.06-30.25-19.88-2-6.15-1.22-12.17,2.22-18.04-1.31.96-2.83,1.96-4.13,3.35Z"/>
      </g>
      <g>
        <path class="cls-4" d="M266.1,488.29c-4.11,1-7.59,6.67-16.66,6.32-10.72-.42-10.41-7.52-20.53-6.83-18.55,1.28-25.29,26.41-32.9,25.42-4.37-.57-7.36-5.4-7.02-10.53.25-3.75,1.29-7.18,3.08-10.37,6.35-11.28,15.73-19.45,26.35-24.35,4.05-1.87,7.85-3.28,12.02-4.65,12.4-4.06,13.47,6.35,24.78,2.22,3.75-2.33,8.02-3.82,12.41-2.76,5.18,1.25,10,3.27,14.88,5.54,5.41,2.51,10.27,5.74,14.79,10.08,6.08,5.84,12.81,13.91,13.95,23.46.57,4.78-1.47,8.96-5.07,10.87-4.86,2.58-9.59-5.26-12.65-9.29s-5.84-7.44-9.45-10.4c-5.23-4.27-11.51-6.32-17.97-4.74Z"/>
        <path class="cls-4" d="M253.96,538.4c-6.43-2.63-14.62,3.5-19.41,8.37-3.77,3.83-7.49,7.52-12.22,9.54-7.18,3.07-11.97,2.14-18.71-1.64,1.94-.04,3.67.53,5.37.07,8.24-2.27,10.35-12.04,12.83-20.35,3.95-13.21,10.28-24.01,22.28-27.44,10.31-2.95,21.25,1.89,27.64,12.05,2.14,3.41,3.95,6.83,5.2,10.77l3.6,11.33c1.22,3.83,2.74,7.46,5.15,10.19,3.13,3.34,6.75,4.28,10.97,3.3-2.66,1.78-5.44,2.63-8.39,3.46-9.28.85-15.72-4.19-22.36-11.11-3.59-3.75-7.45-6.7-11.95-8.53Z"/>
      </g>
    </g>
  </g>
</svg>