<?xml version="1.0" encoding="UTF-8"?>
<svg id="Layer_1" data-name="Layer 1" xmlns="http://www.w3.org/2000/svg" viewBox="0 0 276.65 173.08">
  <defs>
    <style>
      .cls-1 {
        fill: #0068ff;
      }

      .cls-2 {
        fill: #fff;
      }

      .cls-3 {
        fill: #000eff;
      }
    </style>
  </defs>
  <g id="lLKwO5">
    <g>
      <path class="cls-2" d="M133.09,144.6c-4.69.18-9.18.1-13.79-.13l-3.95-.2-2.81-.16-2.86-.2c-3.46-.25-6.8-.67-10.19-1.21-3.56-.56-6.91-1.36-10.05-2.89-3.53-1.72-4.73-5.3-2.93-8.64.96-1.78,2.51-3.27,4.02-4.8,4.13-4.16,6.85-9.06,7.65-14.68.31-2.14.55-4.44-.85-6.28-.93-1.22-3.1-.82-4.12.22-1.15,1.17-2.01,2.44-2.91,3.79-4.35,6.55-13.1,10.07-21.18,10.75-.54.05-1.6-.4-1.4-.9,3.18-7.98,4.89-17.94,4.35-26.34-.54-8.44-2.46-16.56-6.53-24.21-.1-.19-.08-.75-.01-.94.44-1.24,12.96,3.66,14.43,4.23,3.78,1.47,7.38,2.81,11.2,4.03,2.17.69,4.09.74,6.01-.46,1.59-1,2.48-2.89,2.39-4.96-.27-6.22-6.45-12.32-10.97-16.77-3.56-3.51-5.92-7.98-5.62-12.75.24-3.85,2.43-6.91,6.11-8.72,3.75-1.84,7.82-2.92,12.09-3.58l14.43-2.24,5.94-.77,10.42-1.03,3.39-.22,4.23-.25,5.8-.2c2.35-.08,4.66-.08,7.02,0l6.05.21,3.42.24,3.91.28c7.6.54,14.85,1.94,22.13,3.95,9.21,2.54,17.66,6.18,25.51,11.26,6.05,3.91,11.68,8.08,16.89,12.85l5.41,4.94,13.86,13.57c2.52,2.47,7.32,6.11,5.48,9.21-1.39,2.34-5.73,2.2-8.36,3.35l4.86.15c.76.02,1.85.48,2.17.98,1.16,1.8-.98,6.25-2.51,8.25-5.02,6.56-10.46,12.64-16.28,18.64-11.13,11.46-23.17,20.23-39.04,25.34-6.07,9.28-19.97,14.17-30.93,15.9-4.91.77-5.43,1.01-10.63.7-.53-.03-1.28-.59-1.43-.98-1.3-3.31,9.53-8.69,12.29-10.18-1.05-.04-2,.01-3.04.09l-3.11.24-3.66.29-3.1.25-3.09.24-5.07.25-4.38.22-6.65.26Z"/>
      <g>
        <path class="cls-3" d="M133.09,144.6l6.65-.26,4.38-.22,5.07-.25,3.09-.24,3.1-.25,3.66-.29,3.11-.24c1.04-.08,1.99-.14,3.04-.09-2.76,1.48-13.59,6.87-12.29,10.18.15.39.91.95,1.43.98,5.2.31,5.72.07,10.63-.7,10.97-1.73,24.86-6.62,30.93-15.9,15.87-5.1,27.91-13.87,39.04-25.34,5.82-5.99,11.26-12.08,16.28-18.64,1.53-2,3.67-6.45,2.51-8.25-.32-.5-1.42-.96-2.17-.98l-4.86-.15c2.63-1.15,6.97-1.01,8.36-3.35,1.84-3.11-2.96-6.74-5.48-9.21l-13.86-13.57-5.41-4.94c-5.22-4.77-10.84-8.94-16.89-12.85-7.86-5.08-16.3-8.71-25.51-11.26-7.29-2.01-14.53-3.41-22.13-3.95l-3.91-.28-3.42-.24-6.05-.21c-2.35-.08-4.67-.08-7.02,0l-5.8.2-4.23.25-3.39.22-10.42,1.03-5.94.77-14.43,2.24c-4.27.66-8.33,1.74-12.09,3.58-3.68,1.8-5.87,4.86-6.11,8.72-.3,4.77,2.06,9.24,5.62,12.75,4.52,4.45,10.7,10.55,10.97,16.77.09,2.07-.79,3.96-2.39,4.96-1.92,1.2-3.85,1.15-6.01.46-3.83-1.22-7.42-2.56-11.2-4.03-1.47-.57-13.98-5.47-14.43-4.23-.07.2-.09.76.01.94,4.07,7.65,5.99,15.77,6.53,24.21.54,8.41-1.17,18.36-4.35,26.34-.2.49.86.94,1.4.9,8.08-.68,16.82-4.2,21.18-10.75.9-1.35,1.76-2.62,2.91-3.79,1.02-1.04,3.19-1.43,4.12-.22,1.4,1.84,1.16,4.13.85,6.28-.8,5.61-3.52,10.52-7.65,14.68-1.52,1.53-3.06,3.02-4.02,4.8-1.8,3.34-.6,6.92,2.93,8.64,3.14,1.53,6.48,2.32,10.05,2.89s6.73.96,10.19,1.21l2.86.2,2.81.16,3.95.2c4.61.23,9.09.31,13.79.13ZM90.04,134.16c-.03-2.12,1.59-3.32,2.48-5.23-2.36,2.01-4.16,5.72-1.55,8.22,4.52,4.34,16.7,5.15,23.05,5.39l7.07.26c2.66.1,5.28.06,7.96,0l10.41-.25,7.29-.28,7.14-.26,11.94-.17c-3.44.58-6.57.81-9.87,1.04l-3.39.24-3.11.24-3.66.25-4.94.22-7.38.25c-4.75.16-9.4.11-14.19-.1l-4.78-.21-4.25-.26-2.62-.23c-5.42-.48-18.07-1.73-20.81-6.48-1.17-2.03-.6-4.69.86-6.49,1.19-1.48,2.42-2.73,3.75-4.1,4.07-4.2,6.64-9.38,7.32-15,.24-2,.32-5.62-1.69-6.68-2.53-1.34-4.89,1.1-6.2,3.11-1.26,1.93-2.53,3.79-4.36,5.32-3.64,3.07-8.05,5.03-12.91,5.97,1.45-.73,2.91-1.42,4.25-2.28-1.01.09-10.53,5.05-9.37,2.06,2.05-5.3,3.32-10.59,3.81-16.17l.26-2.96c.21-2.35.23-4.6,0-6.95l-.33-3.37c-.72-7.38-2.78-14.29-6.32-21.16,2.95-.11,7.72,3.36,8.94,2.66,5.38,1.6,12.54,5.21,18.12,6.12,3.62.59,6.57-1.56,7.03-4.75.87-5.96-4.29-11.69-8.32-15.91l-4.61-4.84c-3.45-3.63-3.41-8.45-.68-12.71-2.01,1.58-1.92,3.96-2.5,6.3-1.07-3.72-.3-7.97,3.06-10.57,2.85-2.2,6.32-3.49,10.05-4.24,8.87-1.79,17.68-3.22,26.75-4.1l8.23-.81,5.33-.32,3.95-.17,3.94-.18c2.8-.13,5.58-.09,8.32.04l4.94.23,3.4.19c14.96.82,32.73,4.88,44.33,11.52l-18.3-5.44c-8.92-2.65-17.95-4.07-27.29-4.41l-7.07-.26c-3.02-.11-6.03-.09-9.05,0l-7.16.22-2.84.19-8.49.77c-9.11.83-17.96,2.24-26.91,3.92-2.13.4-4.05,1.04-5.71,1.96l5.33-1.5c3.39-.95,6.84-1.36,10.37-1.86l10.74-1.5,6.77-.77,9.02-.77c1-.09,2.16-.21,3.13-.21h19.97c.97,0,2.14.12,3.13.22l7.36.78c10.45,1.1,30.87,6.3,40.15,10.48,6.58,2.96,20.38,14.28,25.7,19.53l13.83,13.64c2.2,2.17,6.64,5.72,6,8.19-.88,3.39-8.5,2.52-9.92,4.84l6.79.09c3.57.05.73,6.08-.64,7.91-3.62,4.82-7.46,9.32-11.61,13.8-12.16,2.29-20.04,3.94-28.71-5.4-3.17-3.42-5.77-7.2-7.03-11.6-1.66-5.75-.01-8.59,1.45-14.08-1.31,2.4-2,5.09-2.38,7.85-.52,3.75.66,7.38,2.39,10.8,1.52,2.99,3.58,5.5,5.97,7.97,8.19,8.49,16.3,6.91,27.78,4.96-5.11,5.74-10.51,10.9-16.49,15.68-12.16,9.72-26.88,15.74-42.82,17.87-4.92.66-9.44,1.28-14.46.95-1.25-.08-2.67.17-3.91.19l-8.64.18-7.62.27-7.32.27-21.84.05-4.51-.26-3.12-.22c-2-.14-3.91-.46-5.91-.75-3.95-.56-12.26-2.37-12.33-6.94ZM158.08,147.41c3.11-2.01,6.36-3.73,9.8-5.08l11.8-1.44c5.19-.63,10-1.74,15.24-3.18-1.8,2.66-4.16,4.68-6.79,6.51-8.05,5.6-18.83,8.16-28.79,9.34-1.93.23-3.99.48-5.75-.53s3.42-4.91,4.5-5.61Z"/>
        <path class="cls-3" d="M90.04,134.16c.07,4.57,8.39,6.38,12.33,6.94,2,.28,3.91.61,5.91.75l3.12.22,4.51.26,21.84-.05,7.32-.27,7.62-.27,8.64-.18c1.24-.03,2.66-.27,3.91-.19,5.02.33,9.54-.29,14.46-.95,15.94-2.13,30.66-8.16,42.82-17.87,5.98-4.78,11.37-9.93,16.49-15.68-11.48,1.95-19.59,3.54-27.78-4.96-2.39-2.48-4.45-4.99-5.97-7.97-1.74-3.41-2.91-7.04-2.39-10.8.38-2.77,1.08-5.45,2.38-7.85-1.47,5.49-3.11,8.32-1.45,14.08,1.27,4.4,3.86,8.18,7.03,11.6,8.67,9.33,16.55,7.68,28.71,5.4,4.15-4.48,7.98-8.98,11.61-13.8,1.38-1.83,4.21-7.86.64-7.91l-6.79-.09c1.42-2.32,9.04-1.46,9.92-4.84.64-2.47-3.8-6.03-6-8.19l-13.83-13.64c-5.32-5.24-19.12-16.56-25.7-19.53-9.28-4.18-29.7-9.38-40.15-10.48l-7.36-.78c-.99-.1-2.16-.22-3.13-.22h-19.97c-.98,0-2.13.12-3.13.21l-9.02.77-6.77.77-10.74,1.5c-3.53.49-6.98.9-10.37,1.86l-5.33,1.5c1.65-.93,3.58-1.56,5.71-1.96,8.95-1.68,17.8-3.09,26.91-3.92l8.49-.77,2.84-.19,7.16-.22c3.02-.09,6.03-.11,9.05,0l7.07.26c9.33.35,18.37,1.76,27.29,4.41l18.3,5.44c-11.6-6.64-29.37-10.7-44.33-11.52l-3.4-.19-4.94-.23c-2.74-.13-5.52-.16-8.32-.04l-3.94.18-3.95.17-5.33.32-8.23.81c-9.06.89-17.88,2.31-26.75,4.1-3.72.75-7.2,2.03-10.05,4.24-3.36,2.6-4.13,6.85-3.06,10.57.58-2.35.49-4.72,2.5-6.3-2.73,4.26-2.77,9.08.68,12.71l4.61,4.84c4.03,4.23,9.19,9.96,8.32,15.91-.46,3.19-3.42,5.34-7.03,4.75-5.58-.92-12.74-4.52-18.12-6.12-1.23.7-5.99-2.77-8.94-2.66,3.54,6.87,5.6,13.79,6.32,21.16l.33,3.37c.23,2.35.21,4.6,0,6.95l-.26,2.96c-.5,5.58-1.76,10.87-3.81,16.17-1.16,2.99,8.36-1.97,9.37-2.06-1.34.85-2.8,1.54-4.25,2.28,4.85-.94,9.26-2.9,12.91-5.97,1.83-1.54,3.1-3.39,4.36-5.32,1.31-2.01,3.67-4.45,6.2-3.11,2,1.06,1.93,4.69,1.69,6.68-.68,5.62-3.25,10.8-7.32,15-1.34,1.38-2.56,2.62-3.75,4.1-1.46,1.8-2.02,4.46-.86,6.49,2.74,4.75,15.38,6,20.81,6.48l2.62.23,4.25.26,4.78.21c4.79.21,9.45.26,14.19.1l7.38-.25,4.94-.22,3.66-.25,3.11-.24,3.39-.24c3.3-.23,6.43-.46,9.87-1.04l-11.94.17-7.14.26-7.29.28-10.41.25c-2.68.06-5.3.1-7.96,0l-7.07-.26c-6.35-.23-18.53-1.05-23.05-5.39-2.61-2.5-.81-6.21,1.55-8.22-.89,1.9-2.52,3.11-2.48,5.23ZM146.5,31.02c-5.16-.28-10.05-.21-14.99.03l-4.62.22-4.5.26-3.32.3c-8.28.74-16.28,2.25-24.17,4.64-.85.26-1.56.8-2.49.48,9.29-3.09,18.95-5.03,28.88-5.65l4.76-.3,4.34-.22c5.8-.29,11.53-.36,17.39-.03l4.51.25,3.12.21,7.63.75,18.59,2.31c3.3.41,6.45,1.06,9.35,2.27-3.38-.76-6.49-1.6-9.89-2.03l-9.89-1.26-8.75-1.02c-2.65-.31-5.22-.58-7.88-.75l-3.4-.22-4.65-.25ZM92.23,94.64l-2.3.76,1.94-1.2.35-3.67c-3.91.03-7.88-.09-11.7.13-1.95.11-3.73.2-5.53.03,1.55-.13,3.05-.33,4.52-.34l12.62-.09.24-3.69c-5.93-2.89-12.13-3.91-18.8-4.7,6.49-.01,12.82,1.75,18.8,4.24.39-1.2.65-2.33.7-3.46-6.14-1.87-12.12-3.53-17.55-6.5,5.96,2.26,11.59,4.67,17.74,6.15l.8-2.64c7.27-.73,11.47-6.7,10.04-13.13-1.5-6.73-5.13-9.97-9.99-14.6-2.76-2.63-6.56-7.53-2.91-10.84,1.16-1.05,2.6-1.84,4.22-2.34,8.52-2.6,17.16-4.22,26.15-4.88l3.93-.29,3.66-.23,4.95-.23c3.21-.15,6.44-.17,9.69-.02l3.42.16,3.66.2,3.39.25,3.93.3,7.65.81,13.35,1.67c4,.5,8.57,1.43,12.13,3.11,7.25,3.44,6.43,10.82,6.2,17.46l-.25,7.32-.3,8.2-.26,6.49c-.33,8.32-5.3,14.23-11.69,19.5-5.26,4.34-9.8,9.01-14.02,14.23-2.84,3.52-5.53,6.84-8.7,10.1-5.55,5.71-12.15,10.25-20,12.97-5.88,2.03-11.82,3.25-18.06,3.57l-5.08.26c-2.53.13-5.06.15-7.63,0-3.66-.21-7.2-.3-10.66-1.56-6.48-2.36-2.82-9.6-.71-13.77,3.65-7.22,9.28-13.94.8-20.16-2.26-1.66-4.61-2.42-7.73-1.99-.85-2.91-1.3-4.62-1-7.59ZM192.4,37.18c1.73.45,3.62,1.49,4.75,3.08l-4.75-3.08ZM88.62,48.5c-1.98-2.36-2.47-5.75-.4-8.29-1.31,2.74-.98,5.45.4,8.29ZM199.21,84.56l.67-6.13.21-3.76.27-7.98.27-10.85c.15-6.2.54-10.14-3.24-15.34,4.48,3.55,3.63,11.64,3.52,16.15l-.29,12.05-.23,7.88-.22,2.88c-.14,1.8-.46,3.54-.97,5.1ZM95.57,56.65l-2.75-2.77c-.67-.67-1.3-1.21-1.77-2.06,1.18.86,2.05,1.77,3,2.75,1.27,1.31,2.56,2.43,3.62,3.97-.88-.5-1.39-1.16-2.1-1.89ZM100.75,74.87c2.22-5.78,1.51-6.71-.62-12.66,2.26,2.81,3.41,9.3.62,12.66ZM219.89,80.48c-2.86-3.35-1.48-9.07,1.41-11.63,3.55-3.15,9.1-3.87,13.1-1.31-3.61-1.38-7.13-1.87-10.57-.02-5.19,2.79-6.14,8.03-3.94,12.96ZM228.26,84.93c3.43.06,6.17-.93,8.3-3.24,4.14-4.49,2.85-9.84-1.29-13.62,4.12,2.49,5.14,7.45,3.29,11.37-1.74,3.67-5.9,6.2-10.52,5.81-3.08-.26-6.1-1.44-7.55-4.06,2.24,2.09,4.45,3.68,7.78,3.74ZM232.29,69.28c3.34,1.13,5.15,4.27,4.62,7.48-.52,3.2-3.26,5.73-6.76,6.23-3.5.51-6.95-1.12-8.53-4.02-1.58-2.9-.92-6.4,1.88-8.41,2.2-2.41,5.88-2.94,8.79-1.28ZM97.22,77.71c-2.81,1.61-6.45.89-9.22-.35-4.27-1.92-8.4-3.69-12.5-5.86,3.9,1.28,7.17,3.23,10.9,4.76,2.24,1.05,4.62,2.07,7.18,2.09,1.21.01,2.51-.58,3.64-.64ZM194.12,93.55l3.89-5.85c-.72,2.29-2.2,4.37-3.89,5.85ZM75.94,99.25c4.51-.76,8.29-1.71,12.36-3.03-3.81,1.92-8.21,2.91-12.36,3.03ZM188.94,98.15l.28.26-6.63,6.06-.28-.26,6.63-6.06ZM101.08,107.41c-.19,7.09-2.13,14.12-6.86,19.54,3.4-5.21,5.87-10.52,6.38-16.6.15-1.79-.15-3.56-.9-5.17-3.16-2.86-5.32-2.38-8.38-.51,1.3-1.86,3.47-1.96,5.56-1.61,1.83.31,2.71,1.73,3.96,3.15,1.75,1.98,3.1,4.28,2.33,7.01-.66,2.36-1.64,4.74-3.03,6.66,1.54-4.33,5.06-8.53.94-12.48ZM169.41,119.44l8.57-10.51c1.22-1.5,2.4-2.89,3.96-3.88l-3.69,4.16-8.61,10.55c-.09.11-.5.37-.6.44-.07.05-.17-.3-.11-.36s.4-.29.49-.39ZM138.22,138.8c6.42-1.26,11.88-3.85,17.46-7.02-11.13,8.72-32.8,10.16-46.69,9.48-3.35-.16-6.58-.54-9.71-1.39-4.07-1.1-6.28-4.44-4.98-8.31,1.24-3.7,3.16-7.27,5.24-10.5-1.85,5.12-5.93,8.96-4.95,14.36.8,4.38,8.94,5.16,12.84,5.39l3.97.23c2.42.14,4.9.13,7.33,0l3.97-.22c5.95-.33,9.74-.88,15.53-2.02Z"/>
        <path class="cls-2" d="M221.15,75.64c0-3.91,3.47-7.08,7.74-7.08s7.74,3.17,7.74,7.08-3.47,7.08-7.74,7.08-7.74-3.17-7.74-7.08ZM230.34,70.14c2.37.6,3.8,2.06,4.48,3.92.77,2.09-.16,3.86-1.64,5.86,1.88-1.15,2.66-3.52,2.15-5.58-.48-1.95-1.95-3.58-4.23-4.35-3.6-1.22-7.44.66-8.51,3.97s1.05,6.94,4.94,7.54c2.13.33,4.51.09,5.67-1.61-2.3,1.37-4.81,1.99-7.25.73-2.09-1.08-3.58-3.29-3.15-5.85.53-3.2,4.21-5.48,7.54-4.64ZM230.85,75.35c-.48-.08-1.27-.76-1.3-1.2-.05-.54.41-1.2.93-1.75-1.46-.7-3.41-.25-4.46.87-1.17,1.24-1.37,3.16-.25,4.41,1.37,1.52,3.19,1.91,4.95,1.13s2.3-2.65,1.84-4.25c-.53.49-1.16.88-1.7.8Z"/>
        <path class="cls-3" d="M158.08,147.41c-1.08.7-6.25,4.61-4.5,5.61s3.82.76,5.75.53c9.97-1.18,20.75-3.74,28.79-9.34,2.63-1.83,4.99-3.85,6.79-6.51-5.24,1.44-10.05,2.55-15.24,3.18l-11.8,1.44c-3.44,1.35-6.69,3.07-9.8,5.08Z"/>
        <path class="cls-3" d="M146.5,31.02l4.65.25,3.4.22c2.65.17,5.23.45,7.88.75l8.75,1.02,9.89,1.26c3.4.43,6.51,1.28,9.89,2.03-2.9-1.2-6.06-1.86-9.35-2.27l-18.59-2.31-7.63-.75-3.12-.21-4.51-.25c-5.86-.33-11.59-.26-17.39.03l-4.34.22-4.76.3c-9.94.62-19.59,2.55-28.88,5.65.92.32,1.64-.23,2.49-.48,7.9-2.38,15.89-3.9,24.17-4.64l3.32-.3,4.5-.26,4.62-.22c4.94-.23,9.83-.3,14.99-.03Z"/>
        <path class="cls-3" d="M138.22,138.8c-5.79,1.14-9.58,1.69-15.53,2.02l-3.97.22c-2.42.13-4.9.14-7.33,0l-3.97-.23c-3.9-.23-12.04-1.02-12.84-5.39-.98-5.4,3.1-9.24,4.95-14.36-2.08,3.22-4,6.8-5.24,10.5-1.3,3.87.91,7.21,4.98,8.31,3.13.85,6.36,1.23,9.71,1.39,13.89.68,35.56-.75,46.69-9.48-5.58,3.17-11.04,5.76-17.46,7.02Z"/>
        <path class="cls-3" d="M199.21,84.56c.51-1.56.83-3.3.97-5.1l.22-2.88.23-7.88.29-12.05c.11-4.51.95-12.59-3.52-16.15,3.78,5.2,3.4,9.14,3.24,15.34l-.27,10.85-.27,7.98-.21,3.76-.67,6.13Z"/>
        <path class="cls-3" d="M101.08,107.41c4.12,3.95.59,8.14-.94,12.48,1.39-1.93,2.37-4.31,3.03-6.66.77-2.73-.58-5.03-2.33-7.01-1.25-1.42-2.13-2.84-3.96-3.15-2.09-.35-4.26-.25-5.56,1.61,3.06-1.87,5.23-2.34,8.38.51.74,1.61,1.05,3.38.9,5.17-.51,6.08-2.97,11.39-6.38,16.6,4.73-5.42,6.67-12.45,6.86-19.54Z"/>
        <path class="cls-3" d="M228.26,84.93c-3.33-.06-5.54-1.65-7.78-3.74,1.45,2.62,4.47,3.79,7.55,4.06,4.63.39,8.79-2.14,10.52-5.81,1.86-3.92.83-8.88-3.29-11.37,4.14,3.78,5.43,9.13,1.29,13.62-2.13,2.31-4.87,3.3-8.3,3.24Z"/>
        <path class="cls-3" d="M219.89,80.48c-2.2-4.93-1.25-10.18,3.94-12.96,3.44-1.85,6.96-1.36,10.57.02-4.01-2.56-9.56-1.84-13.1,1.31-2.89,2.57-4.26,8.29-1.41,11.63Z"/>
        <path class="cls-1" d="M97.22,77.71c-1.14.05-2.43.65-3.64.64-2.56-.02-4.94-1.04-7.18-2.09-3.73-1.53-7.01-3.48-10.9-4.76,4.1,2.17,8.24,3.94,12.5,5.86,2.77,1.25,6.41,1.96,9.22.35Z"/>
        <path class="cls-3" d="M100.75,74.87c2.8-3.36,1.65-9.84-.62-12.66,2.13,5.94,2.84,6.88.62,12.66Z"/>
        <path class="cls-3" d="M169.41,119.44c-.08.1-.43.34-.49.39s.04.41.11.36c.11-.07.52-.33.6-.44l8.61-10.55,3.69-4.16c-1.56.99-2.73,2.38-3.96,3.88l-8.57,10.51Z"/>
        <path class="cls-3" d="M95.57,56.65c.72.72,1.22,1.39,2.1,1.89-1.06-1.54-2.35-2.66-3.62-3.97-.95-.98-1.82-1.89-3-2.75.46.85,1.1,1.39,1.77,2.06l2.75,2.77Z"/>
        <polygon class="cls-3" points="188.94 98.15 182.32 104.21 182.6 104.47 189.22 98.41 188.94 98.15"/>
        <path class="cls-3" d="M88.62,48.5c-1.38-2.84-1.71-5.55-.4-8.29-2.07,2.54-1.58,5.93.4,8.29Z"/>
        <path class="cls-3" d="M194.12,93.55c1.68-1.48,3.17-3.56,3.89-5.85l-3.89,5.85Z"/>
        <path class="cls-3" d="M192.4,37.18l4.75,3.08c-1.13-1.59-3.02-2.64-4.75-3.08Z"/>
        <path class="cls-1" d="M92.23,94.64c-.31,2.97.15,4.68,1,7.59,3.13-.44,5.48.33,7.73,1.99,8.48,6.22,2.85,12.93-.8,20.16-2.11,4.17-5.77,11.41.71,13.77,3.46,1.26,7.01,1.35,10.66,1.56,2.57.15,5.1.13,7.63,0l5.08-.26c6.24-.32,12.18-1.54,18.06-3.57,7.85-2.71,14.45-7.26,20-12.97,3.17-3.26,5.85-6.59,8.7-10.1,4.22-5.21,8.76-9.89,14.02-14.23,6.39-5.27,11.36-11.18,11.69-19.5l.26-6.49.3-8.2.25-7.32c.23-6.64,1.05-14.03-6.2-17.46-3.56-1.69-8.13-2.61-12.13-3.11l-13.35-1.67-7.65-.81-3.93-.3-3.39-.25-3.66-.2-3.42-.16c-3.25-.15-6.48-.13-9.69.02l-4.95.23-3.66.23-3.93.29c-8.99.65-17.63,2.28-26.15,4.88-1.63.5-3.06,1.29-4.22,2.34-3.65,3.31.15,8.21,2.91,10.84,4.86,4.64,8.49,7.87,9.99,14.6,1.43,6.43-2.77,12.4-10.04,13.13l-.8,2.64c-6.14-1.49-11.78-3.9-17.74-6.15,5.43,2.97,11.4,4.64,17.55,6.5-.05,1.13-.32,2.26-.7,3.46-5.98-2.49-12.31-4.25-18.8-4.24,6.67.79,12.88,1.82,18.8,4.7l-.24,3.69-12.62.09c-1.46.01-2.96.21-4.52.34,1.8.17,3.59.08,5.53-.03,3.82-.22,7.79-.1,11.7-.13l-.35,3.67-1.94,1.2,2.3-.76ZM109.83,139.19c-4.11-.21-11.98-.77-12.15-5.7-.1-3.06,1.42-5.96,2.86-8.74l4.01-7.75c1.26-2.43,1.83-5.27.91-7.9-1.67-4.72-6.58-7.73-11.93-7.55-1.81-6.96-1.11-14.84.94-21.57,5.92-.53,10.02-4.89,10.37-10.18.22-3.37-.9-6.55-2.62-9.56-1.68-2.94-4.08-5.28-6.63-7.61-2.25-2.06-6.54-6.62-5.11-9.66.93-1.96,2.97-3.09,5.16-3.79,8.08-2.55,16.31-4.1,24.85-4.79l3.6-.29,4.5-.26,4.81-.24c3.96-.2,7.87-.2,11.81.01l4.28.23,4.51.26c1,.06,2.08.13,3.08.24l6.79.73,8.74,1.02c3.16.37,6.2.76,9.29,1.3,5.6.98,12.89,2.64,14.46,8.43,1.14,4.19.78,7.59.64,11.84l-.3,8.72-.23,8.64-.21,3.15c-.37,5.55-1.82,10.07-5.68,14.4-2.17,2.43-4.62,4.45-7.05,6.66l-5.37,4.91c-5.38,4.92-10.58,12.6-16.24,18.41-4.64,4.76-9.91,8.65-16.22,11.45-10.3,4.57-24.56,5.75-35.85,5.17Z"/>
        <path class="cls-1" d="M75.94,99.25c4.14-.12,8.54-1.11,12.36-3.03-4.06,1.32-7.84,2.27-12.36,3.03Z"/>
        <ellipse class="cls-2" cx="228.9" cy="75.75" rx="7.86" ry="7.19"/>
        <path class="cls-2" d="M223.5,70.56c2.34-2.08,5.86-2.59,8.79-1.28-2.91-1.66-6.59-1.13-8.79,1.28Z"/>
        <path class="cls-1" d="M109.83,139.19c11.29.59,25.55-.6,35.85-5.17,6.31-2.8,11.59-6.69,16.22-11.45,5.66-5.82,10.86-13.49,16.24-18.41l5.37-4.91c2.43-2.22,4.88-4.23,7.05-6.66,3.86-4.33,5.31-8.85,5.68-14.4l.21-3.15.23-8.64.3-8.72c.14-4.25.5-7.65-.64-11.84-1.57-5.79-8.86-7.46-14.46-8.43-3.09-.54-6.14-.93-9.29-1.3l-8.74-1.02-6.79-.73c-.99-.11-2.08-.18-3.08-.24l-4.51-.26-4.28-.23c-3.94-.21-7.84-.21-11.81-.01l-4.81.24-4.5.26-3.6.29c-8.54.69-16.77,2.24-24.85,4.79-2.19.69-4.23,1.83-5.16,3.79-1.44,3.04,2.85,7.6,5.11,9.66,2.56,2.33,4.96,4.67,6.63,7.61,1.72,3.01,2.84,6.19,2.62,9.56-.35,5.3-4.45,9.65-10.37,10.18-2.05,6.72-2.75,14.61-.94,21.57,5.35-.17,10.27,2.83,11.93,7.55.93,2.62.35,5.47-.91,7.9l-4.01,7.75c-1.44,2.78-2.96,5.68-2.86,8.74.17,4.93,8.04,5.48,12.15,5.7Z"/>
        <path class="cls-2" d="M222.81,74.77c.53-3.2,4.21-5.48,7.54-4.64,2.37.6,3.8,2.06,4.48,3.92.77,2.09-.16,3.86-1.64,5.86,1.88-1.15,2.66-3.52,2.15-5.58-.48-1.95-1.95-3.58-4.23-4.35-3.6-1.22-7.44.66-8.51,3.97s1.05,6.94,4.94,7.54c2.13.33,4.51.09,5.67-1.61-2.3,1.37-4.81,1.99-7.25.73-2.09-1.08-3.58-3.29-3.15-5.85Z"/>
        <path class="cls-2" d="M232.54,74.55c-.53.49-1.16.88-1.7.8-.48-.08-1.27-.76-1.3-1.2-.05-.54.41-1.2.93-1.75-1.46-.7-3.41-.25-4.46.87-1.17,1.24-1.37,3.16-.25,4.41,1.37,1.52,3.19,1.91,4.95,1.13s2.3-2.65,1.84-4.25ZM225.59,76.22c-.2-1.23.17-2.28.99-2.97.67-.56,1.99-.94,2.86-.66-.19.82-.41,1.89.2,2.5.65.65,1.78.63,2.72.24.07,1.78-1.18,3.19-2.96,3.37s-3.5-.58-3.8-2.48Z"/>
        <path d="M225.59,76.22c.3,1.9,2.1,2.65,3.8,2.48s3.03-1.59,2.96-3.37c-.94.39-2.07.42-2.72-.24-.61-.61-.39-1.68-.2-2.5-.87-.28-2.19.1-2.86.66-.82.69-1.19,1.74-.99,2.97Z"/>
      </g>
    </g>
  </g>
</svg>