<?xml version="1.0" encoding="UTF-8"?>
<svg id="Layer_1" data-name="Layer 1" xmlns="http://www.w3.org/2000/svg" viewBox="0 0 249.22 172.64">
  <defs>
    <style>
      .cls-1 {
        fill: #92ff7a;
      }

      .cls-2 {
        fill: #fff;
      }

      .cls-3 {
        fill: #cdff76;
      }
    </style>
  </defs>
  <g id="lLKwO5">
    <g>
      <path class="cls-2" d="M105.37,119.55c-2.96.11-5.8.06-8.71-.08l-2.49-.12-1.77-.1-1.81-.13c-2.18-.15-4.29-.41-6.43-.74-2.25-.35-4.37-.84-6.35-1.78-2.23-1.06-2.99-3.26-1.85-5.32.61-1.09,1.58-2.01,2.54-2.95,2.61-2.56,4.33-5.58,4.83-9.03.19-1.32.35-2.73-.54-3.86-.59-.75-1.96-.5-2.6.13-.73.72-1.27,1.5-1.84,2.33-2.75,4.03-8.27,6.2-13.37,6.62-.34.03-1.01-.25-.88-.55,2.01-4.91,3.09-11.04,2.75-16.21s-1.55-10.19-4.12-14.9c-.06-.12-.05-.46,0-.58.28-.76,8.18,2.25,9.11,2.6,2.39.91,4.66,1.73,7.08,2.48,1.37.42,2.59.46,3.8-.28,1.01-.61,1.57-1.78,1.51-3.05-.17-3.83-4.08-7.58-6.93-10.32-2.25-2.16-3.74-4.91-3.55-7.85.15-2.37,1.53-4.25,3.86-5.36,2.37-1.13,4.94-1.8,7.63-2.2l9.11-1.38,3.75-.47,6.58-.63,2.14-.13,2.67-.16,3.66-.12c1.48-.05,2.95-.05,4.43,0l3.82.13,2.16.15,2.47.17c4.8.33,9.38,1.19,13.98,2.43,5.82,1.56,11.15,3.8,16.11,6.93,3.82,2.41,7.38,4.97,10.67,7.91l3.41,3.04,8.76,8.35c1.59,1.52,4.62,3.76,3.46,5.67-.88,1.44-3.62,1.35-5.28,2.06l3.07.09c.48.01,1.17.3,1.37.6.73,1.11-.62,3.85-1.59,5.08-3.17,4.04-6.6,7.78-10.28,11.47-7.03,7.05-14.63,12.45-24.66,15.59-3.83,5.71-12.61,8.72-19.54,9.78-3.1.48-3.43.62-6.72.43-.33-.02-.81-.36-.91-.6-.82-2.03,6.02-5.35,7.76-6.26-.67-.03-1.27,0-1.92.06l-1.96.15-2.31.18-1.96.15-1.95.15-3.2.16-2.77.13-4.2.16Z"/>
      <g>
        <path class="cls-1" d="M105.37,119.55l4.2-.16,2.77-.13,3.2-.16,1.95-.15,1.96-.15,2.31-.18,1.96-.15c.66-.05,1.26-.08,1.92-.06-1.74.91-8.58,4.23-7.76,6.26.1.24.57.59.91.6,3.28.19,3.61.04,6.72-.43,6.93-1.06,15.7-4.07,19.54-9.78,10.02-3.14,17.63-8.54,24.66-15.59,3.68-3.69,7.11-7.43,10.28-11.47.97-1.23,2.32-3.97,1.59-5.08-.2-.31-.89-.59-1.37-.6l-3.07-.09c1.66-.71,4.4-.62,5.28-2.06,1.16-1.91-1.87-4.15-3.46-5.67l-8.76-8.35-3.41-3.04c-3.29-2.94-6.85-5.5-10.67-7.91-4.96-3.13-10.3-5.36-16.11-6.93-4.6-1.24-9.18-2.1-13.98-2.43l-2.47-.17-2.16-.15-3.82-.13c-1.48-.05-2.95-.05-4.43,0l-3.66.12-2.67.16-2.14.13-6.58.63-3.75.47-9.11,1.38c-2.69.41-5.26,1.07-7.63,2.2-2.32,1.11-3.71,2.99-3.86,5.36-.19,2.94,1.3,5.68,3.55,7.85,2.85,2.74,6.76,6.49,6.93,10.32.06,1.27-.5,2.44-1.51,3.05-1.21.74-2.43.71-3.8.28-2.42-.75-4.69-1.58-7.08-2.48-.93-.35-8.83-3.36-9.11-2.6-.05.12-.06.47,0,.58,2.57,4.71,3.78,9.7,4.12,14.9s-.74,11.3-2.75,16.21c-.12.3.54.58.88.55,5.1-.42,10.62-2.59,13.37-6.62.57-.83,1.11-1.61,1.84-2.33.64-.64,2.02-.88,2.6-.13.89,1.13.73,2.54.54,3.86-.51,3.45-2.22,6.47-4.83,9.03-.96.94-1.94,1.86-2.54,2.95-1.14,2.06-.38,4.26,1.85,5.32,1.98.94,4.1,1.43,6.35,1.78s4.25.59,6.43.74l1.81.13,1.77.1,2.49.12c2.91.14,5.74.19,8.71.08ZM78.18,113.13c-.02-1.3,1.01-2.04,1.57-3.22-1.49,1.24-2.63,3.52-.98,5.06,2.86,2.67,10.55,3.17,14.56,3.31l4.47.16c1.68.06,3.34.04,5.03,0l6.57-.15,4.6-.17,4.51-.16,7.54-.1c-2.17.36-4.15.5-6.24.64l-2.14.15-1.96.15-2.31.15-3.12.14-4.66.15c-3,.1-5.94.07-8.97-.06l-3.02-.13-2.68-.16-1.65-.14c-3.42-.3-11.41-1.06-13.14-3.99-.74-1.25-.38-2.88.54-3.99.75-.91,1.53-1.68,2.37-2.52,2.57-2.58,4.2-5.77,4.62-9.23.15-1.23.2-3.46-1.06-4.11-1.6-.83-3.09.68-3.92,1.91s-1.6,2.33-2.75,3.28c-2.3,1.89-5.09,3.1-8.15,3.67.91-.45,1.84-.87,2.68-1.4-.64.06-6.65,3.11-5.92,1.27,1.3-3.26,2.09-6.52,2.41-9.95l.17-1.82c.13-1.44.14-2.83,0-4.28l-.21-2.08c-.46-4.54-1.76-8.79-3.99-13.02,1.86-.07,4.87,2.07,5.65,1.64,3.4.99,7.92,3.2,11.44,3.77,2.28.37,4.15-.96,4.44-2.92.55-3.67-2.71-7.19-5.25-9.79l-2.91-2.98c-2.18-2.23-2.15-5.2-.43-7.82-1.27.97-1.21,2.44-1.58,3.88-.67-2.29-.19-4.9,1.93-6.5,1.8-1.36,3.99-2.15,6.35-2.61,5.6-1.1,11.17-1.98,16.89-2.53l5.2-.5,3.37-.19,2.5-.11,2.49-.11c1.77-.08,3.52-.06,5.25.02l3.12.14,2.15.12c9.45.51,20.67,3,28,7.09l-11.56-3.35c-5.63-1.63-11.34-2.5-17.23-2.72l-4.46-.16c-1.91-.07-3.81-.06-5.72,0l-4.52.13-1.8.12-5.36.48c-5.76.51-11.35,1.38-17,2.41-1.34.25-2.56.64-3.6,1.21l3.37-.92c2.14-.59,4.32-.84,6.55-1.14l6.78-.92,4.27-.48,5.7-.48c.63-.05,1.36-.13,1.98-.13h12.61c.61,0,1.35.07,1.98.14l4.65.48c6.6.68,19.49,3.88,25.36,6.45,4.16,1.82,12.87,8.79,16.23,12.02l8.74,8.39c1.39,1.33,4.19,3.52,3.79,5.04-.56,2.09-5.37,1.55-6.27,2.98l4.29.05c2.25.03.46,3.74-.41,4.87-2.29,2.97-4.71,5.74-7.33,8.49-7.68,1.41-12.65,2.42-18.13-3.32-2-2.1-3.64-4.43-4.44-7.14-1.05-3.54,0-5.28.92-8.66-.82,1.48-1.26,3.13-1.51,4.83-.33,2.31.41,4.54,1.51,6.65.96,1.84,2.26,3.38,3.77,4.91,5.17,5.23,10.29,4.25,17.55,3.05-3.23,3.53-6.64,6.71-10.41,9.65-7.68,5.98-16.97,9.69-27.04,11-3.11.4-5.96.79-9.13.59-.79-.05-1.69.1-2.47.12l-5.46.11-4.81.16-4.63.17-13.79.03-2.85-.16-1.97-.14c-1.26-.09-2.47-.29-3.73-.46-2.49-.34-7.74-1.46-7.79-4.27ZM121.15,121.28c1.96-1.24,4.02-2.3,6.19-3.13l7.45-.89c3.28-.39,6.32-1.07,9.63-1.96-1.14,1.64-2.63,2.88-4.29,4.01-5.08,3.45-11.89,5.02-18.19,5.75-1.22.14-2.52.29-3.63-.33s2.16-3.02,2.84-3.45Z"/>
        <path class="cls-1" d="M78.18,113.13c.05,2.81,5.3,3.92,7.79,4.27,1.26.17,2.47.37,3.73.46l1.97.14,2.85.16,13.79-.03,4.63-.17,4.81-.16,5.46-.11c.78-.02,1.68-.17,2.47-.12,3.17.2,6.02-.18,9.13-.59,10.07-1.31,19.36-5.02,27.04-11,3.77-2.94,7.18-6.11,10.41-9.65-7.25,1.2-12.37,2.18-17.55-3.05-1.51-1.52-2.81-3.07-3.77-4.91-1.1-2.1-1.84-4.33-1.51-6.65.24-1.7.68-3.36,1.51-4.83-.93,3.38-1.96,5.12-.92,8.66.8,2.71,2.44,5.03,4.44,7.14,5.48,5.74,10.45,4.73,18.13,3.32,2.62-2.76,5.04-5.53,7.33-8.49.87-1.13,2.66-4.84.41-4.87l-4.29-.05c.9-1.43,5.71-.9,6.27-2.98.41-1.52-2.4-3.71-3.79-5.04l-8.74-8.39c-3.36-3.23-12.08-10.19-16.23-12.02-5.86-2.57-18.76-5.77-25.36-6.45l-4.65-.48c-.62-.06-1.36-.14-1.98-.14h-12.61c-.62,0-1.35.08-1.98.13l-5.7.48-4.27.48-6.78.92c-2.23.3-4.41.55-6.55,1.14l-3.37.92c1.04-.57,2.26-.96,3.6-1.21,5.65-1.03,11.24-1.9,17-2.41l5.36-.48,1.8-.12,4.52-.13c1.91-.06,3.81-.07,5.72,0l4.46.16c5.89.21,11.6,1.08,17.23,2.72l11.56,3.35c-7.33-4.09-18.55-6.58-28-7.09l-2.15-.12-3.12-.14c-1.73-.08-3.48-.1-5.25-.02l-2.49.11-2.5.11-3.37.19-5.2.5c-5.72.55-11.29,1.42-16.89,2.53-2.35.46-4.55,1.25-6.35,2.61-2.12,1.6-2.61,4.22-1.93,6.5.37-1.44.31-2.91,1.58-3.88-1.72,2.62-1.75,5.59.43,7.82l2.91,2.98c2.54,2.6,5.8,6.13,5.25,9.79-.29,1.96-2.16,3.29-4.44,2.92-3.52-.56-8.04-2.78-11.44-3.77-.78.43-3.79-1.71-5.65-1.64,2.23,4.23,3.54,8.48,3.99,13.02l.21,2.08c.14,1.44.13,2.83,0,4.28l-.17,1.82c-.31,3.43-1.11,6.69-2.41,9.95-.73,1.84,5.28-1.21,5.92-1.27-.85.53-1.77.95-2.68,1.4,3.07-.58,5.85-1.79,8.15-3.67,1.15-.95,1.96-2.09,2.75-3.28s2.32-2.74,3.92-1.91c1.26.65,1.22,2.88,1.06,4.11-.43,3.46-2.05,6.65-4.62,9.23-.84.85-1.62,1.61-2.37,2.52-.92,1.11-1.28,2.75-.54,3.99,1.73,2.93,9.72,3.69,13.14,3.99l1.65.14,2.68.16,3.02.13c3.03.13,5.97.16,8.97.06l4.66-.15,3.12-.14,2.31-.15,1.96-.15,2.14-.15c2.08-.14,4.06-.28,6.24-.64l-7.54.1-4.51.16-4.6.17-6.57.15c-1.69.04-3.34.06-5.03,0l-4.47-.16c-4.01-.14-11.7-.65-14.56-3.31-1.65-1.54-.51-3.82.98-5.06-.56,1.17-1.59,1.91-1.57,3.22ZM113.84,49.66c-3.26-.17-6.35-.13-9.47.02l-2.92.14-2.85.16-2.1.18c-5.23.46-10.28,1.39-15.27,2.85-.53.16-.99.49-1.57.3,5.87-1.9,11.97-3.09,18.24-3.47l3-.18,2.74-.13c3.66-.18,7.29-.22,10.98-.02l2.85.16,1.97.13,4.82.46,11.74,1.42c2.08.25,4.07.65,5.91,1.4-2.14-.47-4.1-.98-6.25-1.25l-6.25-.78-5.53-.63c-1.67-.19-3.3-.36-4.97-.46l-2.15-.14-2.93-.15ZM79.57,88.8l-1.45.47,1.23-.74.22-2.26c-2.47.02-4.97-.05-7.39.08-1.23.07-2.36.12-3.5.02.98-.08,1.93-.21,2.85-.21l7.97-.05.15-2.27c-3.74-1.78-7.66-2.41-11.88-2.89,4.1,0,8.1,1.08,11.87,2.61.24-.74.41-1.43.44-2.13-3.88-1.15-7.65-2.17-11.08-4,3.76,1.39,7.32,2.87,11.2,3.79l.51-1.63c4.59-.45,7.24-4.12,6.34-8.08-.95-4.14-3.24-6.13-6.31-8.98-1.74-1.62-4.14-4.63-1.84-6.67.73-.65,1.64-1.14,2.67-1.44,5.38-1.6,10.84-2.6,16.51-3l2.48-.18,2.31-.14,3.13-.14c2.02-.09,4.07-.11,6.12-.01l2.16.1,2.31.12,2.14.15,2.48.19,4.83.5,8.43,1.03c2.53.31,5.41.88,7.66,1.92,4.58,2.12,4.06,6.66,3.92,10.75l-.16,4.5-.19,5.04-.16,4c-.21,5.12-3.35,8.76-7.38,12-3.32,2.67-6.19,5.55-8.85,8.76-1.8,2.16-3.49,4.21-5.49,6.22-3.5,3.51-7.67,6.31-12.63,7.98-3.71,1.25-7.46,2-11.4,2.2l-3.21.16c-1.6.08-3.2.09-4.82,0-2.31-.13-4.55-.18-6.73-.96-4.09-1.45-1.78-5.91-.45-8.47,2.3-4.45,5.86-8.58.51-12.4-1.43-1.02-2.91-1.49-4.89-1.22-.54-1.79-.82-2.84-.63-4.67ZM142.83,53.45c1.09.27,2.28.92,3,1.9l-3-1.9ZM77.29,60.41c-1.25-1.45-1.56-3.54-.25-5.1-.83,1.68-.62,3.36.25,5.1ZM147.14,82.61l.43-3.77.13-2.31.17-4.91.17-6.67c.1-3.81.34-6.24-2.05-9.44,2.83,2.19,2.29,7.16,2.23,9.94l-.18,7.41-.14,4.85-.14,1.77c-.09,1.11-.29,2.18-.61,3.14ZM81.67,65.43l-1.74-1.71c-.42-.41-.82-.74-1.12-1.27.75.53,1.29,1.09,1.9,1.69.8.81,1.62,1.49,2.29,2.44-.56-.31-.88-.72-1.33-1.16ZM84.95,76.64c1.41-3.56.95-4.13-.39-7.79,1.43,1.73,2.16,5.72.39,7.79ZM160.2,80.09c-1.8-2.06-.94-5.58.89-7.16,2.24-1.94,5.75-2.38,8.28-.81-2.28-.85-4.5-1.15-6.68-.01-3.28,1.71-3.88,4.94-2.49,7.98ZM165.48,82.83c2.17.03,3.9-.57,5.24-2,2.61-2.76,1.8-6.05-.82-8.38,2.6,1.54,3.25,4.58,2.08,7-1.1,2.26-3.73,3.82-6.65,3.57-1.95-.16-3.85-.89-4.77-2.5,1.42,1.28,2.81,2.27,4.91,2.3ZM168.02,73.2c2.11.7,3.25,2.63,2.92,4.6-.33,1.97-2.06,3.52-4.27,3.84s-4.39-.69-5.39-2.47-.58-3.94,1.19-5.18c1.39-1.48,3.71-1.81,5.55-.79ZM82.72,78.39c-1.78.99-4.08.55-5.82-.22-2.69-1.18-5.31-2.27-7.9-3.61,2.46.79,4.53,1.99,6.88,2.93,1.42.65,2.92,1.27,4.54,1.29.76,0,1.58-.36,2.3-.39ZM143.92,88.13l2.45-3.6c-.45,1.41-1.39,2.69-2.45,3.6ZM69.28,91.64c2.85-.47,5.24-1.06,7.8-1.87-2.41,1.18-5.19,1.79-7.8,1.87ZM140.65,90.97l.18.16-4.19,3.73-.18-.16,4.19-3.73ZM85.15,96.66c-.12,4.36-1.34,8.69-4.33,12.03,2.15-3.21,3.71-6.47,4.03-10.22.09-1.1-.1-2.19-.57-3.18-1.99-1.76-3.36-1.47-5.29-.32.82-1.14,2.19-1.21,3.51-.99,1.16.19,1.71,1.07,2.5,1.94,1.1,1.22,1.96,2.63,1.47,4.32-.42,1.45-1.04,2.91-1.91,4.1.97-2.67,3.2-5.25.6-7.68ZM128.31,104.07l5.41-6.47c.77-.92,1.52-1.78,2.5-2.39l-2.33,2.56-5.44,6.49c-.05.06-.31.23-.38.27-.04.03-.1-.19-.07-.22s.25-.18.31-.24ZM108.61,115.98c4.05-.78,7.5-2.37,11.03-4.32-7.03,5.37-20.71,6.25-29.49,5.83-2.12-.1-4.15-.34-6.13-.86-2.57-.68-3.97-2.74-3.15-5.12.78-2.28,2-4.48,3.31-6.46-1.17,3.15-3.75,5.52-3.13,8.84.5,2.69,5.65,3.18,8.11,3.32l2.5.14c1.53.09,3.1.08,4.63,0l2.51-.13c3.76-.2,6.15-.54,9.81-1.24Z"/>
        <path class="cls-2" d="M160.99,77.12c0-2.41,2.19-4.36,4.89-4.36s4.89,1.95,4.89,4.36-2.19,4.36-4.89,4.36-4.89-1.95-4.89-4.36ZM166.8,73.73c1.5.37,2.4,1.26,2.83,2.41.49,1.29-.1,2.38-1.04,3.61,1.19-.71,1.68-2.17,1.36-3.44-.3-1.2-1.23-2.2-2.67-2.68-2.27-.75-4.7.41-5.37,2.44s.66,4.27,3.12,4.64c1.34.2,2.85.05,3.58-.99-1.45.84-3.04,1.22-4.58.45-1.32-.66-2.26-2.03-1.99-3.6.34-1.97,2.66-3.37,4.76-2.85ZM167.11,76.94c-.31-.05-.8-.47-.82-.74-.03-.33.26-.74.59-1.08-.92-.43-2.15-.15-2.82.53-.74.77-.87,1.94-.16,2.71.86.94,2.02,1.17,3.12.7s1.45-1.63,1.16-2.62c-.33.3-.73.54-1.07.49Z"/>
        <path class="cls-1" d="M121.15,121.28c-.69.43-3.95,2.83-2.84,3.45s2.41.47,3.63.33c6.29-.72,13.1-2.3,18.19-5.75,1.66-1.13,3.15-2.37,4.29-4.01-3.31.89-6.35,1.57-9.63,1.96l-7.45.89c-2.17.83-4.22,1.89-6.19,3.13Z"/>
        <path class="cls-3" d="M113.84,49.66l2.93.15,2.15.14c1.68.11,3.3.27,4.97.46l5.53.63,6.25.78c2.15.27,4.11.79,6.25,1.25-1.83-.74-3.83-1.14-5.91-1.4l-11.74-1.42-4.82-.46-1.97-.13-2.85-.16c-3.7-.2-7.32-.16-10.98.02l-2.74.13-3,.18c-6.28.38-12.37,1.57-18.24,3.47.58.19,1.04-.14,1.57-.3,4.99-1.47,10.04-2.4,15.27-2.85l2.1-.18,2.85-.16,2.92-.14c3.12-.14,6.21-.19,9.47-.02Z"/>
        <path class="cls-3" d="M108.61,115.98c-3.66.7-6.05,1.04-9.81,1.24l-2.51.13c-1.53.08-3.1.09-4.63,0l-2.5-.14c-2.46-.14-7.61-.63-8.11-3.32-.62-3.32,1.96-5.69,3.13-8.84-1.31,1.98-2.53,4.19-3.31,6.46-.82,2.38.58,4.44,3.15,5.12,1.98.52,4.02.75,6.13.86,8.77.42,22.46-.46,29.49-5.83-3.52,1.95-6.97,3.54-11.03,4.32Z"/>
        <path class="cls-3" d="M147.14,82.61c.32-.96.53-2.03.61-3.14l.14-1.77.14-4.85.18-7.41c.07-2.78.6-7.75-2.23-9.94,2.39,3.2,2.15,5.62,2.05,9.44l-.17,6.67-.17,4.91-.13,2.31-.43,3.77Z"/>
        <path class="cls-3" d="M85.15,96.66c2.6,2.43.38,5.01-.6,7.68.88-1.19,1.5-2.65,1.91-4.1.48-1.68-.37-3.1-1.47-4.32-.79-.87-1.35-1.75-2.5-1.94-1.32-.22-2.69-.15-3.51.99,1.94-1.15,3.3-1.44,5.29.32.47.99.66,2.08.57,3.18-.32,3.74-1.88,7.01-4.03,10.22,2.99-3.34,4.21-7.66,4.33-12.03Z"/>
        <path class="cls-2" d="M165.48,82.83c-2.1-.03-3.5-1.02-4.91-2.3.92,1.61,2.82,2.33,4.77,2.5,2.92.24,5.55-1.32,6.65-3.57,1.17-2.41.52-5.46-2.08-7,2.61,2.32,3.43,5.62.82,8.38-1.35,1.42-3.08,2.03-5.24,2Z"/>
        <path class="cls-2" d="M160.2,80.09c-1.39-3.03-.79-6.26,2.49-7.98,2.17-1.14,4.39-.84,6.68.01-2.53-1.58-6.03-1.13-8.28.81-1.83,1.58-2.69,5.1-.89,7.16Z"/>
        <path class="cls-3" d="M82.72,78.39c-.72.03-1.54.4-2.3.39-1.62-.01-3.12-.64-4.54-1.29-2.36-.94-4.42-2.14-6.88-2.93,2.59,1.34,5.2,2.43,7.9,3.61,1.75.77,4.05,1.21,5.82.22Z"/>
        <path class="cls-3" d="M84.95,76.64c1.77-2.07,1.04-6.06-.39-7.79,1.34,3.66,1.8,4.23.39,7.79Z"/>
        <path class="cls-3" d="M128.31,104.07c-.05.06-.27.21-.31.24s.02.25.07.22c.07-.04.33-.21.38-.27l5.44-6.49,2.33-2.56c-.98.61-1.73,1.46-2.5,2.39l-5.41,6.47Z"/>
        <path class="cls-3" d="M81.67,65.43c.45.44.77.85,1.33,1.16-.67-.95-1.48-1.63-2.29-2.44-.6-.6-1.15-1.17-1.9-1.69.29.52.7.85,1.12,1.27l1.74,1.71Z"/>
        <polygon class="cls-3" points="140.65 90.97 136.46 94.7 136.64 94.86 140.83 91.13 140.65 90.97"/>
        <path class="cls-3" d="M77.29,60.41c-.87-1.75-1.08-3.42-.25-5.1-1.31,1.56-1,3.65.25,5.1Z"/>
        <path class="cls-3" d="M143.92,88.13c1.06-.91,2-2.19,2.45-3.6l-2.45,3.6Z"/>
        <path class="cls-3" d="M142.83,53.45l3,1.9c-.72-.98-1.91-1.62-3-1.9Z"/>
        <path class="cls-3" d="M79.57,88.8c-.19,1.83.09,2.88.63,4.67,1.97-.27,3.46.2,4.89,1.22,5.36,3.83,1.8,7.96-.51,12.4-1.33,2.57-3.64,7.02.45,8.47,2.18.78,4.42.83,6.73.96,1.62.09,3.22.08,4.82,0l3.21-.16c3.94-.2,7.69-.95,11.4-2.2,4.96-1.67,9.13-4.47,12.63-7.98,2-2.01,3.7-4.05,5.49-6.22,2.66-3.21,5.53-6.09,8.85-8.76,4.04-3.24,7.17-6.88,7.38-12l.16-4,.19-5.04.16-4.5c.14-4.09.67-8.63-3.92-10.75-2.25-1.04-5.13-1.61-7.66-1.92l-8.43-1.03-4.83-.5-2.48-.19-2.14-.15-2.31-.12-2.16-.1c-2.05-.09-4.09-.08-6.12.01l-3.13.14-2.31.14-2.48.18c-5.68.4-11.13,1.4-16.51,3-1.03.3-1.94.79-2.67,1.44-2.3,2.04.1,5.05,1.84,6.67,3.07,2.85,5.36,4.84,6.31,8.98.9,3.95-1.75,7.63-6.34,8.08l-.51,1.63c-3.88-.91-7.44-2.4-11.2-3.79,3.43,1.83,7.2,2.85,11.08,4-.03.7-.2,1.39-.44,2.13-3.77-1.53-7.78-2.62-11.87-2.61,4.21.49,8.13,1.12,11.88,2.89l-.15,2.27-7.97.05c-.92,0-1.87.13-2.85.21,1.14.11,2.27.05,3.5-.02,2.41-.13,4.92-.06,7.39-.08l-.22,2.26-1.23.74,1.45-.47ZM90.68,116.22c-2.6-.13-7.57-.47-7.67-3.51-.06-1.88.9-3.66,1.8-5.38l2.53-4.77c.79-1.49,1.16-3.25.57-4.86-1.05-2.9-4.16-4.75-7.54-4.65-1.14-4.28-.7-9.13.59-13.27,3.74-.33,6.33-3.01,6.55-6.27.14-2.08-.57-4.03-1.66-5.89s-2.57-3.25-4.19-4.69c-1.42-1.27-4.13-4.08-3.23-5.94.58-1.2,1.88-1.9,3.26-2.33,5.1-1.57,10.3-2.52,15.7-2.95l2.27-.18,2.84-.16,3.04-.15c2.5-.12,4.97-.12,7.46,0l2.7.14,2.85.16c.63.04,1.32.08,1.94.15l4.29.45,5.52.63c1.99.23,3.91.47,5.87.8,3.54.6,8.14,1.63,9.13,5.19.72,2.58.5,4.67.4,7.29l-.19,5.37-.14,5.32-.13,1.94c-.23,3.42-1.15,6.2-3.59,8.86-1.37,1.5-2.92,2.74-4.45,4.1l-3.39,3.02c-3.4,3.03-6.68,7.75-10.26,11.33-2.93,2.93-6.26,5.32-10.25,7.05-6.51,2.81-15.51,3.54-22.64,3.18Z"/>
        <path class="cls-3" d="M69.28,91.64c2.62-.07,5.4-.68,7.8-1.87-2.57.81-4.95,1.4-7.8,1.87Z"/>
        <ellipse class="cls-2" cx="165.89" cy="77.18" rx="4.97" ry="4.43"/>
        <path class="cls-2" d="M162.47,73.99c1.48-1.28,3.7-1.59,5.55-.79-1.84-1.02-4.16-.69-5.55.79Z"/>
        <path class="cls-3" d="M90.68,116.22c7.13.36,16.14-.37,22.64-3.18,3.99-1.72,7.32-4.12,10.25-7.05,3.58-3.58,6.86-8.3,10.26-11.33l3.39-3.02c1.53-1.37,3.08-2.6,4.45-4.1,2.44-2.67,3.36-5.45,3.59-8.86l.13-1.94.14-5.32.19-5.37c.09-2.62.31-4.71-.4-7.29-.99-3.56-5.6-4.59-9.13-5.19-1.95-.33-3.87-.57-5.87-.8l-5.52-.63-4.29-.45c-.63-.07-1.31-.11-1.94-.15l-2.85-.16-2.7-.14c-2.49-.13-4.95-.13-7.46,0l-3.04.15-2.84.16-2.27.18c-5.39.43-10.59,1.38-15.7,2.95-1.38.42-2.67,1.13-3.26,2.33-.91,1.87,1.8,4.68,3.23,5.94,1.61,1.43,3.13,2.88,4.19,4.69s1.8,3.81,1.66,5.89c-.22,3.26-2.81,5.94-6.55,6.27-1.29,4.14-1.73,8.99-.59,13.27,3.38-.11,6.48,1.74,7.54,4.65.58,1.61.22,3.36-.57,4.86l-2.53,4.77c-.91,1.71-1.87,3.5-1.8,5.38.1,3.03,5.08,3.37,7.67,3.51Z"/>
        <path class="cls-2" d="M162.03,76.58c.34-1.97,2.66-3.37,4.76-2.85,1.5.37,2.4,1.26,2.83,2.41.49,1.29-.1,2.38-1.04,3.61,1.19-.71,1.68-2.17,1.36-3.44-.3-1.2-1.23-2.2-2.67-2.68-2.27-.75-4.7.41-5.37,2.44s.66,4.27,3.12,4.64c1.34.2,2.85.05,3.58-.99-1.45.84-3.04,1.22-4.58.45-1.32-.66-2.26-2.03-1.99-3.6Z"/>
        <path class="cls-2" d="M168.19,76.45c-.33.3-.73.54-1.07.49-.31-.05-.8-.47-.82-.74-.03-.33.26-.74.59-1.08-.92-.43-2.15-.15-2.82.53-.74.77-.87,1.94-.16,2.71.86.94,2.02,1.17,3.12.7s1.45-1.63,1.16-2.62ZM163.8,77.47c-.12-.76.11-1.4.63-1.83.42-.35,1.26-.58,1.8-.41-.12.5-.26,1.16.12,1.54.41.4,1.13.39,1.72.14.05,1.1-.75,1.97-1.87,2.08s-2.21-.36-2.4-1.52Z"/>
        <path class="cls-1" d="M163.8,77.47c.19,1.17,1.32,1.63,2.4,1.52s1.92-.98,1.87-2.08c-.59.24-1.31.26-1.72-.14-.38-.38-.24-1.03-.12-1.54-.55-.17-1.38.06-1.8.41-.52.43-.75,1.07-.63,1.83Z"/>
      </g>
    </g>
  </g>
</svg>