<?xml version="1.0" encoding="UTF-8"?>
<svg id="Layer_1" data-name="Layer 1" xmlns="http://www.w3.org/2000/svg" viewBox="0 0 131.46 114.73">
  <defs>
    <style>
      .cls-1 {
        fill: #92ff7a;
      }

      .cls-2 {
        fill: #fff;
      }

      .cls-3 {
        fill: #cdff76;
      }
    </style>
  </defs>
  <g id="lLKwO5">
    <g>
      <path class="cls-2" d="M65.17,73.21c1.48.06,2.9.03,4.35-.04l1.25-.06.89-.05.9-.06c1.09-.08,2.15-.21,3.22-.37,1.13-.17,2.18-.42,3.17-.89,1.12-.53,1.49-1.63.93-2.66-.3-.55-.79-1.01-1.27-1.48-1.3-1.28-2.16-2.79-2.42-4.52-.1-.66-.17-1.37.27-1.93.29-.37.98-.25,1.3.07.36.36.63.75.92,1.17,1.38,2.02,4.14,3.1,6.69,3.31.17.01.5-.12.44-.28-1-2.46-1.54-5.52-1.37-8.11s.78-5.1,2.06-7.45c.03-.06.03-.23,0-.29-.14-.38-4.09,1.13-4.56,1.3-1.19.45-2.33.87-3.54,1.24-.68.21-1.29.23-1.9-.14-.5-.31-.78-.89-.75-1.53.09-1.91,2.04-3.79,3.46-5.16,1.13-1.08,1.87-2.46,1.78-3.92-.08-1.19-.77-2.13-1.93-2.68s-2.47-.9-3.82-1.1l-4.56-.69-1.88-.24-3.29-.32-1.07-.07-1.34-.08-1.83-.06c-.74-.02-1.47-.02-2.22,0l-1.91.06-1.08.07-1.24.09c-2.4.17-4.69.6-6.99,1.21-2.91.78-5.58,1.9-8.06,3.46-1.91,1.2-3.69,2.49-5.34,3.95l-1.71,1.52-4.38,4.18c-.8.76-2.31,1.88-1.73,2.83.44.72,1.81.68,2.64,1.03l-1.53.05c-.24,0-.58.15-.69.3-.37.55.31,1.92.79,2.54,1.59,2.02,3.3,3.89,5.14,5.73,3.51,3.53,7.32,6.23,12.33,7.8,1.92,2.85,6.31,4.36,9.77,4.89,1.55.24,1.72.31,3.36.22.17,0,.4-.18.45-.3.41-1.02-3.01-2.68-3.88-3.13.33-.01.63,0,.96.03l.98.07,1.16.09.98.08.98.07,1.6.08,1.38.07,2.1.08Z"/>
      <g>
        <path class="cls-1" d="M65.17,73.21l-2.1-.08-1.38-.07-1.6-.08-.98-.07-.98-.08-1.16-.09-.98-.07c-.33-.02-.63-.04-.96-.03.87.46,4.29,2.11,3.88,3.13-.05.12-.29.29-.45.3-1.64.09-1.81.02-3.36-.22-3.46-.53-7.85-2.04-9.77-4.89-5.01-1.57-8.81-4.27-12.33-7.8-1.84-1.84-3.55-3.72-5.14-5.73-.48-.62-1.16-1.99-.79-2.54.1-.15.45-.29.69-.3l1.53-.05c-.83-.35-2.2-.31-2.64-1.03-.58-.96.93-2.07,1.73-2.83l4.38-4.18,1.71-1.52c1.65-1.47,3.42-2.75,5.34-3.95,2.48-1.56,5.15-2.68,8.06-3.46,2.3-.62,4.59-1.05,6.99-1.21l1.24-.09,1.08-.07,1.91-.06c.74-.02,1.47-.02,2.22,0l1.83.06,1.34.08,1.07.07,3.29.32,1.88.24,4.56.69c1.35.2,2.63.54,3.82,1.1s1.85,1.5,1.93,2.68c.09,1.47-.65,2.84-1.78,3.92-1.43,1.37-3.38,3.25-3.46,5.16-.03.64.25,1.22.75,1.53.61.37,1.21.35,1.9.14,1.21-.37,2.34-.79,3.54-1.24.46-.18,4.42-1.68,4.56-1.3.02.06.03.23,0,.29-1.29,2.35-1.89,4.85-2.06,7.45s.37,5.65,1.37,8.11c.06.15-.27.29-.44.28-2.55-.21-5.31-1.29-6.69-3.31-.28-.41-.55-.81-.92-1.17-.32-.32-1.01-.44-1.3-.07-.44.56-.37,1.27-.27,1.93.25,1.73,1.11,3.24,2.42,4.52.48.47.97.93,1.27,1.48.57,1.03.19,2.13-.93,2.66-.99.47-2.05.72-3.17.89s-2.12.3-3.22.37l-.9.06-.89.05-1.25.06c-1.45.07-2.87.09-4.35.04ZM78.77,69.99c.01-.65-.5-1.02-.78-1.61.75.62,1.31,1.76.49,2.53-1.43,1.33-5.27,1.59-7.28,1.66l-2.23.08c-.84.03-1.67.02-2.51,0l-3.29-.08-2.3-.09-2.25-.08-3.77-.05c1.09.18,2.08.25,3.12.32l1.07.07.98.07,1.16.08,1.56.07,2.33.08c1.5.05,2.97.03,4.48-.03l1.51-.07,1.34-.08.83-.07c1.71-.15,5.71-.53,6.57-1.99.37-.62.19-1.44-.27-2-.38-.46-.76-.84-1.18-1.26-1.29-1.29-2.1-2.89-2.31-4.62-.08-.61-.1-1.73.53-2.06.8-.41,1.55.34,1.96.96s.8,1.17,1.38,1.64c1.15.94,2.54,1.55,4.08,1.84-.46-.23-.92-.44-1.34-.7.32.03,3.32,1.56,2.96.64-.65-1.63-1.05-3.26-1.2-4.98l-.08-.91c-.07-.72-.07-1.42,0-2.14l.1-1.04c.23-2.27.88-4.4,2-6.51-.93-.03-2.44,1.03-2.82.82-1.7.49-3.96,1.6-5.72,1.88-1.14.18-2.07-.48-2.22-1.46-.27-1.83,1.36-3.6,2.63-4.9l1.46-1.49c1.09-1.12,1.08-2.6.21-3.91.63.49.61,1.22.79,1.94.34-1.14.1-2.45-.97-3.25-.9-.68-2-1.07-3.17-1.3-2.8-.55-5.58-.99-8.45-1.26l-2.6-.25-1.68-.1-1.25-.05-1.25-.06c-.89-.04-1.76-.03-2.63.01l-1.56.07-1.07.06c-4.72.25-10.34,1.5-14,3.55l5.78-1.67c2.82-.82,5.67-1.25,8.62-1.36l2.23-.08c.95-.03,1.9-.03,2.86,0l2.26.07.9.06,2.68.24c2.88.26,5.67.69,8.5,1.21.67.12,1.28.32,1.8.6l-1.68-.46c-1.07-.29-2.16-.42-3.27-.57l-3.39-.46-2.14-.24-2.85-.24c-.32-.03-.68-.06-.99-.06h-6.31c-.31,0-.68.04-.99.07l-2.32.24c-3.3.34-9.75,1.94-12.68,3.22-2.08.91-6.44,4.39-8.12,6.01l-4.37,4.2c-.69.67-2.1,1.76-1.89,2.52.28,1.04,2.68.78,3.13,1.49l-2.14.03c-1.13.01-.23,1.87.2,2.43,1.14,1.48,2.35,2.87,3.66,4.25,3.84.7,6.33,1.21,9.07-1.66,1-1.05,1.82-2.21,2.22-3.57.52-1.77,0-2.64-.46-4.33.41.74.63,1.56.75,2.42.16,1.16-.21,2.27-.76,3.32-.48.92-1.13,1.69-1.88,2.45-2.59,2.61-5.15,2.13-8.77,1.53,1.61,1.77,3.32,3.35,5.21,4.82,3.84,2.99,8.49,4.84,13.52,5.5,1.55.2,2.98.39,4.57.29.4-.03.84.05,1.23.06l2.73.06,2.4.08,2.31.08,6.9.02,1.43-.08.98-.07c.63-.04,1.23-.14,1.87-.23,1.25-.17,3.87-.73,3.89-2.13ZM57.28,74.07c-.98-.62-2.01-1.15-3.09-1.56l-3.73-.44c-1.64-.19-3.16-.54-4.81-.98.57.82,1.31,1.44,2.14,2,2.54,1.72,5.95,2.51,9.09,2.87.61.07,1.26.15,1.82-.16s-1.08-1.51-1.42-1.73Z"/>
        <path class="cls-1" d="M78.77,69.99c-.02,1.41-2.65,1.96-3.89,2.13-.63.09-1.23.19-1.87.23l-.98.07-1.43.08-6.9-.02-2.31-.08-2.4-.08-2.73-.06c-.39,0-.84-.08-1.23-.06-1.59.1-3.01-.09-4.57-.29-5.03-.66-9.68-2.51-13.52-5.5-1.89-1.47-3.59-3.06-5.21-4.82,3.63.6,6.19,1.09,8.77-1.53.75-.76,1.4-1.54,1.88-2.45.55-1.05.92-2.17.76-3.32-.12-.85-.34-1.68-.75-2.42.46,1.69.98,2.56.46,4.33-.4,1.35-1.22,2.52-2.22,3.57-2.74,2.87-5.23,2.36-9.07,1.66-1.31-1.38-2.52-2.76-3.66-4.25-.44-.56-1.33-2.42-.2-2.43l2.14-.03c-.45-.72-2.86-.45-3.13-1.49-.2-.76,1.2-1.85,1.89-2.52l4.37-4.2c1.68-1.61,6.04-5.1,8.12-6.01,2.93-1.29,9.38-2.88,12.68-3.22l2.32-.24c.31-.03.68-.07.99-.07h6.31c.31,0,.67.04.99.06l2.85.24,2.14.24,3.39.46c1.11.15,2.2.28,3.27.57l1.68.46c-.52-.29-1.13-.48-1.8-.6-2.82-.52-5.62-.95-8.5-1.21l-2.68-.24-.9-.06-2.26-.07c-.95-.03-1.91-.03-2.86,0l-2.23.08c-2.95.11-5.8.54-8.62,1.36l-5.78,1.67c3.66-2.04,9.27-3.29,14-3.55l1.07-.06,1.56-.07c.87-.04,1.74-.05,2.63-.01l1.25.06,1.25.05,1.68.1,2.6.25c2.86.27,5.65.71,8.45,1.26,1.18.23,2.27.63,3.17,1.3,1.06.8,1.3,2.11.97,3.25-.18-.72-.15-1.45-.79-1.94.86,1.31.88,2.8-.21,3.91l-1.46,1.49c-1.27,1.3-2.9,3.06-2.63,4.9.15.98,1.08,1.64,2.22,1.46,1.76-.28,4.02-1.39,5.72-1.88.39.22,1.89-.85,2.82-.82-1.12,2.11-1.77,4.24-2,6.51l-.1,1.04c-.07.72-.07,1.42,0,2.14l.08.91c.16,1.72.56,3.35,1.2,4.98.37.92-2.64-.61-2.96-.64.42.26.88.47,1.34.7-1.53-.29-2.92-.89-4.08-1.84-.58-.47-.98-1.04-1.38-1.64s-1.16-1.37-1.96-.96c-.63.33-.61,1.44-.53,2.06.21,1.73,1.03,3.32,2.31,4.62.42.42.81.81,1.18,1.26.46.55.64,1.37.27,2-.86,1.46-4.86,1.85-6.57,1.99l-.83.07-1.34.08-1.51.07c-1.51.07-2.98.08-4.48.03l-2.33-.08-1.56-.07-1.16-.08-.98-.07-1.07-.07c-1.04-.07-2.03-.14-3.12-.32l3.77.05,2.25.08,2.3.09,3.29.08c.85.02,1.67.03,2.51,0l2.23-.08c2.01-.07,5.85-.32,7.28-1.66.82-.77.26-1.91-.49-2.53.28.59.8.96.78,1.61ZM60.94,38.26c1.63-.09,3.17-.06,4.73,0l1.46.07,1.42.08,1.05.09c2.62.23,5.14.69,7.63,1.43.27.08.49.25.79.15-2.94-.95-5.98-1.55-9.12-1.74l-1.5-.09-1.37-.07c-1.83-.09-3.64-.11-5.49,0l-1.42.08-.98.07-2.41.23-5.87.71c-1.04.13-2.04.33-2.95.7,1.07-.23,2.05-.49,3.12-.63l3.12-.39,2.76-.31c.84-.09,1.65-.18,2.49-.23l1.08-.07,1.47-.08ZM78.07,57.83l.73.23-.61-.37-.11-1.13c1.23,0,2.49-.03,3.69.04.61.03,1.18.06,1.75,0-.49-.04-.96-.1-1.43-.11l-3.99-.03-.08-1.14c1.87-.89,3.83-1.2,5.94-1.45-2.05,0-4.05.54-5.94,1.31-.12-.37-.21-.72-.22-1.07,1.94-.57,3.83-1.09,5.54-2-1.88.69-3.66,1.44-5.6,1.89l-.25-.81c-2.3-.22-3.62-2.06-3.17-4.04s1.62-3.07,3.16-4.49c.87-.81,2.07-2.32.92-3.33-.37-.32-.82-.57-1.33-.72-2.69-.8-5.42-1.3-8.26-1.5l-1.24-.09-1.15-.07-1.56-.07c-1.01-.05-2.03-.05-3.06,0l-1.08.05-1.16.06-1.07.08-1.24.09-2.41.25-4.22.51c-1.26.15-2.71.44-3.83.96-2.29,1.06-2.03,3.33-1.96,5.37l.08,2.25.09,2.52.08,2c.1,2.56,1.67,4.38,3.69,6,1.66,1.33,3.1,2.77,4.43,4.38.9,1.08,1.74,2.1,2.75,3.11,1.75,1.76,3.84,3.16,6.31,3.99,1.86.62,3.73,1,5.7,1.1l1.6.08c.8.04,1.6.05,2.41,0,1.15-.07,2.27-.09,3.37-.48,2.05-.73.89-2.95.22-4.24-1.15-2.22-2.93-4.29-.25-6.2.71-.51,1.46-.74,2.44-.61.27-.9.41-1.42.31-2.34ZM46.44,40.15c-.55.14-1.14.46-1.5.95l1.5-.95ZM79.21,43.64c.62-.73.78-1.77.13-2.55.41.84.31,1.68-.13,2.55ZM44.29,54.73l-.21-1.89-.07-1.16-.09-2.46-.08-3.34c-.05-1.91-.17-3.12,1.02-4.72-1.41,1.09-1.15,3.58-1.11,4.97l.09,3.71.07,2.43.07.89c.04.55.14,1.09.31,1.57ZM77.02,46.14l.87-.85c.21-.21.41-.37.56-.63-.37.26-.65.54-.95.85-.4.4-.81.75-1.14,1.22.28-.15.44-.36.66-.58ZM75.38,51.75c-.7-1.78-.48-2.07.2-3.89-.71.87-1.08,2.86-.2,3.89ZM37.76,53.48c.9-1.03.47-2.79-.44-3.58-1.12-.97-2.87-1.19-4.14-.4,1.14-.42,2.25-.58,3.34,0,1.64.86,1.94,2.47,1.24,3.99ZM35.12,54.85c-1.08.02-1.95-.29-2.62-1-1.31-1.38-.9-3.03.41-4.19-1.3.77-1.62,2.29-1.04,3.5.55,1.13,1.86,1.91,3.32,1.79.97-.08,1.93-.44,2.38-1.25-.71.64-1.4,1.13-2.46,1.15ZM33.85,50.03c-1.05.35-1.62,1.32-1.46,2.3s1.03,1.76,2.13,1.92,2.19-.34,2.69-1.24.29-1.97-.59-2.59c-.69-.74-1.86-.91-2.77-.39ZM76.5,52.62c.89.49,2.04.27,2.91-.11,1.35-.59,2.65-1.14,3.95-1.8-1.23.39-2.26,1-3.44,1.47-.71.32-1.46.64-2.27.64-.38,0-.79-.18-1.15-.2ZM45.9,57.5l-1.23-1.8c.23.7.7,1.34,1.23,1.8ZM83.22,59.25c-1.43-.23-2.62-.53-3.9-.93,1.2.59,2.59.9,3.9.93ZM47.53,58.91l-.09.08,2.09,1.87.09-.08-2.09-1.87ZM75.28,61.76c.06,2.18.67,4.35,2.17,6.01-1.07-1.6-1.85-3.24-2.01-5.11-.05-.55.05-1.09.28-1.59,1-.88,1.68-.73,2.65-.16-.41-.57-1.09-.6-1.76-.49-.58.1-.86.53-1.25.97-.55.61-.98,1.32-.74,2.16.21.72.52,1.46.96,2.05-.49-1.33-1.6-2.62-.3-3.84ZM53.7,65.46l-2.71-3.23c-.39-.46-.76-.89-1.25-1.19l1.16,1.28,2.72,3.25s.16.11.19.13c.02.01.05-.09.03-.11s-.13-.09-.15-.12ZM63.55,71.42c-2.03-.39-3.75-1.18-5.51-2.16,3.52,2.68,10.36,3.12,14.74,2.92,1.06-.05,2.08-.17,3.07-.43,1.29-.34,1.98-1.37,1.57-2.56s-1-2.24-1.66-3.23c.58,1.57,1.87,2.76,1.56,4.42-.25,1.35-2.82,1.59-4.06,1.66l-1.25.07c-.77.04-1.55.04-2.31,0l-1.25-.07c-1.88-.1-3.07-.27-4.9-.62Z"/>
        <path class="cls-2" d="M37.36,51.99c0-1.2-1.09-2.18-2.44-2.18s-2.44.98-2.44,2.18,1.09,2.18,2.44,2.18,2.44-.98,2.44-2.18ZM34.46,50.29c-.75.18-1.2.63-1.42,1.21-.24.64.05,1.19.52,1.8-.59-.35-.84-1.08-.68-1.72.15-.6.61-1.1,1.34-1.34,1.14-.38,2.35.2,2.69,1.22s-.33,2.13-1.56,2.32c-.67.1-1.42.03-1.79-.49.73.42,1.52.61,2.29.22.66-.33,1.13-1.01,1-1.8-.17-.98-1.33-1.69-2.38-1.43ZM34.3,51.9c.15-.02.4-.23.41-.37.01-.17-.13-.37-.29-.54.46-.21,1.08-.08,1.41.27.37.38.43.97.08,1.36-.43.47-1.01.59-1.56.35s-.73-.82-.58-1.31c.17.15.37.27.54.24Z"/>
        <path class="cls-1" d="M57.28,74.07c.34.22,1.97,1.42,1.42,1.73s-1.21.23-1.82.16c-3.15-.36-6.55-1.15-9.09-2.87-.83-.56-1.58-1.18-2.14-2,1.66.44,3.17.78,4.81.98l3.73.44c1.09.42,2.11.95,3.09,1.56Z"/>
        <path class="cls-3" d="M60.94,38.26l-1.47.08-1.08.07c-.84.05-1.65.14-2.49.23l-2.76.31-3.12.39c-1.08.13-2.05.39-3.12.63.92-.37,1.91-.57,2.95-.7l5.87-.71,2.41-.23.98-.07,1.42-.08c1.85-.1,3.66-.08,5.49,0l1.37.07,1.5.09c3.14.19,6.19.79,9.12,1.74-.29.1-.52-.07-.79-.15-2.49-.73-5.02-1.2-7.63-1.43l-1.05-.09-1.42-.08-1.46-.07c-1.56-.07-3.1-.09-4.73,0Z"/>
        <path class="cls-3" d="M63.55,71.42c1.83.35,3.03.52,4.9.62l1.25.07c.77.04,1.55.04,2.31,0l1.25-.07c1.23-.07,3.8-.31,4.06-1.66.31-1.66-.98-2.84-1.56-4.42.66.99,1.26,2.09,1.66,3.23s-.29,2.22-1.57,2.56c-.99.26-2.01.38-3.07.43-4.39.21-11.23-.23-14.74-2.92,1.76.98,3.49,1.77,5.51,2.16Z"/>
        <path class="cls-3" d="M44.29,54.73c-.16-.48-.26-1.02-.31-1.57l-.07-.89-.07-2.43-.09-3.71c-.03-1.39-.3-3.87,1.11-4.97-1.19,1.6-1.07,2.81-1.02,4.72l.08,3.34.09,2.46.07,1.16.21,1.89Z"/>
        <path class="cls-3" d="M75.28,61.76c-1.3,1.22-.19,2.51.3,3.84-.44-.59-.75-1.33-.96-2.05-.24-.84.18-1.55.74-2.16.39-.44.67-.87,1.25-.97.66-.11,1.35-.08,1.76.49-.97-.58-1.65-.72-2.65.16-.23.5-.33,1.04-.28,1.59.16,1.87.94,3.5,2.01,5.11-1.5-1.67-2.11-3.83-2.17-6.01Z"/>
        <path class="cls-2" d="M35.12,54.85c1.05-.02,1.75-.51,2.46-1.15-.46.81-1.41,1.17-2.38,1.25-1.46.12-2.77-.66-3.32-1.79-.59-1.21-.26-2.73,1.04-3.5-1.31,1.16-1.72,2.81-.41,4.19.67.71,1.54,1.02,2.62,1Z"/>
        <path class="cls-2" d="M37.76,53.48c.7-1.52.39-3.13-1.24-3.99-1.09-.57-2.2-.42-3.34,0,1.26-.79,3.02-.57,4.14.4.91.79,1.35,2.55.44,3.58Z"/>
        <path class="cls-3" d="M76.5,52.62c.36.02.77.2,1.15.2.81,0,1.56-.32,2.27-.64,1.18-.47,2.21-1.07,3.44-1.47-1.29.67-2.6,1.21-3.95,1.8-.87.38-2.02.6-2.91.11Z"/>
        <path class="cls-3" d="M75.38,51.75c-.88-1.03-.52-3.03.2-3.89-.67,1.83-.9,2.12-.2,3.89Z"/>
        <path class="cls-3" d="M53.7,65.46s.13.1.15.12-.01.13-.03.11c-.03-.02-.16-.1-.19-.13l-2.72-3.25-1.16-1.28c.49.31.86.73,1.25,1.19l2.71,3.23Z"/>
        <path class="cls-3" d="M77.02,46.14c-.23.22-.39.43-.66.58.33-.47.74-.82,1.14-1.22.3-.3.57-.58.95-.85-.15.26-.35.43-.56.63l-.87.85Z"/>
        <polygon class="cls-3" points="47.53 58.91 49.63 60.78 49.54 60.86 47.44 58.99 47.53 58.91"/>
        <path class="cls-3" d="M79.21,43.64c.44-.87.54-1.71.13-2.55.65.78.5,1.82-.13,2.55Z"/>
        <path class="cls-3" d="M45.9,57.5c-.53-.46-1-1.09-1.23-1.8l1.23,1.8Z"/>
        <path class="cls-3" d="M46.44,40.15l-1.5.95c.36-.49.95-.81,1.5-.95Z"/>
        <path class="cls-3" d="M78.07,57.83c.1.91-.05,1.44-.31,2.34-.99-.13-1.73.1-2.44.61-2.68,1.91-.9,3.98.25,6.2.66,1.28,1.82,3.51-.22,4.24-1.09.39-2.21.42-3.37.48-.81.05-1.61.04-2.41,0l-1.6-.08c-1.97-.1-3.85-.47-5.7-1.1-2.48-.83-4.56-2.23-6.31-3.99-1-1-1.85-2.03-2.75-3.11-1.33-1.6-2.77-3.04-4.43-4.38-2.02-1.62-3.59-3.44-3.69-6l-.08-2-.09-2.52-.08-2.25c-.07-2.04-.33-4.32,1.96-5.37,1.13-.52,2.57-.8,3.83-.96l4.22-.51,2.41-.25,1.24-.09,1.07-.08,1.16-.06,1.08-.05c1.03-.05,2.05-.04,3.06,0l1.56.07,1.15.07,1.24.09c2.84.2,5.57.7,8.26,1.5.51.15.97.4,1.33.72,1.15,1.02-.05,2.53-.92,3.33-1.54,1.43-2.68,2.42-3.16,4.49s.87,3.81,3.17,4.04l.25.81c1.94-.46,3.72-1.2,5.6-1.89-1.71.91-3.6,1.43-5.54,2,.02.35.1.7.22,1.07,1.89-.77,3.89-1.31,5.94-1.31-2.11.24-4.07.56-5.94,1.45l.08,1.14,3.99.03c.46,0,.94.07,1.43.11-.57.05-1.13.03-1.75,0-1.21-.07-2.46-.03-3.69-.04l.11,1.13.61.37-.73-.23ZM72.52,71.54c1.3-.07,3.78-.24,3.84-1.75.03-.94-.45-1.83-.9-2.69l-1.27-2.38c-.4-.75-.58-1.62-.29-2.43.53-1.45,2.08-2.38,3.77-2.32.57-2.14.35-4.57-.3-6.64-1.87-.16-3.16-1.5-3.27-3.13-.07-1.04.29-2.02.83-2.94s1.29-1.63,2.09-2.34c.71-.63,2.07-2.04,1.61-2.97-.29-.6-.94-.95-1.63-1.16-2.55-.79-5.15-1.26-7.85-1.47l-1.14-.09-1.42-.08-1.52-.07c-1.25-.06-2.49-.06-3.73,0l-1.35.07-1.42.08c-.32.02-.66.04-.97.07l-2.14.22-2.76.31c-1,.11-1.96.23-2.93.4-1.77.3-4.07.81-4.57,2.6-.36,1.29-.25,2.34-.2,3.64l.09,2.68.07,2.66.07.97c.12,1.71.58,3.1,1.79,4.43.68.75,1.46,1.37,2.23,2.05l1.69,1.51c1.7,1.51,3.34,3.88,5.13,5.67,1.46,1.47,3.13,2.66,5.12,3.52,3.25,1.41,7.76,1.77,11.32,1.59Z"/>
        <path class="cls-3" d="M83.22,59.25c-1.31-.04-2.7-.34-3.9-.93,1.28.41,2.48.7,3.9.93Z"/>
        <ellipse class="cls-2" cx="34.91" cy="52.02" rx="2.48" ry="2.21"/>
        <path class="cls-2" d="M36.62,50.42c-.74-.64-1.85-.8-2.77-.39.92-.51,2.08-.35,2.77.39Z"/>
        <path class="cls-3" d="M72.52,71.54c-3.56.18-8.07-.18-11.32-1.59-1.99-.86-3.66-2.06-5.12-3.52-1.79-1.79-3.43-4.15-5.13-5.67l-1.69-1.51c-.77-.68-1.54-1.3-2.23-2.05-1.22-1.33-1.68-2.72-1.79-4.43l-.07-.97-.07-2.66-.09-2.68c-.05-1.31-.16-2.35.2-3.64.5-1.78,2.8-2.3,4.57-2.6.98-.17,1.94-.29,2.93-.4l2.76-.31,2.14-.22c.31-.03.66-.06.97-.07l1.42-.08,1.35-.07c1.24-.06,2.48-.06,3.73,0l1.52.07,1.42.08,1.14.09c2.7.21,5.3.69,7.85,1.47.69.21,1.34.56,1.63,1.16.45.93-.9,2.34-1.61,2.97-.81.72-1.57,1.44-2.09,2.34s-.9,1.9-.83,2.94c.11,1.63,1.41,2.97,3.27,3.13.65,2.07.87,4.49.3,6.64-1.69-.05-3.24.87-3.77,2.32-.29.81-.11,1.68.29,2.43l1.27,2.38c.45.86.93,1.75.9,2.69-.05,1.52-2.54,1.69-3.84,1.75Z"/>
        <path class="cls-2" d="M36.84,51.72c-.17-.98-1.33-1.69-2.38-1.43-.75.18-1.2.63-1.42,1.21-.24.64.05,1.19.52,1.8-.59-.35-.84-1.08-.68-1.72.15-.6.61-1.1,1.34-1.34,1.14-.38,2.35.2,2.69,1.22s-.33,2.13-1.56,2.32c-.67.1-1.42.03-1.79-.49.73.42,1.52.61,2.29.22.66-.33,1.13-1.01,1-1.8Z"/>
        <path class="cls-2" d="M33.76,51.65c.17.15.37.27.54.24.15-.02.4-.23.41-.37.01-.17-.13-.37-.29-.54.46-.21,1.08-.08,1.41.27.37.38.43.97.08,1.36-.43.47-1.01.59-1.56.35s-.73-.82-.58-1.31ZM35.96,52.17c.06-.38-.05-.7-.31-.91-.21-.17-.63-.29-.9-.2.06.25.13.58-.06.77-.2.2-.56.19-.86.07-.02.55.37.98.93,1.04s1.1-.18,1.2-.76Z"/>
        <path class="cls-1" d="M35.96,52.17c-.1.58-.66.82-1.2.76s-.96-.49-.93-1.04c.3.12.65.13.86-.07.19-.19.12-.52.06-.77.27-.09.69.03.9.2.26.21.38.54.31.91Z"/>
      </g>
    </g>
  </g>
</svg>