<?xml version="1.0" encoding="UTF-8"?>
<svg id="Layer_1" data-name="Layer 1" xmlns="http://www.w3.org/2000/svg" viewBox="0 0 105.17 86.05">
  <defs>
    <style>
      .cls-1 {
        fill: #92ff7a;
      }

      .cls-2 {
        fill: #0068ff;
      }

      .cls-3 {
        fill: #fff;
      }

      .cls-4 {
        fill: #000eff;
      }
    </style>
  </defs>
  <path d="M24.76,47.91c.31,1.13-.29,2.79-.46,4.13-.14,1.14.14,2.22.79,3.03.6.75,1.28,1.34,2.03,1.88,3.78,2.76,8.39,4.22,12.73,4.68,2.48.26,4.92.24,7.37-.2.9-.16,1.73-.37,2.61-.69,4.35.6,8.74-.31,12.7-2.65,1.81-1.07,3.17-2.39,4.61-4.11.94-1.12,1.76-2.32,2.5-3.66.59-1.07.93-2.25,1.07-3.53.39-.02.61-.39.7-.83.11-.48-.04-.92-.44-1.05-.45-.18-.89-.39-1.28-.72-.32-.26-.38-.72-.18-1.15.31-.68.93-1.1,1.57-1.1.26,0,.49-.01.72-.1.27-.1.44-.43.4-.81-.06-.69-.17-1.36-.3-2.03-.09-.47-.29-.84-.43-1.28-.72-2.25-1.76-4.24-3.16-5.9-.65-.78-1.31-1.48-2.04-2.15-3.16-2.94-6.72-5.12-10.52-6.39-2.07-.7-4.16-1.15-6.29-1.32-.86-.07-1.66-.14-2.53-.15-2.9-.02-5.77.21-8.65.67-4.04.65-8.1,2.59-11.06,6.2l-1.04,1.27c-.77.94-1.54,1.82-2.4,2.62-.41.38-.78.76-1.13,1.21-.25.31-.27.77-.02,1.09.55.7,1.91,1.1,2.69,1.26l1.05.21-.41.34c-.87-.11-1.71-.25-2.57-.47l-1.5-.38c-2.72-.69-5.35-1.66-7.94-2.93-.4-.2-.79-.31-1.2-.32-.33,0-.57.29-.56.68.01.35.08.69.18,1.02l.61,2.1c.89,3.09.92,6.3.41,9.49l-.42,2.65c-.07.41-.06.84,0,1.24.07.45.38.71.74.63.46-.1.89-.35,1.28-.68.75-.64,1.5-1.21,2.31-1.74,1.16-.76,2.31-1.43,3.53-2.02l1.38-.67c.3.38.56.73.89,1.05l1.64,1.58Z"/>
  <g>
    <path class="cls-4" d="M24.76,47.91l-1.64-1.58c-.33-.32-.59-.68-.89-1.05l-1.38.67c-1.22.59-2.37,1.27-3.53,2.02-.81.53-1.55,1.1-2.31,1.74-.39.33-.82.59-1.28.68-.36.08-.67-.18-.74-.63-.06-.4-.06-.83,0-1.24l.42-2.65c.51-3.2.48-6.41-.41-9.49l-.61-2.1c-.1-.33-.17-.67-.18-1.02-.01-.4.23-.69.56-.68.4,0,.8.12,1.2.32,2.59,1.27,5.22,2.24,7.94,2.93l1.5.38c.85.22,1.7.36,2.57.47l.41-.34-1.05-.21c-.77-.15-2.14-.55-2.69-1.26-.25-.32-.23-.78.02-1.09.35-.45.72-.83,1.13-1.21.86-.8,1.63-1.68,2.4-2.62l1.04-1.27c2.96-3.61,7.02-5.55,11.06-6.2,2.88-.46,5.75-.69,8.65-.67.87,0,1.67.08,2.53.15,2.13.17,4.22.62,6.29,1.32,3.79,1.28,7.35,3.46,10.52,6.39.73.68,1.39,1.38,2.04,2.15,1.4,1.66,2.44,3.64,3.16,5.9.14.44.34.81.43,1.28.13.67.24,1.34.3,2.03.03.38-.13.71-.4.81-.24.09-.47.1-.72.1-.64,0-1.26.42-1.57,1.1-.2.43-.14.88.18,1.15.39.33.84.54,1.28.72.4.13.54.57.44,1.05-.1.44-.32.81-.7.83-.14,1.29-.49,2.46-1.07,3.53-.74,1.34-1.56,2.54-2.5,3.66-1.44,1.73-2.8,3.05-4.61,4.11-3.96,2.34-8.36,3.25-12.7,2.65-.88.32-1.71.53-2.61.69-2.45.44-4.89.46-7.37.2-4.34-.45-8.95-1.92-12.73-4.68-.74-.54-1.43-1.13-2.03-1.88-.65-.81-.93-1.89-.79-3.03.17-1.35.77-3.01.46-4.13ZM64.66,32.81c.66-.11,1.25.18,1.66.73s.62,1.31.5,2.1c-.24,1.53-1.51,2.35-2.64,1.75-.64-.34-1.21-.8-1.78-1.32-1.11-1.03-4.61-4.69-5.73-2.41-.16.32-.25.71-.3,1.1-.15,1.1-.34,2.16-.71,3.18-.84,2.34-2.31,4.03-4.19,4.96-1.65.82-3.39,1.01-5.15.89-1.19-.09-2.32-.24-3.52-.42-2.44-.37-4.85-.61-7.31-.53-1.57.05-3.08.16-4.63.38s-3.08.42-4.61.85l-2.51.7c-.45.13-.85.27-1.3.45.37.51.7.89,1.11,1.29,1.14,1.12,2.31,2.17,3.54,3.15,4.43,3.54,9.17,6.38,14.15,8.44,2.99,1.24,6.24,2.23,9.38,2.55,4.17.43,8.35-.59,12.11-2.87.71-.43,1.36-.91,2-1.49,1.84-1.67,3.61-3.84,4.88-6.23.53-1.01.85-2.14.96-3.34-.5-.67-1.05-1.22-1.7-1.63l-.9-.57c-.06-.04-.12-.2-.08-.29.35-.91.76-1.74,1.38-2.38.53-.55,1.21-.78,1.87-.92.37-.08.61-.37.64-.86s-.07-.91-.19-1.37c-.6-2.35-1.59-4.45-2.96-6.21-.79-1.01-1.61-1.91-2.52-2.74-4.23-3.88-8.96-6.3-14.13-7.26-3.56-.66-6.85-.57-10.42-.22-3.66.36-6.8.87-10.13,2.98-1.82,1.15-3.41,2.7-4.85,4.53-.88,1.12-1.77,2.15-2.78,3.07-.38.35-.72.72-1.05,1.14-.5.65.63,1.29,1.02,1.45.93.39,1.89.59,2.87.72l.43-.27c-.69-.13-3.41-.65-3.46-1.71,0-.14.08-.35.18-.45l.71-.64c.96-.87,1.83-1.83,2.72-2.81.7-.77,1.35-1.54,2.09-2.25,1.75-1.67,3.7-2.85,5.79-3.64.99-.37,1.95-.61,2.97-.82,3.07-.64,6.16-.92,9.28-.84,2.26.05,4.46.43,6.65,1.08.93.28,1.83.57,2.74.93.04.01.09.11.09.15s-.1.07-.14.07c-1.72-.41-3.88-.72-5.63-.74-3.97-.04-7.4,1.17-10.92,3.45l-8.18,5.29-4.73,3.07-.93.64c1.23.02,3.2-.76,4.29-1.42l4.97-2.99,6.69-4.09c1.95-1.19,3.99-2.07,6.11-2.61,4.26-1.09,8.75-.53,12.47,2.43,1.46,1.16,3.01,2.87,3.82,4.85ZM27.35,35.7l8.54-5.55,3.72-2.39c3.45-2.22,6.23-3.47,10.15-3.72,1.86-.13,3.67.08,5.53.38-1.3-.47-2.6-.81-3.95-1.07-4.3-.85-9.58-.42-13.86.55-3.59.81-6.52,2.5-9.26,5.53l-2,2.21c-.74.82-1.5,1.53-2.31,2.24-.06.05-.16.22-.14.3s.07.18.11.29c.8.75,2.43,1.13,3.46,1.25ZM40.61,42.86l3.97.55c1.07.15,2.09.21,3.16.19,1.4-.04,2.77-.38,4.04-1.09,2.2-1.23,3.74-3.65,4.24-6.64.1-.61.18-1.2.31-1.8.2-.93.84-1.45,1.6-1.35,1.3.17,2.64,1.42,3.68,2.37l1.68,1.52c.07,0,.06-.01.03-.09-.43-.84-.4-1.9.06-2.69.28-.48.64-.8,1.11-.96-1.15-2.65-3.39-4.71-5.5-5.91-3.53-2-7.57-2.13-11.3-1.01-2,.6-3.89,1.5-5.73,2.62l-2.15,1.3-5.68,3.51-3.84,2.26c-1.38.81-3.71,1.53-5.26,1.13l1.99.95c.83.39,1.63.78,2.43,1.27.39.24.74.53,1.02.94s.23.96-.09,1.29c-.3.31-.61.55-.97.75-.91.51-1.82.9-2.76,1.34l-2.13.99c4.84-1.36,11.18-2.1,16.1-1.42ZM21.36,45.48l5.69-2.6,1.98-.96c.35-.17,1.43-.8,1.45-1.34.01-.31-.13-.6-.32-.79-.4-.4-.82-.7-1.3-.95-1.27-.67-2.53-1.27-3.82-1.85-.3-.14-.58-.32-.89-.4l-3.01-.77c-2.5-.64-4.9-1.61-7.28-2.77-.3-.15-1.14-.46-1.37-.13-.22.31,0,1.1.12,1.49.36,1.17.7,2.31.94,3.54.57,2.94.43,5.44-.03,8.37l-.37,2.34c-.05.33-.04.7,0,1.02.05.4.31.59.63.5.34-.1.7-.29,1-.54.8-.66,1.57-1.27,2.42-1.83,1.35-.89,2.69-1.67,4.15-2.34ZM66.68,35.19c0-1.23-.78-2.22-1.74-2.22s-1.74.99-1.74,2.22.78,2.22,1.74,2.22,1.74-.99,1.74-2.22ZM71.24,45.38c-.07-.2-.29-.29-.44-.34-.78-.27-1.53-.53-2.29-.98.33-.77.79-1.35,1.31-1.84.81-.76,1.28-.34,1.93-.57.48-.17.28-.95.2-1.46-.31,1.61-1.82.3-3.19,2.6-.29.48-.55.96-.71,1.53,1.29.82,1.52.92,2.54,2.11.13.15.32.2.46.02.19-.26.34-.69.2-1.07ZM49.35,60.71c-.28-.06-.56-.18-.83-.16l-1.15.12c-3.58.37-8.49-.13-12.06-1.09-2.33-.62-4.57-1.48-6.73-2.73-.83-.48-1.59-1-2.31-1.68-.89-.84-1.3-1.86-1.09-3.29.18-1.21.43-2.6-.15-3.69-.01.45,0,.9-.09,1.35l-.4,2.03c-.29,1.5,0,2.64.91,3.65.62.69,1.28,1.23,2,1.74,2.46,1.73,5.1,2.87,7.85,3.62,4.4,1.19,9.68,1.47,14.04.13ZM41.98,60.48c1.97.13,3.89.14,5.86-.08l-2.17-.55c-4.85-1.22-12.91-5.45-17.1-8.82l-3.2-2.57c.19.69.26,1.39.16,2.11l-.21,1.56c-.19,1.42.47,2.42,1.34,3.16.83.7,1.69,1.24,2.61,1.74,3.92,2.1,8.46,3.18,12.7,3.46Z"/>
    <path class="cls-4" d="M64.66,32.81c-.81-1.98-2.36-3.69-3.82-4.85-3.72-2.96-8.21-3.52-12.47-2.43-2.12.54-4.16,1.42-6.11,2.61l-6.69,4.09-4.97,2.99c-1.09.66-3.07,1.44-4.29,1.42l.93-.64,4.73-3.07,8.18-5.29c3.52-2.28,6.95-3.49,10.92-3.45,1.75.02,3.92.32,5.63.74.04,0,.14-.02.14-.07s-.05-.13-.09-.15c-.91-.36-1.8-.65-2.74-.93-2.2-.65-4.39-1.03-6.65-1.08-3.11-.07-6.21.2-9.28.84-1.02.21-1.98.45-2.97.82-2.09.79-4.05,1.97-5.79,3.64-.74.71-1.39,1.47-2.09,2.25-.89.98-1.76,1.94-2.72,2.81l-.71.64c-.1.09-.19.3-.18.45.05,1.06,2.77,1.58,3.46,1.71l-.43.27c-.98-.13-1.94-.33-2.87-.72-.39-.16-1.52-.8-1.02-1.45.32-.42.66-.8,1.05-1.14,1.01-.91,1.9-1.94,2.78-3.07,1.43-1.83,3.03-3.37,4.85-4.53,3.33-2.11,6.47-2.63,10.13-2.98,3.57-.35,6.86-.44,10.42.22,5.17.96,9.9,3.38,14.13,7.26.91.84,1.74,1.73,2.52,2.74,1.37,1.76,2.36,3.85,2.96,6.21.12.46.22.9.19,1.37s-.27.78-.64.86c-.67.14-1.34.37-1.87.92-.62.64-1.03,1.47-1.38,2.38-.03.09.02.25.08.29l.9.57c.65.41,1.2.96,1.7,1.63-.12,1.2-.43,2.33-.96,3.34-1.27,2.39-3.04,4.56-4.88,6.23-.64.58-1.29,1.06-2,1.49-3.76,2.28-7.94,3.31-12.11,2.87-3.14-.33-6.39-1.32-9.38-2.55-4.98-2.06-9.72-4.9-14.15-8.44-1.23-.98-2.4-2.03-3.54-3.15-.41-.4-.74-.78-1.11-1.29.44-.18.85-.33,1.3-.45l2.51-.7c1.53-.43,3.05-.63,4.61-.85s3.06-.33,4.63-.38c2.46-.07,4.87.16,7.31.53,1.19.18,2.32.34,3.52.42,1.76.13,3.5-.07,5.15-.89,1.88-.93,3.35-2.62,4.19-4.96.37-1.02.56-2.08.71-3.18.05-.39.14-.78.3-1.1,1.13-2.28,4.62,1.38,5.73,2.41.57.53,1.14.98,1.78,1.32,1.13.6,2.4-.22,2.64-1.75.12-.79-.08-1.54-.5-2.1s-1-.84-1.66-.73ZM62.65,42.66c.06-.1,0-.31-.05-.4l-.87-1.72c-.93-.3-3.01-1.02-3.86-.84-.52.11-.85.67-.78,1.34.27,2.24,1.39,4.86,3.3,5.13l2.25-3.51Z"/>
    <path d="M25.02,36.75c1.55.39,3.88-.32,5.26-1.13l3.84-2.26,5.68-3.51,2.15-1.3c1.85-1.11,3.74-2.02,5.73-2.62,3.73-1.13,7.77-.99,11.3,1.01,2.11,1.2,4.35,3.26,5.5,5.91-.47.17-.83.48-1.11.96-.46.79-.49,1.86-.06,2.69.03.08.04.09-.03.09l-1.68-1.52c-1.04-.95-2.38-2.2-3.68-2.37-.75-.1-1.4.43-1.6,1.35-.13.6-.21,1.19-.31,1.8-.5,2.98-2.04,5.4-4.24,6.64-1.27.71-2.64,1.06-4.04,1.09-1.08.03-2.09-.04-3.16-.19l-3.97-.55c-4.92-.68-11.26.06-16.1,1.42M51.79,39.85c.5-.42.91-.95,1.23-1.58.37-.72.53-1.51.55-2.37.03-1.57-.64-2.93-1.76-3.59-.68-.4-1.39-.6-2.16-.67-2.36-.2-5.09.35-7.15,1.89-.53.4-.97.88-1.34,1.49-.8,1.36-.7,3.22.24,4.42s2.64,1.76,4,1.96c2.16.31,4.54,0,6.38-1.56Z"/>
    <path class="cls-2" d="M27.35,35.7c-1.02-.12-2.66-.5-3.46-1.25-.04-.1-.09-.21-.11-.29s.07-.24.14-.3c.81-.7,1.57-1.42,2.31-2.24l2-2.21c2.74-3.03,5.67-4.72,9.26-5.53,4.28-.97,9.56-1.4,13.86-.55,1.35.27,2.65.61,3.95,1.07-1.86-.31-3.67-.51-5.53-.38-3.92.25-6.7,1.5-10.15,3.72l-3.72,2.39-8.54,5.55Z"/>
    <path class="cls-2" d="M41.98,60.48c-4.24-.27-8.79-1.36-12.7-3.46-.92-.49-1.79-1.04-2.61-1.74-.87-.74-1.53-1.74-1.34-3.16l.21-1.56c.1-.72.02-1.42-.16-2.11l3.2,2.57c4.19,3.37,12.25,7.6,17.1,8.82l2.17.55c-1.97.21-3.89.2-5.86.08Z"/>
    <path class="cls-4" d="M49.35,60.71c-4.36,1.34-9.64,1.07-14.04-.13-2.76-.75-5.4-1.89-7.85-3.62-.72-.51-1.38-1.06-2-1.74-.92-1.01-1.21-2.15-.91-3.65l.4-2.03c.09-.45.08-.9.09-1.35.58,1.09.33,2.48.15,3.69-.21,1.42.2,2.44,1.09,3.29.72.69,1.48,1.21,2.31,1.68,2.16,1.25,4.4,2.11,6.73,2.73,3.57.95,8.48,1.46,12.06,1.09l1.15-.12c.27-.03.55.1.83.16Z"/>
    <path class="cls-3" d="M71.24,45.38c.14.38,0,.81-.2,1.07-.13.18-.33.12-.46-.02-1.02-1.19-1.25-1.29-2.54-2.11.16-.57.43-1.05.71-1.53,1.37-2.29,2.89-.98,3.19-2.6.08.51.28,1.29-.2,1.46-.65.23-1.12-.19-1.93.57-.53.49-.98,1.07-1.31,1.84.76.45,1.52.71,2.29.98.15.05.37.14.44.34Z"/>
    <path class="cls-2" d="M62.65,42.66l-2.25,3.51c-1.91-.27-3.03-2.89-3.3-5.13-.08-.66.26-1.23.78-1.34.85-.18,2.93.54,3.86.84l.87,1.72c.04.09.11.3.05.4ZM62.53,42.53l-.9-1.82c-.98-.3-2.69-.91-3.64-.82-.23.02-.46.19-.57.37-.15.24-.18.53-.14.83.26,2.04,1.26,4.46,3.04,4.88l2.21-3.44Z"/>
    <path d="M51.79,39.85c-1.85,1.55-4.22,1.86-6.38,1.56-1.36-.19-3.01-.7-4-1.96s-1.05-3.06-.24-4.42c.36-.62.81-1.1,1.34-1.49,2.06-1.54,4.79-2.09,7.15-1.89.77.07,1.48.26,2.16.67,1.12.67,1.79,2.02,1.76,3.59-.01.86-.17,1.65-.55,2.37-.33.63-.73,1.15-1.23,1.58ZM50.19,40.63c.86-.39,1.63-.93,2.26-1.76.7-.93,1.04-2.15.94-3.42s-.61-2.23-1.44-2.81c-.63-.44-1.3-.68-2.04-.77-1.82-.21-3.65.06-5.4.74-.71.28-1.34.66-1.97,1.13-.5.38-.92.84-1.26,1.43-.68,1.17-.67,2.73.06,3.86.59.92,1.5,1.45,2.39,1.76,2.07.7,4.44.75,6.46-.16Z"/>
    <path class="cls-2" d="M62.53,42.53l-2.21,3.44c-1.78-.41-2.78-2.84-3.04-4.88-.04-.3-.01-.59.14-.83.11-.18.34-.35.57-.37.95-.09,2.66.52,3.64.82l.9,1.82Z"/>
    <path class="cls-2" d="M50.19,40.63c-2.03.91-4.4.86-6.46.16-.89-.3-1.8-.84-2.39-1.76-.73-1.13-.74-2.69-.06-3.86.34-.59.76-1.05,1.26-1.43.62-.48,1.26-.86,1.97-1.13,1.74-.68,3.58-.95,5.4-.74.74.09,1.41.33,2.04.77.84.58,1.34,1.6,1.44,2.81.1,1.27-.24,2.49-.94,3.42-.62.83-1.4,1.37-2.26,1.76Z"/>
    <g>
      <path class="cls-3" d="M66.68,35.19c0,1.23-.78,2.22-1.74,2.22s-1.74-.99-1.74-2.22.78-2.22,1.74-2.22,1.74.99,1.74,2.22ZM66.48,35.19c0-1.09-.69-1.97-1.55-1.97s-1.55.88-1.55,1.97.69,1.97,1.55,1.97,1.55-.88,1.55-1.97Z"/>
      <path class="cls-3" d="M66.48,35.19c0,1.09-.69,1.97-1.55,1.97s-1.55-.88-1.55-1.97.69-1.97,1.55-1.97,1.55.88,1.55,1.97ZM66.34,35.19c0-.99-.63-1.78-1.4-1.78s-1.4.8-1.4,1.78.63,1.78,1.4,1.78,1.4-.8,1.4-1.78Z"/>
      <path class="cls-3" d="M66.34,35.19c0,.99-.63,1.78-1.4,1.78s-1.4-.8-1.4-1.78.63-1.78,1.4-1.78,1.4.8,1.4,1.78ZM65.81,34.75c-.14.17-.28.25-.42.18-.11-.06-.22-.21-.24-.37s.08-.32.19-.47c-.36-.2-.79-.11-1.08.24-.4.48-.39,1.3.02,1.75.35.38.82.42,1.19.1s.52-.9.34-1.42Z"/>
      <path d="M65.81,34.75c.18.53.02,1.12-.34,1.42s-.84.28-1.19-.1c-.41-.45-.42-1.27-.02-1.75.29-.35.72-.44,1.08-.24-.11.15-.2.3-.19.47s.12.32.24.37c.14.07.29,0,.42-.18Z"/>
    </g>
    <g>
      <path d="M23.69,43.71c.89-.37,1.98-.93,2.5-1.87.46-.83.43-1.9-.06-2.69-.63-1.02-1.71-1.6-2.68-1.93l-3.23-1.12-5.39-2.06c-.43-.16-1.16-.45-1.47-.07-.29.35-.1,1.18.02,1.64.25.94.5,1.86.66,2.83.51,2.95.28,5.47-.21,8.38-.08.5-.22,1.46.11,1.76.39.35,1.13-.25,1.55-.53,2.64-1.74,5.35-3.16,8.2-4.34Z"/>
      <path d="M23.69,43.71c-2.85,1.18-5.56,2.6-8.2,4.34-.42.28-1.16.88-1.55.53-.33-.3-.2-1.26-.11-1.76.5-2.91.72-5.43.21-8.38-.17-.98-.41-1.89-.66-2.83-.12-.46-.31-1.29-.02-1.64.31-.38,1.04-.09,1.47.07l5.39,2.06,3.23,1.12c.97.33,2.05.92,2.68,1.93.49.79.52,1.86.06,2.69-.52.94-1.61,1.5-2.5,1.87ZM23.26,43.67c.95-.39,1.97-.84,2.63-1.71.61-.82.59-2.02,0-2.84-.8-1.1-1.95-1.53-3.05-1.9l-1.58-.54-5.55-2.07c-.54-.2-1.92-.9-2.24-.5-.23.27-.08.92.02,1.27.7,2.56,1.03,4.16.98,6.92-.03,1.49-.23,2.92-.46,4.37-.07.43-.24,1.47.02,1.74s.86-.2,1.11-.37c2.61-1.74,5.3-3.19,8.13-4.37Z"/>
      <path class="cls-1" d="M23.26,43.67c-2.83,1.18-5.52,2.63-8.13,4.37-.25.17-.86.63-1.11.37s-.09-1.31-.02-1.74c.24-1.45.44-2.87.46-4.37.05-2.76-.29-4.36-.98-6.92-.1-.36-.25-1-.02-1.27.32-.39,1.7.3,2.24.5l5.55,2.07,1.58.54c1.1.37,2.25.8,3.05,1.9.6.82.62,2.03,0,2.84-.66.87-1.68,1.32-2.63,1.71ZM18.62,45.34c1.38-.81,2.74-1.41,4.16-2,.93-.38,2.19-.85,2.83-1.74.41-.57.45-1.35.09-1.99-.53-.94-1.77-1.55-2.66-1.83-2.43-.77-4.8-1.62-7.18-2.59-.52-.21-.98-.42-1.51-.58-.08-.03-.24.03-.31.09-.2.18-.05.77.02,1.06.22.89.44,1.74.59,2.66.35,2.13.37,4.28.07,6.42l-.29,2.09c-.02.12.04.35.09.43.17.27.56.06.79-.07l3.3-1.95Z"/>
      <path class="cls-1" d="M18.62,45.34l-3.3,1.95c-.23.13-.62.34-.79.07-.05-.08-.1-.31-.09-.43l.29-2.09c.3-2.14.27-4.29-.07-6.42-.15-.92-.37-1.77-.59-2.66-.07-.29-.23-.88-.02-1.06.06-.06.22-.11.31-.09.53.16.99.37,1.51.58,2.38.98,4.76,1.82,7.18,2.59.89.28,2.13.89,2.66,1.83.36.64.32,1.42-.09,1.99-.65.89-1.91,1.36-2.83,1.74-1.42.59-2.78,1.18-4.16,2ZM21.52,43.66l2.42-1.04c.53-.23,1.03-.57,1.44-1.02.46-.5.54-1.29.17-1.88-.55-.88-1.62-1.44-2.48-1.71-2.67-.85-5.28-1.79-7.89-2.88-.22-.09-.95-.43-1.05-.27s.09.86.16,1.11c.29,1.09.53,2.15.66,3.29.21,1.8.23,3.6-.03,5.39l-.33,2.28c-.01.08.02.24.05.29.17.23,1.04-.38,1.3-.54,1.82-1.13,3.63-2.19,5.57-3.02Z"/>
      <path class="cls-1" d="M21.52,43.66c-1.94.83-3.75,1.89-5.57,3.02-.26.16-1.13.77-1.3.54-.04-.05-.07-.21-.05-.29l.33-2.28c.26-1.79.23-3.59.03-5.39-.13-1.15-.37-2.2-.66-3.29-.07-.25-.26-.95-.16-1.11s.83.18,1.05.27c2.61,1.09,5.22,2.04,7.89,2.88.85.27,1.93.83,2.48,1.71.37.59.29,1.38-.17,1.88-.41.45-.91.79-1.44,1.02l-2.42,1.04Z"/>
    </g>
  </g>
</svg>