<?xml version="1.0" encoding="UTF-8"?>
<svg id="Layer_1" data-name="Layer 1" xmlns="http://www.w3.org/2000/svg" viewBox="0 0 3501 2001">
  <defs>
    <style>
      .cls-1, .cls-2, .cls-3 {
        fill: #fff;
      }

      .cls-1, .cls-4 {
        stroke: #000;
      }

      .cls-1, .cls-4, .cls-3 {
        stroke-miterlimit: 10;
      }

      .cls-5 {
        opacity: .8;
      }

      .cls-3 {
        stroke: #666;
        stroke-width: .25px;
      }
    </style>
  </defs>
  <rect class="cls-1" x=".5" y=".5" width="3500" height="2000"/>
  <g class="cls-5">
    <g>
      <path d="M1481.65,561.49l-3.2-11.72c-.87-3.18-2.35-5.99-3.65-9.41l4.21,4.67c1.67-9.47.85-19.78-1.45-29.17-.45-.57-1.7-2.12-1.79-3.02-.61-5.68-2.19-13.55-3.82-19.87,6.21,8.42,3.3,17.51,8.99,21.71l.26-15.93c1.84,6.79,1.05,12.81,1.81,19.28,3.43,2.62,38.74,51.93,42.19,53.79l3.93,4.34c-1.29-5.28-23.37-50.25-25.91-54.23l-36.64-57.23c-1.7-2.66-4.52-3.77-7.07-2.37-6.78,3.73-13.18,7.41-19.8,11.53-22.04,13.75-39.03,32.26-56.71,52.44-5.32,6.07-10.67,11.41-16.61,17.32,11.58,1.11,22.87,2.01,33.96,5.78l23.03,7.83c14.92,5.07,29.05,11.14,43.54,17.79,5.26,2.41,11.22,1.77,15.98,6.62l-10.46-3.04,18.66,13.03c-1.17-6.11-4.51-11.15-9.12-13.4-2.85-1.39-5.28-4.33-7.5-7.74,2.6,1.2,4.56,2.96,7.18,5.11.47-4.45,1.19-9.72-.01-14.12Z"/>
      <path d="M1528.68,634.88l31.93,2.39-27.88-16.35c-14.23-8.34-27.93-16.57-41.23-26.78-11.18-8.59-22.16-15.88-34.76-21.53-18.08-8.11-35.92-15.14-54.75-20.78-22.25-6.67-44.47-8.09-67.29-4.69l-31.95,4.76c7.93.86,15.14,1.63,22.82,3.56,26.78,6.72,58.86,21.61,83.67,35.47,17.17,9.59,33.68,19.15,51.28,27.67,24.66,11.94,40.89,14.24,68.16,16.28Z"/>
      <path d="M1340.06,615.64c4.69-19.1,9.86-29.28,16.47-47.32-27.88-11.86-57.51-20.55-86.4-8.72-2.18.89-4.33,2.99-5.12,5.5,3.99,7.67,9.72,13.41,15.73,18.95,18.84,15.54,36.59,24.21,59.32,31.59Z"/>
      <path d="M1391.88,647.92c-9.75.11-17.54-1.8-25.6-6.12-2.27-1.22-4.84-2.11-5.99-4.75l11.52,5.73-2.81-6.11-5.9-15.97c-1.16,5.68.76,10.27,1.81,16.09-4.32-6.33-4-14.08-3.86-22.77-1.69,5.22-3.17,11-3.68,17.12-1.18,14.3-4.33,15.57,7.86,26.27-4.09-.65-6.86-3.73-9.14-7.51.06,3.78.52,6.93,1.09,10.7-5.97-8.84-1.11-27.32.45-37.49,2.62-17.1,8.95-32,17.99-46.54l-17.41-7.78-9.12,23.43c-4.56,11.72-8.3,23.52-9.68,37.67l7.76-15.67c1.14-2.3,1.72-4.41,3.04-6.54l-2.52,14.46c-3.2,18.31.32,40.17,14.97,49.82-.62.59-1.5,1.24-1.28,1.52l1.08,1.35c3.71,4.63,8.68,5.62,13.92,3.63,8.29-3.15,15.87-7.64,23.55-12.75,12.12-8.05,23.88-15.93,36.6-22.22l-3.63-13.74c-12.99,5.01-25.13,10.25-36.85,17.53-3.7,2.3-14.6,10.54-17.93,8.69l13.77-8.07Z"/>
      <path class="cls-4" d="M1418.86,618.44c2.68-5.27,2.26-10.96-.83-15.35-.98-1.39-2.98-2.6-4.33-2.57s-3.58,1.21-4.45,2.58c-3.06,4.8-3.12,11.41.14,16.02,1.11,1.57,3.3,2.67,4.92,2.7,1.38.02,3.62-1.56,4.55-3.38Z"/>
      <path class="cls-4" d="M1385.24,618.76c2.14-5.99.63-12.13-3.16-16.07-2.28-2.38-5.82-1.96-7.33,1.24-2.42,5.12-1.98,11.63,1.39,16.12,1.1,1.46,3.34,2.62,4.77,2.44s3.65-1.83,4.33-3.74Z"/>
      <path d="M1503.83,689.06l13.02,8.58c2.52,1.66,4.66,3.06,7.73,3.92l-10.87-11.57c-4.56-4.85-9.04-9.5-14.08-13.78-8.89-7.55-17.68-14.68-25.79-23.38-3.31-3.56-13.75-15.7-15.08-20.31,2.77,2.92,4.6,6.19,7.1,9.28,8.95,11.05,18.63,20.7,29.97,29.01-6.86-13.21-11.67-27.3-16.44-41.81-11.92-4.43-23.32-9.89-34.77-15.9l-7.91-4.15c1.21,17.48,7.96,31.47,17.92,43.91-8.79-6.69-13.47-17.32-16.86-28.34l-2.9-16.05c-.63-1.07-2.63-2.27-3.86-2.74.59,12.69,3.36,24.29,6.67,36.17,4.21,15.15,12.15,26.37,22.66,36.29,9.41,8.88,18.5,17.17,29.96,22.54,14.72,6.9,28.16,19.43,40.75,31.2-3.43-6.68-8.21-11.09-12.94-16.19-17.83-19.24-38.68-21.78-54.89-44.53,6.38,6.09,12.57,12.38,20.06,17.26l21.65,14.11c17.57,11.45,33.44,35.67,45.5,46.45l16.4,14.65c.5-11.73-3.36-21.76-8.97-30.77-6.13-9.86-14.45-16.97-23.68-22.86-4.65-2.96-9.07-6.03-13.86-8.6-6.02-3.23-12.8-5.63-16.51-12.36Z"/>
      <path d="M1242.57,647.77c-1.82-7.7-2.66-15.07-3.02-22.87,4.32,5.04,7.51,9.24,10.9,14.47-3.84-3.12-6.24-6.7-9.7-10.81l3.09,18.34,11.31,7.21.52-18.76c-5.84-5.1-11.35-9.8-18.16-13.88l1.69,26.84,6.71,7.34c3.06,3.34,7.83,4.23,12.39,5.3,1.46-4.96,2.61-9.65,2.4-14.9-.05-1.17-1.62-12.55-3.87-10.68l-.31,21.04c-5.06-2.07-9.81-4.72-13.95-8.63Z"/>
      <path d="M1556.34,644.66c2.61-1.3,4.99-2.57,6.89-5.19l-32.53-2.68c-16.85-1.39-33.1-2.47-49.55-7.15,1.85,6.06,3.72,11.25,5.89,16.76l3.56,9.06c21.26,3.12,46.07-.95,65.74-10.79Z"/>
      <path d="M1354.8,682.3c5.56,4.71,9.1,10.47,15.28,13.18,7.24,3.17,20.11-2.29,26.5-6.4l31.76-20.39c1.8-1.16,3.24-2.43,5.35-2.81l-13.69,10.3c9.62-3.07,17.86-6.83,26.89-10.29-4.03-6.75-7.21-12.85-9.66-20.44-6.2,2.75-12.37,5.72-18.29,9.56l-25.76,16.68c-7.17,4.64-14.46,8.25-22.29,10.91-6.92,2.35-13.34-1.88-14.68-10.31-.38-2.41-1.34-4.7-2.89-6.32l-.57,11.36c-.26,5.16,3.69,17.15,10.19,16.56-3.02-3.88-6.14-7.07-8.13-11.59Z"/>
      <path d="M1251.27,664.86c-.66,3.18.88,5.13,3.01,6.68s3.83,2.2,6.04,1.06,2.61-3.15,2.96-6.05c.67-5.49,1.88-11-1.04-16.1l-2.95,12.23c-4.11-.66-7.07-1.71-11.17-2.87,2.31,2.66,4.76,3.93,8,6.43l-4.84-1.38Z"/>
      <path class="cls-2" d="M1623.35,903.28c-2.17-10.23-3.67-20.84-9.33-27.71-5.02-6.09-9.06,1.86-12.9-1.2,2.3-14.42-.72-15.1-5.78-25.72l-24.09-23.97-19.3-22.67c-9.5-11.16-19.98-20.27-30.61-29.94-18.12-16.5-29.92-47.34-37-71.99-13.7-8.61-25.35-20-36.47-32.43l-21.42,7.92-11.32,4.38c-3.61,1.4-21.6,14.43-29.18,16.73-.32,20.31-1.13,41.9-8.57,61.98-2.96-8.64-3.54-17.35-3.6-26.23l-.24-31.78c-9.37,15.05-17.9,28.92-26.24,44.11-1.01,9-1.91,17.89-3.28,27.1l-14.89,100.05c2.76,2.27,3.27,5.42,1.74,8.71-2.16,4.65,2.2,5.81,1.09,12.33l-5.01-2.41-3.09,28.01,7.67,4.34-5.67,4.47.41,7.47-3.83-1.32c-.62,10.02-1.8,19.91-1.3,31.01,10.66-14.38,17.01-30.54,25.68-47.46,4,11.68,6.89,23.16,11.75,33.99l10.57,23.55c8.29-19.53,9.95-35.38,17-55.7l15.12,19.6c8.55,11.09,18.12,20.44,29.39,27.68,18.89,12.15,36.32,19.63,55.48,31.6,4.89-12.86,8.62-25.6,12.06-38.97,6.76-26.25,11.48-52.16,13.43-79.97l27.39,8.7c9.01,2.86,17.88,5.34,27.19,6.64l32.09,4.49,25.05,4.59"/>
      <path d="M1267.76,671.13l-7.52,6.97c5.8,3.41,10.73-9.93,7.52-6.97Z"/>
      <path d="M1368.33,681.83c-4.24-3.03-7.21-5.75-10.19-9.54.46,6.23,5.28,10.57,10.19,9.54Z"/>
      <path d="M1264.67,685.73c1.11,1.08,4.15,1.46,5.4.63,1-.67,2.71-2.7,2.59-4.03-.28-2.98-1.53-5.94-2.76-8.32-2.83,3.98-5.29,5.29-9.75,7.33l4.52,4.4Z"/>
      <path d="M1366.07,698.13c.32-.33,1.09-1.56.74-1.81-4.05-2.89-9.13,3.92-15.96-14.59l-9.06,31.89c-1.55,5.44-3.65,10.17-5.62,14.96,4.16-3.77,7.71-7.34,11.43-11.22l18.47-19.22Z"/>
      <path d="M1270.55,696.11c2.65,1.19,5.94-1.47,5.32-4.05-.54-2.2-1.7-5.11-2.39-6.8-2.23,2.14-3.56,3.12-5.8,4.27l2.87,6.58Z"/>
      <path d="M1345.67,742.85l26.54-43.88c-.9-.84-3.07-1.74-3.78-1.09l-20.03,20.43-15.68,15.69c-3.56,3.56-7.03,6.36-11.14,9.7,8.96-2.69,20.44,5.22,24.1-.85Z"/>
      <path d="M1377.52,754.44c5.68-18.64,6.15-37.6,6.67-57.11-1.35.04-3.31.54-4.04,1.45l-1.13,19.99c-1.68-6.35-.49-12.9-.34-19.58.02-.92-3.16-.52-3.22.46-.79,14.23-1.38,41.07,2.06,54.79Z"/>
      <path d="M1552.98,799.33c6.06-7.75,3.81-21.01-.82-29.06s-14.55-17.57-16.55-20.52c-4.29-6.34-10.61-20.79-14.32-24.16-7.16-6.49-14.42-12.29-21.99-17.83.96,6.3,5.49,9.21,5.57,15.21-7.06-11.61-5.04-17.44-18.28-21.43,4.22,15.93,9.87,29.92,17.04,43.66,7.54,14.44,17.46,26.03,29.78,34.72l-8.95-25.12c5.19,7.93,8.07,20.05,12.63,29.11l6.17,5.45-1.44-3.22-4.89-15.63c-4.62-14.77-18.5-29.64-24.76-43.55l21.96,30.19c13.65,18.77,1.88,22.61,18.86,42.16Z"/>
      <path d="M1294.34,748.5c.42,1.05,3.23.4,3.94-.63.63-.9.2-2.85-.45-4.39l-16.94-40.17c-2.17,1.78-3.91,2.88-6.13,3.55,7.61,13.52,13.79,27.18,19.57,41.64Z"/>
      <path d="M1551.14,764.62c-3.27-6.62-6.91-12.7-11.45-18.17l-9.89-11.92c2.84,9.84,15.09,23.2,21.34,30.09Z"/>
      <path d="M1309.56,754.21l-1.79-9.47c-1.62-1.51-3.21-1.98-5.26-1.1.3,3.64.58,6.74,1.71,9.89.68,1.91,3.96,1.94,5.35.69Z"/>
      <path d="M1343.29,764.01c1.4-9.84-5.08-18.56-13.98-18.18,4.77,4.66,8.87,10.19,9.2,17.5-3.39-6.93-7.96-18.32-16.94-17.16l3.77,6.79c2.25,4.06,3.42,9.5,6.06,13.28,3.79,5.43,6.45,10.43,8.73,16.98,1.32-6.86,2.24-12.8,3.16-19.2Z"/>
      <polygon points="1344.67 755.02 1345.25 745.83 1339.16 747.55 1344.67 755.02"/>
      <path d="M1311.52,770.2c5.17-4.42,5.11-22.04-2.4-23.35.47,2.54,1.44,5.47,2.27,7.73-.99,2.91-1.31,5.65-.47,8.95l.6,6.68Z"/>
      <path d="M1331.76,768.47l-.32,5.38c-2.14-5.83-6.35-25.52-13-27.38,9.24,20.43,8.59,35.08,7.8,58.01l7.77,18.33c2.8-26.7,10.78-32.74-2.26-54.34Z"/>
      <path d="M1324.51,800.33c1.05-9.4.9-18.24-.07-27.46-.5-4.71-4.49-26.8-10.8-25.21,2.3,3.27,3.42,7.25,3.46,11.75.06,7.24,1.45,13.99-.22,21.49l-1.22-13.9-3.2,6.03c4.76,9.83,6.55,17.14,12.05,27.3Z"/>
      <path d="M1302.13,754.35c-2.9-2.76-5.56-3.5-8.44-2.92-2.65.54-3.63,6.28-1.11,8.25,3.13-1.28,6.35-3.08,9.55-5.33Z"/>
      <path d="M1294.34,767.94l14.07-6.37c.1-1.83-.5-3.87-1.39-4.44-3.57-2.29-9.2,1.71-13.47,4.55-1.31.87-.56,5.57.79,6.26Z"/>
      <path d="M1298.68,773.85c3.48-1.06,12.52-5.01,11.05-9.3-.2-.58-1.83-.96-2.35-.72l-10.71,4.96c-1.19,1.04.12,4.96,2.01,5.07Z"/>
      <path d="M1331.57,838.81c.96-4.29,1.6-8.7,1.9-13.1l-4.35-9.69-19.71-46.03-5.33,4.16,5.24,11.74,17.66,42.52c1.53,3.69,2.72,6.82,4.59,10.4Z"/>
      <path d="M1553.67,801.57l9.68,10.83c.47-13.95-1.8-27.04-6.81-38.89,1.84,10.11,3.81,19.54-2.87,28.06Z"/>
      <path d="M1575.2,785.03l-15.95-11.38c4.25,13.3,5.91,26.88,5.81,41.13,7.42,8.72,14.87,16.58,23.66,24.38.57-15.32-5.92-41.11-13.52-54.13Z"/>
      <path d="M1296.9,945.86c.64,3.46,1.73,6.38,2.97,9.54l4.01-30.11c2.98,6.23,4.86,10.94,9.58,14.15l6.3,4.27,2.22-25.81c-5.28-8.74-7.88-18.21-8.76-28.61-.45-5.35-1.63-10.6.25-16.19l.78,13.49c.58,10.12,2.54,19.72,7.84,28.41l2.62-23.49c-3.16-11.18-8.44-21.08-13.86-30.96-2.84-5.18-5.3-10.31-6.84-16.2-5.44-20.88-8.45-47.67-4.64-68.95-.59-.05-1.54-.17-1.74.18s-.52,1.38-.6,1.88l-5.8,39.83c-1.97,13.51-1.49,26.81-2.31,40.44.02.26-1.11-1.26-1.1-1.73l.57-29.83-7.28,22.36c-4.51,13.85-7.43,28.05-7.53,43.01-.07,11.29,2.57,21.77,5.9,32.18,4.67,14.6,11.56,36.45,22.78,46.14-4.58-14.41-8.02-27.87-10.45-42.38-2.49-14.94-5.85-27.11-4.34-41.99l.9,9.84c.2,2.19.09,4.79.49,6.94l8,43.57Z"/>
      <path d="M1330.77,842.59c-2.02-7.02-5.26-13.51-8.18-19.41-1.08,13.38-2.2,25.46-4.52,37.7-.37-2.94-.06-5.52.27-8.36,1.35-11.66,2.37-22.54,2.66-34.39l-17.6-41.88c-.18-.43-1.1-1.32-1.41-1.12-2.27,1.46-2.88,17.28-2.9,21.13-.07,16.01,2.84,31.22,6.01,46.67,2.21,6.71,4.78,12.69,8.2,18.6,4.77,8.23,8.3,16.46,11.95,25.74l5.52-44.67Z"/>
      <path d="M1578.4,788.01c5.62,13.17,9.61,26.05,11.47,40.94,8.48-14.8.69-31.37-11.47-40.94Z"/>
      <path d="M1625,905.51c-17.94-3.46-34.4-6.38-51.82-8.51-12.1-1.48-23.45-3.84-35.08-7.74l-24.99-8.38c-1.07,10.37-1.8,20.2-3.43,30.57-4.51,28.71-12.51,61.51-22.6,88.6l-36.51-20.21c-18.04-9.99-30.26-16.46-44.77-33.03-6.86-7.83-12.56-15.9-19.21-24.77l-5.67,20.75c-3.35,12.25-6.28,24.04-11.76,36.06l-7.81-17.45c-4.59-10.26-8.57-20.38-12.06-31.21l-2.75-8.55-10.12,20.48c-3.89,7.88-8.85,16.67-13.34,23.52-.38.58-2.13.6-2.78.55-.61,5.71-1.12,11.33-.83,17.63,5.33-4.82,8.61-10.53,11.74-16.78l14.91-29.76,12.57,36.96c3.41,10.04,6.99,19.45,11.04,29.67,5.61-14.83,10.39-28.81,13.62-43.95,1.59-7.47,2.75-14.16,6.17-21.55,18.31,16.86,25.57,27.94,46.4,42.04,18.06,12.23,36.17,23.21,55.27,33.37,6.45-2.72,6.24-21.55,8.96-29.09,10.2-28.2,16.84-57.45,18.71-88.47,13.64,2.91,26.41,5.61,40.04,7.41l56.49,7.45,22.12,4.79"/>
      <path d="M1637.5,915.89c-4.66-14.95-10.21-28.26-17.59-40.78-5.61-9.52-13.02-16.71-21.11-23.16,3.55,5.53,5.22,11.58,4.35,17.66-1.25,8.66,6.65-3.63,12.61,5.21,5.34,7.93,8.21,20.46,9.24,30.7"/>
      <path d="M1565.31,960.77c-2.13-7.29-4.09-14.06-5.59-21.32-2.47-11.99-5.4-26.79-12.57-35.71l-26.81-5.19c-.44,7.5-1.14,14.42-2.26,21.71-2.66,18.98-6.88,36.89-13.04,54.92,7.5,2.52,13.32,6.62,18.65,12.86,1.74-11.73,1.24-22.75-1.79-33.39l-4.25-14.36c17.32,5.74,31.84,11.42,47.66,20.48Z"/>
      <path d="M1556.94,905.29l-6.32-.75c2.74,5.42,4.9,10.64,6.85,16.36l-.53-15.61Z"/>
      <path d="M1581.57,953.82c-4.62-16.12-5.19-29.9-1.7-45.88l-21.49-2.58.68,13.86c2.56,16.85,11.4,24.07,22.52,34.6Z"/>
      <path d="M1324.95,926.25l3.55-3.22-4.88-2.42-.86,9.88,2,2.33c-.09-1.83-.61-5.43.19-6.56Z"/>
      <path d="M1348.28,990.59c.11-9.73,1.94-17.51,5.57-25.5l-7.96-24.1-9.85,20.72c1.01,11.04,5.17,21.15,12.24,28.88Z"/>
      <path d="M1428.84,1008.14c-2.98-10.97-3.44-20.85-1.5-30.84l-15.66-14.07-21.58-21.9c-2.3,5.92-3.86,12.08-4.76,18.79,9.56,17.74,28.37,38.21,43.51,48.03Z"/>
    </g>
    <path d="M1481.92,571.57c12.17-7.61,1.43-22.94,6.79-27.45l7.8-6.57c3.12-2.62,4.17-7.02,2.15-11.05l-3.28-6.54c-5.58-11.15,5.63-14.74,6.15-19.44s-5.16-5.63-5.47-11.79c-.38-7.55,9.65-11.29,3.06-20.2-6.29-8.51-11.87-21.21-9.32-32.97,1.52-7.02,6.7-10.56,12.38-9.59,4.92-7.95,12.13-12.53,20.07-12.15,4.71.23,8.33,2.76,10.43,8.36,1.99-3.22,4.84-4.73,8.07-3.62,7.47,2.56,13.13,12.37,10.78,16.42-.38.66-1.98,1.27-2.71,1.2-7.29-.73-9.72-7.86-15.23-10.44-13.99-6.56-25.62,3.98-34.26,16.55-1.47,2.14-2.07,6.2-1.5,8.98,1.3,6.3,9.06,7.38,15.4,13.4,4.31,4.1,6.15,11.25,3.41,17.32-1.27,2.82-4.43,3.83-7.21,5.35l6,5.54c.99.91,2.04,3.79,2,5.18-.26,7.93-15.22,9.78-17.77,15.59-2.78,6.34,4.77,10.62,5.82,15.45,1.3,5.94-5.52,11.55-9.38,14.78-3.65,3.07-4.95,7.34-4.11,12.66,1.45,9.2-2.65,17.14-10.23,19"/>
  </g>
  <g>
    <g>
      <path class="cls-1" d="M902.25,570.74l-3.2-11.72c-.87-3.18-2.35-5.99-3.65-9.41l4.21,4.67c1.67-9.47.85-19.78-1.45-29.17-.45-.57-1.7-2.12-1.79-3.02-.61-5.68-2.19-13.55-3.82-19.87,6.21,8.42,3.3,17.51,8.99,21.71l.26-15.93c1.84,6.79,1.05,12.81,1.81,19.28,3.43,2.62,38.74,51.93,42.19,53.79l3.93,4.34c-1.29-5.28-23.37-50.25-25.91-54.23l-36.64-57.23c-1.7-2.66-4.52-3.77-7.07-2.37-6.78,3.73-13.18,7.41-19.8,11.53-22.04,13.75-39.03,32.26-56.71,52.44-5.32,6.07-10.67,11.41-16.61,17.32,11.58,1.11,22.87,2.01,33.96,5.78l23.03,7.83c14.92,5.07,29.05,11.14,43.54,17.79,5.26,2.41,11.22,1.77,15.98,6.62l-10.46-3.04,18.66,13.03c-1.17-6.11-4.51-11.15-9.12-13.4-2.85-1.39-5.28-4.33-7.5-7.74,2.6,1.2,4.56,2.96,7.18,5.11.47-4.45,1.19-9.72-.01-14.12Z"/>
      <path class="cls-1" d="M949.28,644.13l31.93,2.39-27.88-16.35c-14.23-8.34-27.93-16.57-41.23-26.78-11.18-8.59-22.16-15.88-34.76-21.53-18.08-8.11-35.92-15.14-54.75-20.78-22.25-6.67-44.47-8.09-67.29-4.69l-31.95,4.76c7.93.86,15.14,1.63,22.82,3.56,26.78,6.72,58.86,21.61,83.67,35.47,17.17,9.59,33.68,19.15,51.28,27.67,24.66,11.94,40.89,14.24,68.16,16.28Z"/>
      <path class="cls-1" d="M760.66,624.89c4.69-19.1,9.86-29.28,16.47-47.32-27.88-11.86-57.51-20.55-86.4-8.72-2.18.89-4.33,2.99-5.12,5.5,3.99,7.67,9.72,13.41,15.73,18.95,18.84,15.54,36.59,24.21,59.32,31.59Z"/>
      <path class="cls-1" d="M812.47,657.18c-9.75.11-17.54-1.8-25.6-6.12-2.27-1.22-4.84-2.11-5.99-4.75l11.52,5.73-2.81-6.11-5.9-15.97c-1.16,5.68.76,10.27,1.81,16.09-4.32-6.33-4-14.08-3.86-22.77-1.69,5.22-3.17,11-3.68,17.12-1.18,14.3-4.33,15.57,7.86,26.27-4.09-.65-6.86-3.73-9.14-7.51.06,3.78.52,6.93,1.09,10.7-5.97-8.84-1.11-27.32.45-37.49,2.62-17.1,8.95-32,17.99-46.54l-17.41-7.78-9.12,23.43c-4.56,11.72-8.3,23.52-9.68,37.67l7.76-15.67c1.14-2.3,1.72-4.41,3.04-6.54l-2.52,14.46c-3.2,18.31.32,40.17,14.97,49.82-.62.59-1.5,1.24-1.28,1.52l1.08,1.35c3.71,4.63,8.68,5.62,13.92,3.63,8.29-3.15,15.87-7.64,23.55-12.75,12.12-8.05,23.88-15.93,36.6-22.22l-3.63-13.74c-12.99,5.01-25.13,10.25-36.85,17.53-3.7,2.3-14.6,10.54-17.93,8.69l13.77-8.07Z"/>
      <path class="cls-1" d="M839.46,627.69c2.68-5.27,2.26-10.96-.83-15.35-.98-1.39-2.98-2.6-4.33-2.57s-3.58,1.21-4.45,2.58c-3.06,4.8-3.12,11.41.14,16.02,1.11,1.57,3.3,2.67,4.92,2.7,1.38.02,3.62-1.56,4.55-3.38Z"/>
      <path class="cls-1" d="M805.84,628.02c2.14-5.99.63-12.13-3.16-16.07-2.28-2.38-5.82-1.96-7.33,1.24-2.42,5.12-1.98,11.63,1.39,16.12,1.1,1.46,3.34,2.62,4.77,2.44s3.65-1.83,4.33-3.74Z"/>
      <path class="cls-1" d="M924.43,698.32l13.02,8.58c2.52,1.66,4.66,3.06,7.73,3.92l-10.87-11.57c-4.56-4.85-9.04-9.5-14.08-13.78-8.89-7.55-17.68-14.68-25.79-23.38-3.31-3.56-13.75-15.7-15.08-20.31,2.77,2.92,4.6,6.19,7.1,9.28,8.95,11.05,18.63,20.7,29.97,29.01-6.86-13.21-11.67-27.3-16.44-41.81-11.92-4.43-23.32-9.89-34.77-15.9l-7.91-4.15c1.21,17.48,7.96,31.47,17.92,43.91-8.79-6.69-13.47-17.32-16.86-28.34l-2.9-16.05c-.63-1.07-2.63-2.27-3.86-2.74.59,12.69,3.36,24.29,6.67,36.17,4.21,15.15,12.15,26.37,22.66,36.29,9.41,8.88,18.5,17.17,29.96,22.54,14.72,6.9,28.16,19.43,40.75,31.2-3.43-6.68-8.21-11.09-12.94-16.19-17.83-19.24-38.68-21.78-54.89-44.53,6.38,6.09,12.57,12.38,20.06,17.26l21.65,14.11c17.57,11.45,33.44,35.67,45.5,46.45l16.4,14.65c.5-11.73-3.36-21.76-8.97-30.77-6.13-9.86-14.45-16.97-23.68-22.86-4.65-2.96-9.07-6.03-13.86-8.6-6.02-3.23-12.8-5.63-16.51-12.36Z"/>
      <path class="cls-1" d="M663.17,657.03c-1.82-7.7-2.66-15.07-3.02-22.87,4.32,5.04,7.51,9.24,10.9,14.47-3.84-3.12-6.24-6.7-9.7-10.81l3.09,18.34,11.31,7.21.52-18.76c-5.84-5.1-11.35-9.8-18.16-13.88l1.69,26.84,6.71,7.34c3.06,3.34,7.83,4.23,12.39,5.3,1.46-4.96,2.61-9.65,2.4-14.9-.05-1.17-1.62-12.55-3.87-10.68l-.31,21.04c-5.06-2.07-9.81-4.72-13.95-8.63Z"/>
      <path class="cls-1" d="M976.94,653.91c2.61-1.3,4.99-2.57,6.89-5.19l-32.53-2.68c-16.85-1.39-33.1-2.47-49.55-7.15,1.85,6.06,3.72,11.25,5.89,16.76l3.56,9.06c21.26,3.12,46.07-.95,65.74-10.79Z"/>
      <path class="cls-1" d="M775.4,691.56c5.56,4.71,9.1,10.47,15.28,13.18,7.24,3.17,20.11-2.29,26.5-6.4l31.76-20.39c1.8-1.16,3.24-2.43,5.35-2.81l-13.69,10.3c9.62-3.07,17.86-6.83,26.89-10.29-4.03-6.75-7.21-12.85-9.66-20.44-6.2,2.75-12.37,5.72-18.29,9.56l-25.76,16.68c-7.17,4.64-14.46,8.25-22.29,10.91-6.92,2.35-13.34-1.88-14.68-10.31-.38-2.41-1.34-4.7-2.89-6.32l-.57,11.36c-.26,5.16,3.69,17.15,10.19,16.56-3.02-3.88-6.14-7.07-8.13-11.59Z"/>
      <path class="cls-1" d="M671.87,674.11c-.66,3.18.88,5.13,3.01,6.68s3.83,2.2,6.04,1.06c2.14-1.1,2.61-3.15,2.96-6.05.67-5.49,1.88-11-1.04-16.1l-2.95,12.23c-4.11-.66-7.07-1.71-11.17-2.87,2.31,2.66,4.76,3.93,8,6.43l-4.84-1.38Z"/>
      <path class="cls-1" d="M1043.95,912.53c-2.17-10.23-3.67-20.84-9.33-27.71-5.02-6.09-9.06,1.86-12.9-1.2,2.3-14.42-.72-15.1-5.78-25.72l-24.09-23.97-19.3-22.67c-9.5-11.16-19.98-20.27-30.61-29.94-18.12-16.5-29.92-47.34-37-71.99-13.7-8.61-25.35-20-36.47-32.43l-21.42,7.92-11.32,4.38c-3.61,1.4-21.6,14.43-29.18,16.73-.32,20.31-1.13,41.9-8.57,61.98-2.96-8.64-3.54-17.35-3.6-26.23l-.24-31.78c-9.37,15.05-17.9,28.92-26.24,44.11-1.01,9-1.91,17.89-3.28,27.1l-14.89,100.05c2.76,2.27,3.27,5.42,1.74,8.71-2.16,4.65,2.2,5.81,1.09,12.33l-5.01-2.41-3.09,28.01,7.67,4.34-5.67,4.47.41,7.47-3.83-1.32c-.62,10.02-1.8,19.91-1.3,31.01,10.66-14.38,17.01-30.54,25.68-47.46,4,11.68,6.89,23.16,11.75,33.99l10.57,23.55c8.29-19.53,9.95-35.38,17-55.7l15.12,19.6c8.55,11.09,18.12,20.44,29.39,27.68,18.89,12.15,36.32,19.63,55.48,31.6,4.89-12.86,8.62-25.6,12.06-38.97,6.76-26.25,11.48-52.16,13.43-79.97l27.39,8.7c9.01,2.86,17.88,5.34,27.19,6.64l32.09,4.49,25.05,4.59"/>
      <path class="cls-1" d="M688.36,680.39l-7.52,6.97c5.8,3.41,10.73-9.93,7.52-6.97Z"/>
      <path class="cls-1" d="M788.93,691.08c-4.24-3.03-7.21-5.75-10.19-9.54.46,6.23,5.28,10.57,10.19,9.54Z"/>
      <path class="cls-1" d="M685.27,694.99c1.11,1.08,4.15,1.46,5.4.63,1-.67,2.71-2.7,2.59-4.03-.28-2.98-1.53-5.94-2.76-8.32-2.83,3.98-5.29,5.29-9.75,7.33l4.52,4.4Z"/>
      <path class="cls-1" d="M786.67,707.39c.32-.33,1.09-1.56.74-1.81-4.05-2.89-9.13,3.92-15.96-14.59l-9.06,31.89c-1.55,5.44-3.65,10.17-5.62,14.96,4.16-3.77,7.71-7.34,11.43-11.22l18.47-19.22Z"/>
      <path class="cls-1" d="M691.14,705.36c2.65,1.19,5.94-1.47,5.32-4.05-.54-2.2-1.7-5.11-2.39-6.8-2.23,2.14-3.56,3.12-5.8,4.27l2.87,6.58Z"/>
      <path class="cls-1" d="M766.27,752.11l26.54-43.88c-.9-.84-3.07-1.74-3.78-1.09l-20.03,20.43-15.68,15.69c-3.56,3.56-7.03,6.36-11.14,9.7,8.96-2.69,20.44,5.22,24.1-.85Z"/>
      <path class="cls-1" d="M798.12,763.7c5.68-18.64,6.15-37.6,6.67-57.11-1.35.04-3.31.54-4.04,1.45l-1.13,19.99c-1.68-6.35-.49-12.9-.34-19.58.02-.92-3.16-.52-3.22.46-.79,14.23-1.38,41.07,2.06,54.79Z"/>
      <path class="cls-1" d="M973.58,808.59c6.06-7.75,3.81-21.01-.82-29.06-4.68-8.14-14.55-17.57-16.55-20.52-4.29-6.34-10.61-20.79-14.32-24.16-7.16-6.49-14.42-12.29-21.99-17.83.96,6.3,5.49,9.21,5.57,15.21-7.06-11.61-5.04-17.44-18.28-21.43,4.22,15.93,9.87,29.92,17.04,43.66,7.54,14.44,17.46,26.03,29.78,34.72l-8.95-25.12c5.19,7.93,8.07,20.05,12.63,29.11l6.17,5.45-1.44-3.22-4.89-15.63c-4.62-14.77-18.5-29.64-24.76-43.55l21.96,30.19c13.65,18.77,1.88,22.61,18.86,42.16Z"/>
      <path class="cls-1" d="M714.94,757.75c.42,1.05,3.23.4,3.94-.63.63-.9.2-2.85-.45-4.39l-16.94-40.17c-2.17,1.78-3.91,2.88-6.13,3.55,7.61,13.52,13.79,27.18,19.57,41.64Z"/>
      <path class="cls-1" d="M971.73,773.88c-3.27-6.62-6.91-12.7-11.45-18.17l-9.89-11.92c2.84,9.84,15.09,23.2,21.34,30.09Z"/>
      <path class="cls-1" d="M730.16,763.47l-1.79-9.47c-1.62-1.51-3.21-1.98-5.26-1.1.3,3.64.58,6.74,1.71,9.89.68,1.91,3.96,1.94,5.35.69Z"/>
      <path class="cls-1" d="M763.89,773.27c1.4-9.84-5.08-18.56-13.98-18.18,4.77,4.66,8.87,10.19,9.2,17.5-3.39-6.93-7.96-18.32-16.94-17.16l3.77,6.79c2.25,4.06,3.42,9.5,6.06,13.28,3.79,5.43,6.45,10.43,8.73,16.98,1.32-6.86,2.24-12.8,3.16-19.2Z"/>
      <polygon class="cls-1" points="765.27 764.28 765.85 755.09 759.76 756.81 765.27 764.28"/>
      <path class="cls-1" d="M732.12,779.45c5.17-4.42,5.11-22.04-2.4-23.35.47,2.54,1.44,5.47,2.27,7.73-.99,2.91-1.31,5.65-.47,8.95l.6,6.68Z"/>
      <path class="cls-1" d="M752.36,777.73l-.32,5.38c-2.14-5.83-6.35-25.52-13-27.38,9.24,20.43,8.59,35.08,7.8,58.01l7.77,18.33c2.8-26.7,10.78-32.74-2.26-54.34Z"/>
      <path class="cls-1" d="M745.11,809.59c1.05-9.4.9-18.24-.07-27.46-.5-4.71-4.49-26.8-10.8-25.21,2.3,3.27,3.42,7.25,3.46,11.75.06,7.24,1.45,13.99-.22,21.49l-1.22-13.9-3.2,6.03c4.76,9.83,6.55,17.14,12.05,27.3Z"/>
      <path class="cls-1" d="M722.73,763.61c-2.9-2.76-5.56-3.5-8.44-2.92-2.65.54-3.63,6.28-1.11,8.25,3.13-1.28,6.35-3.08,9.55-5.33Z"/>
      <path class="cls-1" d="M714.93,777.2l14.07-6.37c.1-1.83-.5-3.87-1.39-4.44-3.57-2.29-9.2,1.71-13.47,4.55-1.31.87-.56,5.57.79,6.26Z"/>
      <path class="cls-1" d="M719.27,783.1c3.48-1.06,12.52-5.01,11.05-9.3-.2-.58-1.83-.96-2.35-.72l-10.71,4.96c-1.19,1.04.12,4.96,2.01,5.07Z"/>
      <path class="cls-1" d="M752.17,848.07c.96-4.29,1.6-8.7,1.9-13.1l-4.35-9.69-19.71-46.03-5.33,4.16,5.24,11.74,17.66,42.52c1.53,3.69,2.72,6.82,4.59,10.4Z"/>
      <path class="cls-1" d="M974.27,810.82l9.68,10.83c.47-13.95-1.8-27.04-6.81-38.89,1.84,10.11,3.81,19.54-2.87,28.06Z"/>
      <path class="cls-1" d="M995.79,794.29l-15.95-11.38c4.25,13.3,5.91,26.88,5.81,41.13,7.42,8.72,14.87,16.58,23.66,24.38.57-15.32-5.92-41.11-13.52-54.13Z"/>
      <path class="cls-1" d="M717.5,955.12c.64,3.46,1.73,6.38,2.97,9.54l4.01-30.11c2.98,6.23,4.86,10.94,9.58,14.15l6.3,4.27,2.22-25.81c-5.28-8.74-7.88-18.21-8.76-28.61-.45-5.35-1.63-10.6.25-16.19l.78,13.49c.58,10.12,2.54,19.72,7.84,28.41l2.62-23.49c-3.16-11.18-8.44-21.08-13.86-30.96-2.84-5.18-5.3-10.31-6.84-16.2-5.44-20.88-8.45-47.67-4.64-68.95-.59-.05-1.54-.17-1.74.18s-.52,1.38-.6,1.88l-5.8,39.83c-1.97,13.51-1.49,26.81-2.31,40.44.02.26-1.11-1.26-1.1-1.73l.57-29.83-7.28,22.36c-4.51,13.85-7.43,28.05-7.53,43.01-.07,11.29,2.57,21.77,5.9,32.18,4.67,14.6,11.56,36.45,22.78,46.14-4.58-14.41-8.02-27.87-10.45-42.38-2.49-14.94-5.85-27.11-4.34-41.99l.9,9.84c.2,2.19.09,4.79.49,6.94l8,43.57Z"/>
      <path class="cls-1" d="M751.37,851.85c-2.02-7.02-5.26-13.51-8.18-19.41-1.08,13.38-2.2,25.46-4.52,37.7-.37-2.94-.06-5.52.27-8.36,1.35-11.66,2.37-22.54,2.66-34.39l-17.6-41.88c-.18-.43-1.1-1.32-1.41-1.12-2.27,1.46-2.88,17.28-2.9,21.13-.07,16.01,2.84,31.22,6.01,46.67,2.21,6.71,4.78,12.69,8.2,18.6,4.77,8.23,8.3,16.46,11.95,25.74l5.52-44.67Z"/>
      <path class="cls-1" d="M999,797.27c5.62,13.17,9.61,26.05,11.47,40.94,8.48-14.8.69-31.37-11.47-40.94Z"/>
      <path class="cls-1" d="M1045.6,914.77c-17.94-3.46-34.4-6.38-51.82-8.51-12.1-1.48-23.45-3.84-35.08-7.74l-24.99-8.38c-1.07,10.37-1.8,20.2-3.43,30.57-4.51,28.71-12.51,61.51-22.6,88.6l-36.51-20.21c-18.04-9.99-30.26-16.46-44.77-33.03-6.86-7.83-12.56-15.9-19.21-24.77l-5.67,20.75c-3.35,12.25-6.28,24.04-11.76,36.06l-7.81-17.45c-4.59-10.26-8.57-20.38-12.06-31.21l-2.75-8.55-10.12,20.48c-3.89,7.88-8.85,16.67-13.34,23.52-.38.58-2.13.6-2.78.55-.61,5.71-1.12,11.33-.83,17.63,5.33-4.82,8.61-10.53,11.74-16.78l14.91-29.76,12.57,36.96c3.41,10.04,6.99,19.45,11.04,29.67,5.61-14.83,10.39-28.81,13.62-43.95,1.59-7.47,2.75-14.16,6.17-21.55,18.31,16.86,25.57,27.94,46.4,42.04,18.06,12.23,36.17,23.21,55.27,33.37,6.45-2.72,6.24-21.55,8.96-29.09,10.2-28.2,16.84-57.45,18.71-88.47,13.64,2.91,26.41,5.61,40.04,7.41l56.49,7.45,22.12,4.79"/>
      <path class="cls-1" d="M1058.1,925.14c-4.66-14.95-10.21-28.26-17.59-40.78-5.61-9.52-13.02-16.71-21.11-23.16,3.55,5.53,5.22,11.58,4.35,17.66-1.25,8.66,6.65-3.63,12.61,5.21,5.34,7.93,8.21,20.46,9.24,30.7"/>
      <path class="cls-1" d="M985.91,970.02c-2.13-7.29-4.09-14.06-5.59-21.32-2.47-11.99-5.4-26.79-12.57-35.71l-26.81-5.19c-.44,7.5-1.14,14.42-2.26,21.71-2.66,18.98-6.88,36.89-13.04,54.92,7.5,2.52,13.32,6.62,18.65,12.86,1.74-11.73,1.24-22.75-1.79-33.39l-4.25-14.36c17.32,5.74,31.84,11.42,47.66,20.48Z"/>
      <path class="cls-1" d="M977.54,914.55l-6.32-.75c2.74,5.42,4.9,10.64,6.85,16.36l-.53-15.61Z"/>
      <path class="cls-1" d="M1002.17,963.08c-4.62-16.12-5.19-29.9-1.7-45.88l-21.49-2.58.68,13.86c2.56,16.85,11.4,24.07,22.52,34.6Z"/>
      <path class="cls-1" d="M745.55,935.5l3.55-3.22-4.88-2.42-.86,9.88,2,2.33c-.09-1.83-.61-5.43.19-6.56Z"/>
      <path class="cls-1" d="M768.88,999.85c.11-9.73,1.94-17.51,5.57-25.5l-7.96-24.1-9.85,20.72c1.01,11.04,5.17,21.15,12.24,28.88Z"/>
      <path class="cls-1" d="M849.44,1017.4c-2.98-10.97-3.44-20.85-1.5-30.84l-15.66-14.07-21.58-21.9c-2.3,5.92-3.86,12.08-4.76,18.79,9.56,17.74,28.37,38.21,43.51,48.03Z"/>
    </g>
    <path class="cls-1" d="M902.52,580.83c12.17-7.61,1.43-22.94,6.79-27.45l7.8-6.57c3.12-2.62,4.17-7.02,2.15-11.05l-3.28-6.54c-5.58-11.15,5.63-14.74,6.15-19.44s-5.16-5.63-5.47-11.79c-.38-7.55,9.65-11.29,3.06-20.2-6.29-8.51-11.87-21.21-9.32-32.97,1.52-7.02,6.7-10.56,12.38-9.59,4.92-7.95,12.13-12.53,20.07-12.15,4.71.23,8.33,2.76,10.43,8.36,1.99-3.22,4.84-4.73,8.07-3.62,7.47,2.56,13.13,12.37,10.78,16.42-.38.66-1.98,1.27-2.71,1.2-7.29-.73-9.72-7.86-15.23-10.44-13.99-6.56-25.62,3.98-34.26,16.55-1.47,2.14-2.07,6.2-1.5,8.98,1.3,6.3,9.06,7.38,15.4,13.4,4.31,4.1,6.15,11.25,3.41,17.32-1.27,2.82-4.43,3.83-7.21,5.35l6,5.54c.99.91,2.04,3.79,2,5.18-.26,7.93-15.22,9.78-17.77,15.59-2.78,6.34,4.77,10.62,5.82,15.45,1.3,5.94-5.52,11.55-9.38,14.78-3.65,3.07-4.95,7.34-4.11,12.66,1.45,9.2-2.65,17.14-10.23,19"/>
  </g>
  <g class="cls-5">
    <g>
      <path d="M1171.9,1214.65l-3.2-11.72c-.87-3.18-2.35-5.99-3.65-9.41l4.21,4.67c1.67-9.47.85-19.78-1.45-29.17-.45-.57-1.7-2.12-1.79-3.02-.61-5.68-2.19-13.55-3.82-19.87,6.21,8.42,3.3,17.51,8.99,21.71l.26-15.93c1.84,6.79,1.05,12.81,1.81,19.28,3.43,2.62,38.74,51.93,42.19,53.79l3.93,4.34c-1.29-5.28-23.37-50.25-25.91-54.23l-36.64-57.23c-1.7-2.66-4.52-3.77-7.07-2.37-6.78,3.73-13.18,7.41-19.8,11.53-22.04,13.75-39.03,32.26-56.71,52.44-5.32,6.07-10.67,11.41-16.61,17.32,11.58,1.11,22.87,2.01,33.96,5.78l23.03,7.83c14.92,5.07,29.05,11.14,43.54,17.79,5.26,2.41,11.22,1.77,15.98,6.62l-10.46-3.04,18.66,13.03c-1.17-6.11-4.51-11.15-9.12-13.4-2.85-1.39-5.28-4.33-7.5-7.74,2.6,1.2,4.56,2.96,7.18,5.11.47-4.45,1.19-9.72-.01-14.12Z"/>
      <path d="M1218.93,1288.05l31.93,2.39-27.88-16.35c-14.23-8.34-27.93-16.57-41.23-26.78-11.18-8.59-22.16-15.88-34.76-21.53-18.08-8.11-35.92-15.14-54.75-20.78-22.25-6.67-44.47-8.09-67.29-4.69l-31.95,4.76c7.93.86,15.14,1.63,22.82,3.56,26.78,6.72,58.86,21.61,83.67,35.47,17.17,9.59,33.68,19.15,51.28,27.67,24.66,11.94,40.89,14.24,68.16,16.28Z"/>
      <path d="M1030.3,1268.81c4.69-19.1,9.86-29.28,16.47-47.32-27.88-11.86-57.51-20.55-86.4-8.72-2.18.89-4.33,2.99-5.12,5.5,3.99,7.67,9.72,13.41,15.73,18.95,18.84,15.54,36.59,24.21,59.32,31.59Z"/>
      <path d="M1082.12,1301.09c-9.75.11-17.54-1.8-25.6-6.12-2.27-1.22-4.84-2.11-5.99-4.75l11.52,5.73-2.81-6.11-5.9-15.97c-1.16,5.68.76,10.27,1.81,16.09-4.32-6.33-4-14.08-3.86-22.77-1.69,5.22-3.17,11-3.68,17.12-1.18,14.3-4.33,15.57,7.86,26.27-4.09-.65-6.86-3.73-9.14-7.51.06,3.78.52,6.93,1.09,10.7-5.97-8.84-1.11-27.32.45-37.49,2.62-17.1,8.95-32,17.99-46.54l-17.41-7.78-9.12,23.43c-4.56,11.72-8.3,23.52-9.68,37.67l7.76-15.67c1.14-2.3,1.72-4.41,3.04-6.54l-2.52,14.46c-3.2,18.31.32,40.17,14.97,49.82-.62.59-1.5,1.24-1.28,1.52l1.08,1.35c3.71,4.63,8.68,5.62,13.92,3.63,8.29-3.15,15.87-7.64,23.55-12.75,12.12-8.05,23.88-15.93,36.6-22.22l-3.63-13.74c-12.99,5.01-25.13,10.25-36.85,17.53-3.7,2.3-14.6,10.54-17.93,8.69l13.77-8.07Z"/>
      <path class="cls-4" d="M1109.11,1271.6c2.68-5.27,2.26-10.96-.83-15.35-.98-1.39-2.98-2.6-4.33-2.57s-3.58,1.21-4.45,2.58c-3.06,4.8-3.12,11.41.14,16.02,1.11,1.57,3.3,2.67,4.92,2.7,1.38.02,3.62-1.56,4.55-3.38Z"/>
      <path class="cls-4" d="M1075.48,1271.93c2.14-5.99.63-12.13-3.16-16.07-2.28-2.38-5.82-1.96-7.33,1.24-2.42,5.12-1.98,11.63,1.39,16.12,1.1,1.46,3.34,2.62,4.77,2.44s3.65-1.83,4.33-3.74Z"/>
      <path d="M1194.07,1342.23l13.02,8.58c2.52,1.66,4.66,3.06,7.73,3.92l-10.87-11.57c-4.56-4.85-9.04-9.5-14.08-13.78-8.89-7.55-17.68-14.68-25.79-23.38-3.31-3.56-13.75-15.7-15.08-20.31,2.77,2.92,4.6,6.19,7.1,9.28,8.95,11.05,18.63,20.7,29.97,29.01-6.86-13.21-11.67-27.3-16.44-41.81-11.92-4.43-23.32-9.89-34.77-15.9l-7.91-4.15c1.21,17.48,7.96,31.47,17.92,43.91-8.79-6.69-13.47-17.32-16.86-28.34l-2.9-16.05c-.63-1.07-2.63-2.27-3.86-2.74.59,12.69,3.36,24.29,6.67,36.17,4.21,15.15,12.15,26.37,22.66,36.29,9.41,8.88,18.5,17.17,29.96,22.54,14.72,6.9,28.16,19.43,40.75,31.2-3.43-6.68-8.21-11.09-12.94-16.19-17.83-19.24-38.68-21.78-54.89-44.53,6.38,6.09,12.57,12.38,20.06,17.26l21.65,14.11c17.57,11.45,33.44,35.67,45.5,46.45l16.4,14.65c.5-11.73-3.36-21.76-8.97-30.77-6.13-9.86-14.45-16.97-23.68-22.86-4.65-2.96-9.07-6.03-13.86-8.6-6.02-3.23-12.8-5.63-16.51-12.36Z"/>
      <path d="M932.81,1300.94c-1.82-7.7-2.66-15.07-3.02-22.87,4.32,5.04,7.51,9.24,10.9,14.47-3.84-3.12-6.24-6.7-9.7-10.81l3.09,18.34,11.31,7.21.52-18.76c-5.84-5.1-11.35-9.8-18.16-13.88l1.69,26.84,6.71,7.34c3.06,3.34,7.83,4.23,12.39,5.3,1.46-4.96,2.61-9.65,2.4-14.9-.05-1.17-1.62-12.55-3.87-10.68l-.31,21.04c-5.06-2.07-9.81-4.72-13.95-8.63Z"/>
      <path d="M1246.58,1297.82c2.61-1.3,4.99-2.57,6.89-5.19l-32.53-2.68c-16.85-1.39-33.1-2.47-49.55-7.15,1.85,6.06,3.72,11.25,5.89,16.76l3.56,9.06c21.26,3.12,46.07-.95,65.74-10.79Z"/>
      <path d="M1045.05,1335.47c5.56,4.71,9.1,10.47,15.28,13.18,7.24,3.17,20.11-2.29,26.5-6.4l31.76-20.39c1.8-1.16,3.24-2.43,5.35-2.81l-13.69,10.3c9.62-3.07,17.86-6.83,26.89-10.29-4.03-6.75-7.21-12.85-9.66-20.44-6.2,2.75-12.37,5.72-18.29,9.56l-25.76,16.68c-7.17,4.64-14.46,8.25-22.29,10.91-6.92,2.35-13.34-1.88-14.68-10.31-.38-2.41-1.34-4.7-2.89-6.32l-.57,11.36c-.26,5.16,3.69,17.15,10.19,16.56-3.02-3.88-6.14-7.07-8.13-11.59Z"/>
      <path d="M941.52,1318.02c-.66,3.18.88,5.13,3.01,6.68s3.83,2.2,6.04,1.06c2.14-1.1,2.61-3.15,2.96-6.05.67-5.49,1.88-11-1.04-16.1l-2.95,12.23c-4.11-.66-7.07-1.71-11.17-2.87,2.31,2.66,4.76,3.93,8,6.43l-4.84-1.38Z"/>
      <path d="M1313.59,1556.44c-2.17-10.23-3.67-20.84-9.33-27.71-5.02-6.09-9.06,1.86-12.9-1.2,2.3-14.42-.72-15.1-5.78-25.72l-24.09-23.97-19.3-22.67c-9.5-11.16-19.98-20.27-30.61-29.94-18.12-16.5-29.92-47.34-37-71.99-13.7-8.61-25.35-20-36.47-32.43l-21.42,7.92-11.32,4.38c-3.61,1.4-21.6,14.43-29.18,16.73-.32,20.31-1.13,41.9-8.57,61.98-2.96-8.64-3.54-17.35-3.6-26.23l-.24-31.78c-9.37,15.05-17.9,28.92-26.24,44.11-1.01,9-1.91,17.89-3.28,27.1l-14.89,100.05c2.76,2.27,3.27,5.42,1.74,8.71-2.16,4.65,2.2,5.81,1.09,12.33l-5.01-2.41-3.09,28.01,7.67,4.34-5.67,4.47.41,7.47-3.83-1.32c-.62,10.02-1.8,19.91-1.3,31.01,10.66-14.38,17.01-30.54,25.68-47.46,4,11.68,6.89,23.16,11.75,33.99l10.57,23.55c8.29-19.53,9.95-35.38,17-55.7l15.12,19.6c8.55,11.09,18.12,20.44,29.39,27.68,18.89,12.15,36.32,19.63,55.48,31.6,4.89-12.86,8.62-25.6,12.06-38.97,6.76-26.25,11.48-52.16,13.43-79.97l27.39,8.7c9.01,2.86,17.88,5.34,27.19,6.64l32.09,4.49,25.05,4.59"/>
      <path d="M958.01,1324.3l-7.52,6.97c5.8,3.41,10.73-9.93,7.52-6.97Z"/>
      <path d="M1058.58,1334.99c-4.24-3.03-7.21-5.75-10.19-9.54.46,6.23,5.28,10.57,10.19,9.54Z"/>
      <path d="M954.92,1338.9c1.11,1.08,4.15,1.46,5.4.63,1-.67,2.71-2.7,2.59-4.03-.28-2.98-1.53-5.94-2.76-8.32-2.83,3.98-5.29,5.29-9.75,7.33l4.52,4.4Z"/>
      <path d="M1056.31,1351.3c.32-.33,1.09-1.56.74-1.81-4.05-2.89-9.13,3.92-15.96-14.59l-9.06,31.89c-1.55,5.44-3.65,10.17-5.62,14.96,4.16-3.77,7.71-7.34,11.43-11.22l18.47-19.22Z"/>
      <path d="M960.79,1349.27c2.65,1.19,5.94-1.47,5.32-4.05-.54-2.2-1.7-5.11-2.39-6.8-2.23,2.14-3.56,3.12-5.8,4.27l2.87,6.58Z"/>
      <path d="M1035.91,1396.02l26.54-43.88c-.9-.84-3.07-1.74-3.78-1.09l-20.03,20.43-15.68,15.69c-3.56,3.56-7.03,6.36-11.14,9.7,8.96-2.69,20.44,5.22,24.1-.85Z"/>
      <path d="M1067.77,1407.61c5.68-18.64,6.15-37.6,6.67-57.11-1.35.04-3.31.54-4.04,1.45l-1.13,19.99c-1.68-6.35-.49-12.9-.34-19.58.02-.92-3.16-.52-3.22.46-.79,14.23-1.38,41.07,2.06,54.79Z"/>
      <path d="M1243.23,1452.5c6.06-7.75,3.81-21.01-.82-29.06-4.68-8.14-14.55-17.57-16.55-20.52-4.29-6.34-10.61-20.79-14.32-24.16-7.16-6.49-14.42-12.29-21.99-17.83.96,6.3,5.49,9.21,5.57,15.21-7.06-11.61-5.04-17.44-18.28-21.43,4.22,15.93,9.87,29.92,17.04,43.66,7.54,14.44,17.46,26.03,29.78,34.72l-8.95-25.12c5.19,7.93,8.07,20.05,12.63,29.11l6.17,5.45-1.44-3.22-4.89-15.63c-4.62-14.77-18.5-29.64-24.76-43.55l21.96,30.19c13.65,18.77,1.88,22.61,18.86,42.16Z"/>
      <path d="M984.58,1401.66c.42,1.05,3.23.4,3.94-.63.63-.9.2-2.85-.45-4.39l-16.94-40.17c-2.17,1.78-3.91,2.88-6.13,3.55,7.61,13.52,13.79,27.18,19.57,41.64Z"/>
      <path d="M1241.38,1417.79c-3.27-6.62-6.91-12.7-11.45-18.17l-9.89-11.92c2.84,9.84,15.09,23.2,21.34,30.09Z"/>
      <path d="M999.8,1407.38l-1.79-9.47c-1.62-1.51-3.21-1.98-5.26-1.1.3,3.64.58,6.74,1.71,9.89.68,1.91,3.96,1.94,5.35.69Z"/>
      <path d="M1033.54,1417.18c1.4-9.84-5.08-18.56-13.98-18.18,4.77,4.66,8.87,10.19,9.2,17.5-3.39-6.93-7.96-18.32-16.94-17.16l3.77,6.79c2.25,4.06,3.42,9.5,6.06,13.28,3.79,5.43,6.45,10.43,8.73,16.98,1.32-6.86,2.24-12.8,3.16-19.2Z"/>
      <polygon points="1034.91 1408.19 1035.5 1399 1029.41 1400.72 1034.91 1408.19"/>
      <path d="M1001.76,1423.36c5.17-4.42,5.11-22.04-2.4-23.35.47,2.54,1.44,5.47,2.27,7.73-.99,2.91-1.31,5.65-.47,8.95l.6,6.68Z"/>
      <path d="M1022,1421.64l-.32,5.38c-2.14-5.83-6.35-25.52-13-27.38,9.24,20.43,8.59,35.08,7.8,58.01l7.77,18.33c2.8-26.7,10.78-32.74-2.26-54.34Z"/>
      <path d="M1014.75,1453.5c1.05-9.4.9-18.24-.07-27.46-.5-4.71-4.49-26.8-10.8-25.21,2.3,3.27,3.42,7.25,3.46,11.75.06,7.24,1.45,13.99-.22,21.49l-1.22-13.9-3.2,6.03c4.76,9.83,6.55,17.14,12.05,27.3Z"/>
      <path d="M992.37,1407.52c-2.9-2.76-5.56-3.5-8.44-2.92-2.65.54-3.63,6.28-1.11,8.25,3.13-1.28,6.35-3.08,9.55-5.33Z"/>
      <path d="M984.58,1421.11l14.07-6.37c.1-1.83-.5-3.87-1.39-4.44-3.57-2.29-9.2,1.71-13.47,4.55-1.31.87-.56,5.57.79,6.26Z"/>
      <path d="M988.92,1427.01c3.48-1.06,12.52-5.01,11.05-9.3-.2-.58-1.83-.96-2.35-.72l-10.71,4.96c-1.19,1.04.12,4.96,2.01,5.07Z"/>
      <path d="M1021.81,1491.98c.96-4.29,1.6-8.7,1.9-13.1l-4.35-9.69-19.71-46.03-5.33,4.16,5.24,11.74,17.66,42.52c1.53,3.69,2.72,6.82,4.59,10.4Z"/>
      <path d="M1243.91,1454.73l9.68,10.83c.47-13.95-1.8-27.04-6.81-38.89,1.84,10.11,3.81,19.54-2.87,28.06Z"/>
      <path d="M1265.44,1438.2l-15.95-11.38c4.25,13.3,5.91,26.88,5.81,41.13,7.42,8.72,14.87,16.58,23.66,24.38.57-15.32-5.92-41.11-13.52-54.13Z"/>
      <path d="M987.14,1599.03c.64,3.46,1.73,6.38,2.97,9.54l4.01-30.11c2.98,6.23,4.86,10.94,9.58,14.15l6.3,4.27,2.22-25.81c-5.28-8.74-7.88-18.21-8.76-28.61-.45-5.35-1.63-10.6.25-16.19l.78,13.49c.58,10.12,2.54,19.72,7.84,28.41l2.62-23.49c-3.16-11.18-8.44-21.08-13.86-30.96-2.84-5.18-5.3-10.31-6.84-16.2-5.44-20.88-8.45-47.67-4.64-68.95-.59-.05-1.54-.17-1.74.18s-.52,1.38-.6,1.88l-5.8,39.83c-1.97,13.51-1.49,26.81-2.31,40.44.02.26-1.11-1.26-1.1-1.73l.57-29.83-7.28,22.36c-4.51,13.85-7.43,28.05-7.53,43.01-.07,11.29,2.57,21.77,5.9,32.18,4.67,14.6,11.56,36.45,22.78,46.14-4.58-14.41-8.02-27.87-10.45-42.38-2.49-14.94-5.85-27.11-4.34-41.99l.9,9.84c.2,2.19.09,4.79.49,6.94l8,43.57Z"/>
      <path d="M1021.01,1495.76c-2.02-7.02-5.26-13.51-8.18-19.41-1.08,13.38-2.2,25.46-4.52,37.7-.37-2.94-.06-5.52.27-8.36,1.35-11.66,2.37-22.54,2.66-34.39l-17.6-41.88c-.18-.43-1.1-1.32-1.41-1.12-2.27,1.46-2.88,17.28-2.9,21.13-.07,16.01,2.84,31.22,6.01,46.67,2.21,6.71,4.78,12.69,8.2,18.6,4.77,8.23,8.3,16.46,11.95,25.74l5.52-44.67Z"/>
      <path d="M1268.65,1441.18c5.62,13.17,9.61,26.05,11.47,40.94,8.48-14.8.69-31.37-11.47-40.94Z"/>
      <path d="M1315.25,1558.68c-17.94-3.46-34.4-6.38-51.82-8.51-12.1-1.48-23.45-3.84-35.08-7.74l-24.99-8.38c-1.07,10.37-1.8,20.2-3.43,30.57-4.51,28.71-12.51,61.51-22.6,88.6l-36.51-20.21c-18.04-9.99-30.26-16.46-44.77-33.03-6.86-7.83-12.56-15.9-19.21-24.77l-5.67,20.75c-3.35,12.25-6.28,24.04-11.76,36.06l-7.81-17.45c-4.59-10.26-8.57-20.38-12.06-31.21l-2.75-8.55-10.12,20.48c-3.89,7.88-8.85,16.67-13.34,23.52-.38.58-2.13.6-2.78.55-.61,5.71-1.12,11.33-.83,17.63,5.33-4.82,8.61-10.53,11.74-16.78l14.91-29.76,12.57,36.96c3.41,10.04,6.99,19.45,11.04,29.67,5.61-14.83,10.39-28.81,13.62-43.95,1.59-7.47,2.75-14.16,6.17-21.55,18.31,16.86,25.57,27.94,46.4,42.04,18.06,12.23,36.17,23.21,55.27,33.37,6.45-2.72,6.24-21.55,8.96-29.09,10.2-28.2,16.84-57.45,18.71-88.47,13.64,2.91,26.41,5.61,40.04,7.41l56.49,7.45,22.12,4.79"/>
      <path d="M1327.75,1569.05c-4.66-14.95-10.21-28.26-17.59-40.78-5.61-9.52-13.02-16.71-21.11-23.16,3.55,5.53,5.22,11.58,4.35,17.66-1.25,8.66,6.65-3.63,12.61,5.21,5.34,7.93,8.21,20.46,9.24,30.7"/>
      <path d="M1255.55,1613.93c-2.13-7.29-4.09-14.06-5.59-21.32-2.47-11.99-5.4-26.79-12.57-35.71l-26.81-5.19c-.44,7.5-1.14,14.42-2.26,21.71-2.66,18.98-6.88,36.89-13.04,54.92,7.5,2.52,13.32,6.62,18.65,12.86,1.74-11.73,1.24-22.75-1.79-33.39l-4.25-14.36c17.32,5.74,31.84,11.42,47.66,20.48Z"/>
      <path d="M1247.18,1558.46l-6.32-.75c2.74,5.42,4.9,10.64,6.85,16.36l-.53-15.61Z"/>
      <path d="M1271.82,1606.99c-4.62-16.12-5.19-29.9-1.7-45.88l-21.49-2.58.68,13.86c2.56,16.85,11.4,24.07,22.52,34.6Z"/>
      <path d="M1015.19,1579.42l3.55-3.22-4.88-2.42-.86,9.88,2,2.33c-.09-1.83-.61-5.43.19-6.56Z"/>
      <path d="M1038.52,1643.76c.11-9.73,1.94-17.51,5.57-25.5l-7.96-24.1-9.85,20.72c1.01,11.04,5.17,21.15,12.24,28.88Z"/>
      <path d="M1119.09,1661.31c-2.98-10.97-3.44-20.85-1.5-30.84l-15.66-14.07-21.58-21.9c-2.3,5.92-3.86,12.08-4.76,18.79,9.56,17.74,28.37,38.21,43.51,48.03Z"/>
    </g>
    <path d="M1172.17,1224.74c12.17-7.61,1.43-22.94,6.79-27.45l7.8-6.57c3.12-2.62,4.17-7.02,2.15-11.05l-3.28-6.54c-5.58-11.15,5.63-14.74,6.15-19.44s-5.16-5.63-5.47-11.79c-.38-7.55,9.65-11.29,3.06-20.2s-11.87-21.21-9.32-32.97c1.52-7.02,6.7-10.56,12.38-9.59,4.92-7.95,12.13-12.53,20.07-12.15,4.71.23,8.33,2.76,10.43,8.36,1.99-3.22,4.84-4.73,8.07-3.62,7.47,2.56,13.13,12.37,10.78,16.42-.38.66-1.98,1.27-2.71,1.2-7.29-.73-9.72-7.86-15.23-10.44-13.99-6.56-25.62,3.98-34.26,16.55-1.47,2.14-2.07,6.2-1.5,8.98,1.3,6.3,9.06,7.38,15.4,13.4,4.31,4.1,6.15,11.25,3.41,17.32-1.27,2.82-4.43,3.83-7.21,5.35l6,5.54c.99.91,2.04,3.79,2,5.18-.26,7.93-15.22,9.78-17.77,15.59-2.78,6.34,4.77,10.62,5.82,15.45,1.3,5.94-5.52,11.55-9.38,14.78-3.65,3.07-4.95,7.34-4.11,12.66,1.45,9.2-2.65,17.14-10.23,19"/>
  </g>
  <g>
    <g class="cls-5">
      <g>
        <path d="M2697.77,566.53l-8.18-31.24c-2.22-8.47-6.02-15.98-9.34-25.09l10.77,12.46c4.28-25.24,2.18-52.75-3.71-77.8-1.16-1.51-4.34-5.67-4.59-8.04-1.56-15.15-5.61-36.14-9.78-53,15.89,22.46,8.45,46.68,23.01,57.9l.66-42.48c4.72,18.09,2.7,34.15,4.63,51.42,8.77,6.99,99.17,138.47,108.01,143.44l10.06,11.58c-3.29-14.08-59.82-134.01-66.34-144.62l-93.8-152.61c-4.36-7.09-11.57-10.06-18.1-6.32-17.36,9.95-33.75,19.75-50.68,30.74-56.42,36.66-99.92,86.03-145.18,139.85-13.61,16.19-27.3,30.43-42.53,46.18,29.64,2.96,58.55,5.35,86.94,15.4l58.95,20.87c38.19,13.52,74.37,29.71,111.46,47.43,13.47,6.43,28.73,4.73,40.9,17.66l-26.77-8.1,47.76,34.76c-3-16.3-11.54-29.74-23.34-35.73-7.28-3.7-13.52-11.55-19.19-20.63,6.65,3.21,11.67,7.9,18.39,13.62,1.21-11.88,3.04-25.91-.04-37.65Z"/>
        <path d="M2818.17,762.24l81.75,6.37-71.38-43.59c-36.43-22.25-71.5-44.19-105.54-71.42-28.63-22.9-56.74-42.34-88.99-57.41-46.28-21.63-91.97-40.38-140.15-55.42-56.97-17.79-113.85-21.56-172.25-12.49l-81.8,12.71c20.3,2.29,38.75,4.35,58.42,9.49,68.57,17.92,150.67,57.63,214.18,94.59,43.96,25.58,86.23,51.07,131.28,73.78,63.13,31.83,104.68,37.96,174.5,43.41Z"/>
        <path d="M2335.29,710.93c11.99-50.93,25.25-78.08,42.16-126.2-71.36-31.64-147.23-54.8-221.18-23.25-5.57,2.38-11.08,7.96-13.11,14.66,10.22,20.46,24.88,35.76,40.26,50.54,48.22,41.45,93.67,64.56,151.87,84.25Z"/>
        <path d="M2467.94,797.02c-24.95.3-44.9-4.81-65.54-16.32-5.82-3.25-12.39-5.64-15.32-12.66l29.48,15.28-7.19-16.3-15.11-42.58c-2.96,15.14,1.95,27.38,4.63,42.9-11.07-16.88-10.23-37.54-9.87-60.73-4.32,13.92-8.12,29.32-9.41,45.65-3.01,38.12-11.09,41.51,20.11,70.06-10.48-1.74-17.57-9.95-23.41-20.02.15,10.08,1.34,18.48,2.79,28.54-15.3-23.58-2.84-72.87,1.15-99.98,6.71-45.61,22.92-85.33,46.04-124.1l-44.56-20.75-23.35,62.47c-11.68,31.24-21.24,62.72-24.79,100.46l19.86-41.78c2.91-6.12,4.41-11.76,7.79-17.44l-6.46,38.57c-8.18,48.83.82,107.11,38.32,132.86-1.58,1.58-3.85,3.31-3.29,4.04l2.77,3.6c9.5,12.34,22.23,14.99,35.63,9.69,21.24-8.4,40.63-20.38,60.3-34,31.02-21.48,61.14-42.49,93.69-59.25l-9.3-36.63c-33.25,13.37-64.34,27.32-94.33,46.75-9.47,6.14-37.38,28.1-45.9,23.19l35.25-21.52Z"/>
        <path class="cls-4" d="M2537.04,718.39c6.86-14.06,5.78-29.22-2.11-40.93-2.5-3.71-7.63-6.95-11.08-6.85s-9.17,3.23-11.4,6.87c-7.83,12.8-8,30.44.35,42.71,2.84,4.18,8.45,7.13,12.61,7.2,3.53.06,9.27-4.16,11.64-9Z"/>
        <path class="cls-4" d="M2450.96,719.25c5.48-15.98,1.6-32.34-8.08-42.85-5.84-6.34-14.89-5.24-18.78,3.31-6.19,13.64-5.07,31.01,3.55,43,2.81,3.91,8.56,6.99,12.21,6.51,3.81-.5,9.35-4.87,11.1-9.97Z"/>
        <path d="M2754.55,906.73l33.34,22.89c6.45,4.43,11.93,8.16,19.78,10.45l-27.83-30.86c-11.67-12.94-23.14-25.32-36.05-36.75-22.76-20.14-45.27-39.15-66.01-62.34-8.48-9.48-35.19-41.86-38.6-54.16,7.1,7.78,11.78,16.5,18.18,24.74,22.92,29.47,47.69,55.2,76.71,77.36-17.57-35.22-29.87-72.81-42.09-111.48-30.51-11.82-59.71-26.37-89-42.39l-20.25-11.08c3.09,46.62,20.39,83.91,45.87,117.09-22.49-17.85-34.48-46.19-43.15-75.57l-7.42-42.8c-1.61-2.86-6.73-6.07-9.87-7.32,1.5,33.84,8.61,64.77,17.07,96.46,10.79,40.41,31.1,70.31,58.01,96.77,24.1,23.69,47.35,45.78,76.7,60.09,37.69,18.39,72.09,51.83,104.33,83.19-8.79-17.8-21.02-29.58-33.12-43.18-45.64-51.31-99.03-58.08-140.52-118.76,16.32,16.23,32.19,33.01,51.35,46.02l55.43,37.62c44.99,30.53,85.6,95.13,116.48,123.86l41.98,39.05c1.29-31.27-8.61-58.01-22.96-82.05-15.69-26.29-36.99-45.26-60.61-60.95-11.9-7.9-23.21-16.07-35.49-22.93-15.42-8.61-32.76-15.03-42.26-32.97Z"/>
        <path d="M2085.72,796.62c-4.66-20.54-6.8-40.2-7.74-60.99,11.06,13.44,19.22,24.64,27.9,38.57-9.84-8.31-15.97-17.86-24.84-28.83l7.9,48.91,28.96,19.22,1.34-50.03c-14.95-13.6-29.05-26.12-46.48-37.02l4.33,71.59,17.18,19.56c7.82,8.91,20.06,11.29,31.72,14.13,3.73-13.22,6.68-25.73,6.13-39.72-.12-3.11-4.14-33.48-9.91-28.47l-.78,56.1c-12.96-5.52-25.12-12.59-35.7-23.02Z"/>
        <path d="M2888.97,788.31c6.67-3.48,12.78-6.84,17.63-13.85l-83.27-7.15c-43.14-3.7-84.73-6.59-126.84-19.08,4.74,16.17,9.53,30.01,15.07,44.7l9.11,24.17c54.42,8.33,117.94-2.53,168.29-28.78Z"/>
        <path d="M2373.04,888.7c14.24,12.57,23.3,27.93,39.12,35.14,18.53,8.45,51.47-6.11,67.84-17.06l81.31-54.37c4.62-3.09,8.28-6.48,13.69-7.49l-35.05,27.48c24.62-8.19,45.73-18.2,68.83-27.44-10.32-18.01-18.47-34.27-24.74-54.51-15.88,7.33-31.66,15.26-46.82,25.49l-65.95,44.48c-18.36,12.38-37.01,22.01-57.06,29.09-17.73,6.26-34.16-5.01-37.57-27.49-.98-6.43-3.44-12.54-7.41-16.86l-1.47,30.28c-.67,13.76,9.43,45.73,26.09,44.16-7.74-10.35-15.72-18.85-20.82-30.9Z"/>
        <path d="M2108,842.18c-1.69,8.49,2.26,13.67,7.71,17.81s9.79,5.87,15.46,2.82c5.47-2.95,6.68-8.41,7.58-16.13,1.71-14.63,4.81-29.33-2.67-42.92l-7.56,32.61c-10.53-1.77-18.1-4.57-28.6-7.64,5.91,7.1,12.18,10.49,20.49,17.14l-12.4-3.69Z"/>
        <path d="M3060.52,1477.97c-5.56-27.27-9.4-55.58-23.88-73.88-12.84-16.24-23.19,4.96-33.02-3.2,5.89-38.46-1.85-40.27-14.79-68.58l-61.68-63.92-49.4-60.45c-24.33-29.77-51.15-54.04-78.36-79.85-46.39-44.01-76.59-126.23-94.72-191.97-35.07-22.97-64.91-53.32-93.37-86.47l-54.84,21.12-28.97,11.68c-9.23,3.72-55.3,38.47-74.71,44.61-.82,54.15-2.89,111.74-21.93,165.29-7.58-23.04-9.05-46.27-9.22-69.95l-.61-84.74c-23.98,40.13-45.81,77.13-67.18,117.63-2.58,24-4.89,47.7-8.4,72.27l-38.11,266.8c7.06,6.07,8.36,14.46,4.45,23.22-5.54,12.39,5.64,15.49,2.79,32.87l-12.82-6.43-7.9,74.7,19.63,11.58-14.52,11.92,1.04,19.91-9.8-3.52c-1.58,26.73-4.61,53.09-3.32,82.68,27.28-38.36,43.54-81.45,65.75-126.55,10.25,31.15,17.64,61.75,30.09,90.64l27.05,62.79c21.21-52.09,25.47-94.34,43.53-148.53l38.71,52.27c21.9,29.57,46.4,54.51,75.23,73.83,48.37,32.41,92.98,52.34,142.03,84.27,12.51-34.31,22.06-68.27,30.88-103.92,17.31-70.01,29.4-139.09,34.39-213.26l70.11,23.21c23.07,7.64,45.77,14.23,69.62,17.71l82.14,11.96,64.12,12.25"/>
        <path d="M2150.22,858.91l-19.26,18.58c14.84,9.11,27.46-26.48,19.26-18.58Z"/>
        <path d="M2407.68,887.43c-10.84-8.08-18.46-15.33-26.1-25.44,1.17,16.61,13.52,28.2,26.1,25.44Z"/>
        <path d="M2142.31,897.85c2.83,2.87,10.62,3.9,13.83,1.68,2.57-1.78,6.94-7.2,6.62-10.75-.72-7.95-3.93-15.83-7.07-22.19-7.23,10.6-13.55,14.1-24.95,19.54l11.58,11.73Z"/>
        <path d="M2401.88,930.91c.82-.89,2.8-4.16,1.9-4.83-10.37-7.71-23.37,10.47-40.85-38.91l-23.21,85.03c-3.96,14.5-9.34,27.11-14.38,39.88,10.65-10.05,19.74-19.58,29.27-29.91l47.27-51.26Z"/>
        <path d="M2157.34,925.51c6.8,3.17,15.22-3.93,13.61-10.79-1.37-5.87-4.36-13.62-6.12-18.13-5.71,5.7-9.11,8.33-14.84,11.38l7.35,17.55Z"/>
        <path d="M2349.65,1050.17l67.93-117.02c-2.3-2.24-7.86-4.64-9.68-2.91l-51.29,54.48-40.15,41.85c-9.11,9.49-18.01,16.95-28.52,25.86,22.95-7.16,52.32,13.91,61.71-2.26Z"/>
        <path d="M2431.2,1081.07c14.53-49.71,15.74-100.27,17.06-152.28-3.46.11-8.48,1.44-10.34,3.86l-2.9,53.3c-4.31-16.92-1.26-34.41-.86-52.2.05-2.46-8.1-1.38-8.24,1.22-2.03,37.94-3.52,109.53,5.27,146.1Z"/>
        <path d="M2880.38,1200.78c15.5-20.66,9.75-56.04-2.1-77.49-11.98-21.7-37.25-46.85-42.36-54.72-10.98-16.91-27.16-55.45-36.66-64.42-18.33-17.3-36.92-32.78-56.3-47.55,2.46,16.8,14.05,24.56,14.25,40.57-18.08-30.97-12.91-46.51-46.81-57.13,10.81,42.48,25.26,79.79,43.62,116.42,19.29,38.5,44.69,69.43,76.24,92.58l-22.92-67c13.29,21.14,20.65,53.48,32.34,77.63l15.81,14.54-3.69-8.58-12.51-41.67c-11.83-39.4-47.36-79.05-63.39-116.13l56.21,80.5c34.95,50.06,4.81,60.3,48.28,112.43Z"/>
        <path d="M2218.25,1065.22c1.07,2.79,8.26,1.06,10.1-1.69,1.6-2.39.52-7.59-1.15-11.7l-43.37-107.13c-5.55,4.74-10.01,7.68-15.69,9.47,19.49,36.04,35.29,72.49,50.11,111.05Z"/>
        <path d="M2875.65,1108.23c-8.36-17.64-17.7-33.86-29.32-48.45l-25.32-31.8c7.28,26.25,38.62,61.87,54.63,80.25Z"/>
        <path d="M2257.21,1080.46l-4.59-25.25c-4.14-4.04-8.21-5.29-13.47-2.94.78,9.71,1.49,17.96,4.37,26.37,1.74,5.08,10.14,5.16,13.69,1.83Z"/>
        <path d="M2343.57,1106.6c3.6-26.23-13-49.5-35.78-48.47,12.22,12.43,22.7,27.17,23.56,46.66-8.68-18.48-20.39-48.86-43.36-45.76l9.66,18.11c5.77,10.81,8.76,25.33,15.5,35.4,9.7,14.48,16.5,27.82,22.34,45.27,3.38-18.28,5.74-34.13,8.08-51.21Z"/>
        <polygon points="2347.1 1082.62 2348.59 1058.12 2333 1062.7 2347.1 1082.62"/>
        <path d="M2262.23,1123.09c13.22-11.8,13.09-58.77-6.14-62.28,1.2,6.76,3.69,14.58,5.81,20.6-2.54,7.75-3.37,15.08-1.19,23.87l1.53,17.81Z"/>
        <path d="M2314.05,1118.48l-.81,14.33c-5.47-15.55-16.25-68.06-33.28-73,23.66,54.49,22,93.55,19.98,154.68l19.9,48.89c7.16-71.21,27.6-87.32-5.78-144.9Z"/>
        <path d="M2295.49,1203.44c2.69-25.07,2.31-48.64-.18-73.23-1.27-12.57-11.5-71.47-27.66-67.23,5.89,8.73,8.75,19.33,8.85,31.33.16,19.3,3.7,37.3-.55,57.31l-3.11-37.06-8.19,16.07c12.2,26.22,16.77,45.71,30.84,72.8Z"/>
        <path d="M2238.19,1080.83c-7.43-7.37-14.24-9.34-21.61-7.78-6.79,1.44-9.29,16.76-2.85,21.99,8.02-3.41,16.25-8.22,24.46-14.21Z"/>
        <path d="M2218.25,1117.07l36.01-16.99c.26-4.87-1.27-10.32-3.57-11.85-9.14-6.1-23.54,4.57-34.47,12.14-3.36,2.33-1.44,14.84,2.03,16.7Z"/>
        <path d="M2229.35,1132.82c8.9-2.83,32.05-13.36,28.3-24.81-.5-1.54-4.69-2.57-6.02-1.93l-27.43,13.23c-3.03,2.78.31,13.22,5.15,13.51Z"/>
        <path d="M2313.56,1306.05c2.45-11.45,4.09-23.21,4.87-34.94l-11.14-25.84-50.47-122.74-13.64,11.09,13.42,31.31,45.21,113.39c3.92,9.84,6.97,18.19,11.76,27.72Z"/>
        <path d="M2882.14,1206.74l24.78,28.88c1.2-37.2-4.61-72.11-17.45-103.72,4.71,26.97,9.77,52.1-7.34,74.83Z"/>
        <path d="M2937.25,1162.65l-40.84-30.36c10.89,35.48,15.12,71.69,14.87,109.68,18.99,23.27,38.08,44.22,60.56,65.02,1.46-40.86-15.17-109.63-34.6-144.34Z"/>
        <path d="M2224.81,1591.52c1.63,9.24,4.44,17.01,7.6,25.45l10.27-80.28c7.64,16.61,12.44,29.18,24.54,37.73l16.12,11.4,5.7-68.82c-13.5-23.3-20.18-48.56-22.42-76.31-1.15-14.26-4.18-28.26.64-43.17l1.99,35.99c1.49,27,6.49,52.58,20.07,75.77l6.71-62.63c-8.08-29.81-21.6-56.22-35.47-82.56-7.28-13.83-13.57-27.51-17.5-43.21-13.92-55.68-21.63-127.11-11.87-183.88-1.51-.14-3.95-.44-4.44.49s-1.34,3.67-1.53,5.01l-14.86,106.21c-5.04,36.02-3.82,71.5-5.9,107.83.05.71-2.84-3.36-2.81-4.62l1.46-79.54-18.65,59.63c-11.55,36.94-19.02,74.8-19.27,114.69-.19,30.11,6.58,58.06,15.1,85.83,11.95,38.94,29.61,97.19,58.33,123.04-11.73-38.42-20.54-74.33-26.74-113.02-6.38-39.84-14.97-72.3-11.1-111.96l2.3,26.23c.51,5.85.24,12.78,1.25,18.52l20.49,116.19Z"/>
        <path d="M2311.51,1316.14c-5.17-18.71-13.47-36.02-20.93-51.76-2.78,35.69-5.63,67.88-11.56,100.52-.94-7.83-.16-14.71.68-22.28,3.46-31.1,6.07-60.1,6.81-91.72l-45.06-111.68c-.47-1.15-2.82-3.53-3.62-2.99-5.81,3.88-7.38,46.08-7.42,56.34-.17,42.69,7.28,83.24,15.39,124.46,5.67,17.9,12.23,33.84,21,49.61,12.2,21.94,21.24,43.9,30.58,68.63l14.13-119.12Z"/>
        <path d="M2945.45,1170.59c14.39,35.12,24.61,69.48,29.37,109.17,21.71-39.47,1.76-83.65-29.37-109.17Z"/>
        <path d="M3064.75,1483.92c-45.93-9.23-88.06-17.02-132.65-22.69-30.96-3.94-60.04-10.23-89.81-20.63l-63.98-22.35c-2.74,27.65-4.61,53.87-8.79,81.53-11.56,76.56-32.04,164.04-57.86,236.26l-93.48-53.91c-46.19-26.64-77.47-43.88-114.62-88.08-17.55-20.88-32.15-42.41-49.19-66.06l-14.51,55.34c-8.57,32.67-16.08,64.1-30.11,96.16l-20-46.53c-11.76-27.37-21.94-54.35-30.87-83.24l-7.05-22.8-25.91,54.6c-9.97,21.01-22.64,44.46-34.16,62.71-.98,1.55-5.44,1.61-7.12,1.47-1.57,15.22-2.88,30.21-2.12,47.01,13.64-12.86,22.04-28.08,30.06-44.76l38.17-79.35,32.17,98.56c8.74,26.77,17.9,51.86,28.26,79.11,14.35-39.55,26.6-76.83,34.86-117.2,4.08-19.92,7.03-37.76,15.79-57.45,46.88,44.95,65.45,74.49,118.77,112.1,46.24,32.61,92.59,61.91,141.5,88.99,16.51-7.24,15.97-57.47,22.95-77.58,26.1-75.21,43.11-153.2,47.9-235.91,34.91,7.77,67.61,14.96,102.51,19.75l144.62,19.86,56.64,12.76"/>
        <path d="M3096.75,1511.59c-11.92-39.87-26.13-75.35-45.03-108.76-14.36-25.38-33.32-44.56-54.04-61.77,9.09,14.76,13.38,30.88,11.13,47.1-3.19,23.1,17.04-9.68,32.27,13.89,13.66,21.13,21.02,54.55,23.67,81.86"/>
        <path d="M2911.94,1631.27c-5.45-19.44-10.47-37.49-14.3-56.85-6.31-31.96-13.83-71.44-32.19-95.23l-68.64-13.84c-1.13,20-2.93,38.45-5.8,57.89-6.81,50.61-17.6,98.39-33.38,146.45,19.19,6.72,34.09,17.66,47.74,34.29,4.46-31.28,3.17-60.66-4.57-89.04l-10.88-38.28c44.34,15.31,81.51,30.45,122.01,54.62Z"/>
        <path d="M2890.51,1483.33l-16.17-2c7.01,14.46,12.54,28.39,17.53,43.62l-1.36-41.62Z"/>
        <path d="M2953.58,1612.75c-11.83-42.99-13.28-79.72-4.36-122.35l-55.02-6.89,1.74,36.97c6.55,44.93,29.19,64.19,57.64,92.28Z"/>
        <path d="M2296.61,1539.22l9.08-8.6-12.49-6.46-2.2,26.33,5.11,6.22c-.23-4.88-1.56-14.49.5-17.5Z"/>
        <path d="M2356.34,1710.8c.28-25.96,4.98-46.69,14.26-67.99l-20.37-64.28-25.22,55.25c2.58,29.44,13.23,56.4,31.34,77.01Z"/>
        <path d="M2562.58,1757.6c-7.63-29.25-8.8-55.61-3.84-82.25l-40.1-37.52-55.26-58.41c-5.9,15.79-9.88,32.2-12.19,50.09,24.48,47.3,72.64,101.88,111.38,128.08Z"/>
      </g>
      <path d="M2698.47,593.42c31.15-20.3,3.67-61.16,17.39-73.19l19.96-17.51c7.98-6.99,10.66-18.71,5.49-29.47l-8.39-17.45c-14.29-29.73,14.4-39.3,15.76-51.83,1.28-11.89-13.22-15.01-14-31.45-.96-20.14,24.69-30.11,7.82-53.88-16.09-22.68-30.38-56.55-23.87-87.91,3.89-18.71,17.15-28.16,31.68-25.57,12.6-21.2,31.06-33.41,51.39-32.39,12.06.6,21.31,7.35,26.69,22.29,5.1-8.59,12.38-12.62,20.67-9.66,19.11,6.83,33.62,32.99,27.6,43.8-.98,1.75-5.07,3.38-6.94,3.19-18.66-1.94-24.89-20.95-39-27.85-35.81-17.49-65.58,10.62-87.72,44.14-3.76,5.7-5.31,16.54-3.85,23.93,3.32,16.8,23.21,19.67,39.41,35.75,11.03,10.94,15.75,30,8.74,46.18-3.26,7.52-11.34,10.2-18.47,14.26l15.36,14.77c2.52,2.42,5.23,10.09,5.11,13.82-.66,21.15-38.95,26.07-45.48,41.58-7.11,16.9,12.21,28.31,14.9,41.19,3.32,15.85-14.14,30.79-24.01,39.42-9.35,8.18-12.67,19.57-10.51,33.77,3.72,24.52-6.79,45.71-26.18,50.66"/>
    </g>
    <g>
      <path class="cls-3" d="M2597.96,1612.33c-3.46-.89-8.97-3.69-11.04-2.4-3.14,1.95-6.51,5.95-9.31,8.94-.52-13.64,2.98-14.2-9.07-22.68,12.53-2.73,12.07-1.09,17.92-15.53l5.21,11.19,11.19,2.78-7.54,6.91,2.65,10.79Z"/>
      <g>
        <path class="cls-3" d="M2717.82,1646.22c-2.85,21.98-22.25,36.05-42.53,34.6-18.75-1.34-34.83-13.27-41.9-31.02-9.17-22.99-.83-55.77,25.58-62.51l-6.02,15.39c-7.83,20,4.9,51.68,34.01,55.05,10.66,1.23,20.34-3.56,30.86-11.51Z"/>
        <path class="cls-3" d="M2601.49,1467.64c-20.51,3.01-13.88,2.13-25.53,17.81l-2.74-13.33c-1.32-6.4-7.04-12.26-11.36-16.47,21.13-4.1,13.55-3.67,25.7-17.77l2.47,16.53,11.46,13.23ZM2595.88,1465.13l-8.44-9.19c-1.19-1.29-1.92-5.96-2.62-8.32-3.52,6.19-6.97,8.22-14.78,10.48l8.33,15.06c5.69-5.5,10.18-7.1,17.52-8.04Z"/>
        <path class="cls-3" d="M2625.13,1555.84c-5.43-3.41-9.22-3.79-14.39-.24l-11.94,8.18,5.37-21.09c-6.3-8.1-14.09-8.73-19.15-17.67,8.55-.14,16.86,2.56,23-1.91,4.18-7.29,6.61-16.14,10.05-24.42l9.87,27.65,20.03,3.9c-3.83,8.46-10.87,6.94-14.71,12.35-2.72,3.83,6.46,12.24,5.87,22.04l-13.98-8.78Z"/>
        <path class="cls-3" d="M2561.03,1545.55c-18.09-3.39-16.71-2.68-26.87,9.84l-3.05-17.31-11.5-6.08,11.78-7.09,3.72-16.57,9.51,8.79c5.58,5.16,11.91.56,18.98-.45-1.14,8.53-10.37,10.97-6.17,20.59l3.61,8.28ZM2535.81,1546.14c5.39-5.22,12.02-5.81,18.08-4.72-1.23-5.57-2.07-12.76,1.34-18.05-6.14-.23-11.6-2.86-17.78-7.15l-2.26,6.18c-1.82,4.98-4.37,7.57-9.69,9.85,7.29,1.01,7.67,7.92,10.32,13.9Z"/>
      </g>
    </g>
    <g>
      <path class="cls-3" d="M2941.18,1417.08c-2.58.05-6.92-.88-8.14.49-1.84,2.07-3.49,5.71-4.91,8.49-2.8-9.93-.45-11.06-10.39-14.84,8.26-4.57,8.24-3.27,9.74-15.09l5.64,7.17,8.31-.24-4.03,6.62,3.78,7.4Z"/>
      <g>
        <path class="cls-3" d="M3030.95,1417.55c1.93,16.76-9.1,31.08-23.52,34.16-13.33,2.84-26.7-2.66-34.81-14.28-10.51-15.05-10.54-40.88,6.7-51.23l-1.46,12.56c-1.9,16.32,12.65,37.04,33.59,33.58,7.67-1.27,13.57-6.78,19.5-14.78Z"/>
        <path class="cls-3" d="M2917.81,1309.86c-13.79,6.41-9.32,4.4-14.65,18.32l-4.29-9.25c-2.06-4.44-7.11-7.59-10.88-9.81,14.03-7.33,8.81-5.47,14.78-18.33l4.68,11.66,10.37,7.4ZM2913.44,1309.16l-7.54-5.04c-1.06-.71-2.41-3.99-3.32-5.59-1.35,5.28-3.4,7.47-8.45,10.74l8.5,9.38c2.99-5.21,5.84-7.3,10.81-9.49Z"/>
        <path class="cls-3" d="M2950.07,1369.95c-4.4-1.4-7.11-.91-10.09,2.76l-6.88,8.46-.02-16.62c-5.85-4.67-11.4-3.55-16.53-9.1,5.95-1.85,12.24-1.56,15.72-6.1,1.62-6.22,1.73-13.23,2.65-20.03l11.83,18.34,14.68-1.22c-1.16,7.01-6.35,7.33-8.07,12.09-1.22,3.38,6.7,7.69,8.03,15.02l-11.33-3.61Z"/>
        <path class="cls-3" d="M2903.46,1375.47c-13.24,1.2-12.15,1.44-17.01,12.73l-5.23-12.12-9.12-2.13,6.96-7.62-.36-12.96,8.21,4.53c4.82,2.66,8.42-2.02,13.18-4.21.73,6.51-5.28,10.19-.64,16.41l4,5.36ZM2885.95,1381.06c2.83-4.94,7.36-6.73,11.79-7.17-1.85-3.85-3.72-8.97-2.29-13.56-4.33,1.09-8.61.26-13.7-1.63l-.47,5.01c-.38,4.03-1.7,6.46-5.01,9.23,5.27-.75,6.77,4.26,9.69,8.13Z"/>
      </g>
    </g>
  </g>
</svg>