<?xml version="1.0" encoding="UTF-8"?>
<svg id="Layer_1" data-name="Layer 1" xmlns="http://www.w3.org/2000/svg" viewBox="0 0 1920 1080">
  <g>
    <path d="M1111.74,672.99c-6.84,23.2-43.44,23.58-62.22,14.34-.98-1.26-4.71-28.26-.03-22.81,2.44,2.85,4.02,21.94,23.34,23.86,14.14,1.41,29.14-4.7,30.38-19.94,2.55-31.32-58.29-23.51-52.75-63.37,3.34-24.05,37.94-27.63,56.72-19.26l1.42,16.87c.06.75-1.42,2.97-1.89,2.58-3.59-2.95-2.85-11.14-8.68-15.12-10.61-7.24-25.82-4.86-34.09,4.62-7.26,8.33-5.55,19.92,2.9,26.52,17.43,13.61,54.76,18.23,44.9,51.7Z"/>
    <path d="M1416.92,690.38l-30.25.04c-1.77-4.67,10.05-.79,10.06-7.59l.05-26.28-38.18.09-.22,25.93c-.07,7.79,11.84,2.32,10.67,7.87l-27.56.23c-.55,0-2.18-1.11-2.55-1.32-3.45-1.95,8.89-.05,8.9-7.52l.06-56.44c-4.63-4.12-3.91-.55-8.99-4.06-.49-.34,1.68-1.75,2.31-1.75l26.81-.06c.29.81.74,2.48.24,2.58l-3.48.7c-2.19.44-6.21,1.21-6.19,4.1l.14,26.04,37.96.09.29-24.12c.01-1.12-.36-3.54-1.08-4.23-3.09-2.96-10.35-.17-9.62-5.09l30.11-.12c.69,5.48-9.04,1.08-9.04,7.89l-.03,55.38c0,6.87,10.19,2.9,9.58,7.65Z"/>
    <path d="M1238.08,690.89l-55.46-58.09c-.76,16.42-.63,31.9-.55,48.25,0,1.35.79,4.32,1.86,4.93,1.25.7,4.09,1.15,5.98,1.38l2.84.35c.66.08.54,1.92.13,2.85l-26.47-.12c-.74-5.44,10.67.4,10.66-9.53l-.05-52.78c0-3.67-5.21-4.77-7.79-5.39l-2.25-.54c-.6-.14.71-2.7,1.32-2.7l17.04.11,51.14,53.56.29-44.14c0-1.4-.65-4.01-1.6-4.71-3.65-2.67-11.06.22-9.45-4.71l23.56-.16c.64,0,2.02,2.12,1.54,2.29-5.22,1.93-9.1.71-9.12,6.35l-.28,60.9c0,.79-.56,2.26-.91,2.68s-2.04-.36-2.43-.77Z"/>
    <path d="M1313.86,663.44l-10.87-2.39c-.41-.09-1.57-.44-1.95-.56s.43-1.24.87-1.97l31.05.6-8.16,5.11-.17,21.98c-18.69,9.02-49.22,9.74-62.59-9.29-8.62-12.27-8.22-29.51-.01-41.88,12.63-19.02,40.53-20.03,60.66-12.52l.97,15.1c.04.6-.85,2.02-1.1,2.46-1.78,3.11-2.38-16.3-19.88-17.83-10.51-.92-21.88.85-28.16,10.51-8.96,13.77-8.46,32.95,1.48,46.15,10.79,14.33,35.94,10.89,37.33,2.7,1-5.9.72-11.12.53-18.16Z"/>
    <path d="M1158.24,690.18l-30.17.52c-.53,0-1.66-.31-2.05-.49s-.59-1.74-.17-1.82l2.17-.41c2.56-.48,5.72-1.49,7.8-3.43l.16-58.62c-3.72-4.38-5.68-1.4-10.28-4.51-.52-.35,1.84-1.89,2.51-1.89l27.24-.08c.56,0,1.85.83,2.17,1.17.42.45-1.08,1.82-1.68,1.97l-8.7,2.15.03,61.31c4.3,1.83,7.42-.47,10.97,4.13Z"/>
  </g>
  <g>
    <g>
      <path d="M985.46,556.83c-3.25-.26-4.98,1.07-6.22,3.49-17.04,33.29-44.12,65.36-84.12,67.71-9.97.58-19.6-.41-28-5.11-9.58-5.36-14.3-15.51-11.32-26.13,8.67-30.92,61.87-45.28,89.99-47.08l25.49-1.63c7.33-16.1,13.78-32.16,20.13-48.68l7.8-20.3c-3.91,3.33-6.28,6.38-9.24,10.13-7.16,9.06-15.01,17.33-24.04,24.6-6.56,5.28-19.65,12.93-26.77,7.83-1.68-1.21-3.73-5.05-3.53-7.33l1.04-11.41c-6.35,5.84-12.47,11.46-19.66,16.23-5.2,3.45-15.53,6.49-19.83,2.16-5.64-5.67.64-20.1,3.34-27.8l-17.31,17.62c-6.72,6.84-22.92,17.01-32.24,10.45-8.62-6.06-2.76-24.94,2.55-34.02,8.61-14.7,20.61-27.01,35.37-35.49,8.79-5.05,27.43-11.12,33.18.11,3.59-5.59,10.42-7.36,16.1-4.3-7.81,10.71-32.86,54.1-27.02,65.22,6.92,3.56,25.96-15.69,28.94-20.66,6.1-10.18,11.22-20.09,17.79-29.88-2.8,1.31-3.94,3.32-7.69,1.89l14.48-15.97c1.43-1.58,5.05-2.55,7.1-2.36l8.27.75c-6.18,10.98-35.1,54.58-26.52,64.11,5.27,5.84,23.57-13.22,27.66-17.95,12.41-14.37,23.06-29.21,34.19-44.78,4.61-1.38,9.49-1.54,14.36-1.2-3.15,4.3-5.78,7.9-8.02,12.63-8.23,17.44-15.06,34.86-22.32,52.75l-15.14,37.29c14.94.87,29.08,1.22,43.77.76,7.17-.23,12.79-3.13,19.45-7.07,1.77,10.48-16.63,14.58-24.34,14.77-12.64.31-24.48-.3-37.68-1.35ZM893.61,494.54c7.13-8.57,13.27-17.22,19.54-26.49,2.75-4.06,5.85-12.79,1.75-16.4-5.25-4.62-16.34,2.19-21.21,6.12-13.01,10.51-23.42,23.7-29.55,39.28-1.76,4.47-2.62,10.3-.52,14.42,4.89,9.63,25.91-12.01,30-16.93ZM895.56,624.05c35.87-4.36,58.54-38.91,73-69.48-27.87-2.13-59.9,2.64-83.94,16.93-8.44,5.49-15.58,12.14-19.68,21.36-4.6,10.38-.59,21.52,9.14,27.21,6.29,3.68,13.45,4.41,21.48,3.98Z"/>
      <path d="M1276.16,494.25c-2.75,12.96-39.13,37.61-48.39,27.43-6.11-6.71,5.47-26.83,9.76-34.38l15.13-26.65c.52-.92.16-3.57-.47-4.27-3.68-4.12-16.24,4.53-20.01,7.82-11.09,9.67-20.25,20.6-27.9,33.06l-14.53,23.66c-2.51,4.08-10.67,2.36-14.43,2.07,4.72-10,8.83-19.55,12.8-29.99,12-31.55,26.18-67.31,46.81-94.05,5.62-7.29,12.12-13.8,19.06-19.7,15.83-13.46,40.45-24.96,60.65-18.02,2.61.9,5.48,4.05,3.02,7l-8.57-2.35c-10.41-2.85-21.25-.19-30.8,4.64-37.39,18.91-59.53,78.34-73.32,115.9,10.97-11.54,18.62-23.07,30.83-31.39,7.13-4.85,25.23-14.59,31.04-6.19,1.28,1.85,1.92,6.54.98,8.88-3.99,9.99-8.98,18.67-14.17,28.03-3.45,6.22-12.76,21.7-10.73,27.28,1.67,4.58,13.68-3,17.26-5.8,5.32-4.15,9.46-9.58,15.97-12.98Z"/>
      <path d="M1101.65,512.8c13.33-5.77,15.26-12.33,25.63-20.26,3.78,5.29-18.66,22.54-22.54,25.27-5.45,3.83-16.05,8.27-21.18,3.35-5.76-5.52-.54-20.62,2.21-28.7-12.74,11.87-25.87,29.03-44.91,31.08-3.19.34-7.42-1.33-9.15-3.58-1.81-2.35-2.75-6.66-2.04-10,3.7-17.36,10.56-33.1,20.1-47.53-3.88.67-4.81,5.12-8.67,2.32l17.34-18.27c3.85-.61,9.07.19,12.7,1.23-5.71,9.72-34.84,59.18-24.42,65.22,7.73,4.48,24.88-12.02,30.33-17.99,10.8-11.83,18.95-25.14,26.82-39.12,5.55-9.87,8.4-10.96,20.17-8.66-2.89,3.2-5.97,6.09-7.85,9.81-4.22,8.35-25.78,49.73-18.99,55.59.8.69,3.42.69,4.47.24Z"/>
      <path d="M1324.25,492.8c-1.57,11.93-37.34,39.72-47.95,28.4-4.86-5.19.94-17.7,4.03-23.85l20.97-41.82c-8.14-1.76-17.33,10.64-19.2,5.36,4.91-7.68,31.14-19.47,34.71-11.95.63,1.32.09,4.65-.67,6.13l-18.37,35.64c-2.24,4.35-9.26,18.47-6.91,22.12,3.06,4.75,17.67-5.64,20.8-9.22,4.07-3.57,6.88-7.96,12.58-10.8Z"/>
      <path d="M1166.44,507.69c-6.06,17.91-33.67,20.3-44.76,11.7-1.02-.79-2.34-3.48-2.28-4.71.07-1.41,2.13-3.6,3.55-4.07,4.83-1.61,10.35,13.18,21.78,9.02,7.81-2.84,11.1-12.37,8.82-20.3-2.06-7.13-5.39-13.6-8.48-20.23-4.69-10.06-2.2-20.77,6.89-27.25,15.16-10.8,37.7-6.72,34.87,1.42s-12.76-6.23-22.46-2.58c-5.24,1.97-7.87,8.53-7.07,14.35,1.93,14.06,14.79,25.96,9.15,42.64Z"/>
      <path d="M1328.31,425.53c-5.18.97-8.78-2.71-8.63-7.6.2-6.37,5.72-11.54,11.96-11.33,4.58.16,7.36,3.98,6.71,8.55-.71,5.04-4.68,9.37-10.03,10.38Z"/>
    </g>
    <path d="M706.1,514.13c-38.35,42.36-87.99,80.79-144.26,94.64-26.41,6.5-65.27,9.14-83.5-15.01-7.2-9.54-8.34-21.94-6.12-33.59,2.41-12.61,9.11-22.96,17.63-32.39,26.55-29.38,70.37-47.24,108.11-57.81,47.28-13.25,95.59-18.12,144.82-15.75,7.24-7.56,13.61-14.46,20.03-22.47,3.34-4.16,2.83-11.5,2.52-16.73-2.21-38.03-36.71-55.57-71.33-57.01-35.92-1.5-72.99,8.24-98.05,34.92-2.09,2.23-5.87,3.35-8.99,1.66.12-1.77,1.61-5.01,3.09-6.58,31.7-33.51,87.08-40.03,129.91-29.84,31.55,8.81,52.04,28.83,51.46,64.39,33.99-34.83,71.22-65.99,116.71-83.58,10-3.87,21.12-5.61,31.35-3.61,1.11.22,2.58,1.51,2.93,2.23.44.9-1.85,3.01-2.96,3.04l-15.48.52c-7.95,6.02-15.11,12.57-21.79,20.1-28.86,32.54-47.81,60.15-71.59,98.37,14.42,2.55,28.49-.27,41.42-7.65.61,4.65-3.09,6.98-6.77,8.62-21.54,9.63-35.52.83-41.17,10.4-13.12,22.23-24.07,43.55-33.45,67.6-3.72,9.55-6.48,19.08-5.85,29.41.37,6.11,4.81,11.06,11.46,10.15,7.03-.97,13.83-4.82,19.17-9.84l12.26-11.51c.49-.46,2.3-.88,2.97-1s.73,3.02.3,3.72c-2.83,4.63-8.72,10.13-13.49,13.73-8.8,6.62-18.36,11.03-29.32,10.7-10.85-.32-18.75-7.52-19.61-18.41-2.43-30.65,22.32-73.6,37.68-100.42-11.04-2.21-25.26-3.78-35.8-3.83-14.83,18.27-28.64,35.56-44.3,52.86ZM786.69,458.38c2.71.26,5.48-2,6.76-3.91,26.23-39.07,54.19-75.51,89.71-107.54-13.07,4.46-23.51,11.58-34.34,19.15-30.99,21.68-68.93,57.1-93.11,88.81,10.21,1.52,19.58,2.41,30.99,3.49ZM593.05,589.09c18.82-10.18,35.73-22.06,52.26-35.82,33.5-27.87,63.43-58.29,91.81-92.22-2.42-1.02-5.35-1.77-8.14-1.86-51.73-1.57-113.36,7.68-161.85,25.82-34.77,13-78.44,38.68-85.91,77.94-3.74,19.63,7.28,37.2,25.68,43.25,27.09,8.91,61.88-3.98,86.15-17.1Z"/>
  </g>
</svg>